<?xml version="1.0" standalone="no"?>
<!DOCTYPE svg PUBLIC "-//W3C//DTD SVG 20010904//EN"
 "http://www.w3.org/TR/2001/REC-SVG-20010904/DTD/svg10.dtd">
<svg version="1.0" xmlns="http://www.w3.org/2000/svg"
 width="952.000000pt" height="952.000000pt" viewBox="0 0 952.000000 952.000000"
 preserveAspectRatio="xMidYMid meet">
<metadata>
Created by potrace 1.14, written by Peter Selinger 2001-2017
</metadata>
<g transform="translate(0.000000,952.000000) scale(0.100000,-0.100000)"
fill="#000000" stroke="none">
<path d="M4758 9205 c-2 -2 -30 -6 -63 -9 -33 -3 -70 -8 -81 -10 -12 -2 -39
-7 -60 -11 -83 -13 -100 -16 -129 -25 -16 -5 -43 -11 -60 -14 -16 -2 -32 -5
-35 -7 -3 -1 -10 -3 -15 -3 -6 -1 -28 -7 -50 -13 -22 -7 -103 -31 -180 -54
-77 -23 -239 -75 -360 -117 -121 -41 -236 -76 -255 -79 -19 -2 -42 -5 -52 -7
-53 -11 -163 28 -248 89 -73 52 -155 94 -199 101 -23 4 -41 4 -41 1 0 -2 21
-15 46 -26 25 -12 44 -25 40 -28 -3 -3 -12 -1 -19 6 -17 14 -76 21 -82 11 -3
-5 8 -11 25 -15 16 -4 67 -34 112 -68 96 -72 138 -100 138 -92 0 8 -77 83
-114 113 -16 12 -25 22 -22 22 4 0 50 -33 101 -74 139 -109 167 -116 395 -91
25 2 64 7 87 9 23 3 50 9 60 15 24 14 7 14 -20 0 -14 -7 -18 -7 -12 -1 31 32
254 122 415 168 14 4 6 -4 -52 -49 -13 -9 -3 -6 22 8 100 57 199 98 186 76 -3
-4 -27 -18 -55 -31 -47 -21 -66 -40 -41 -40 6 0 10 5 10 10 0 6 5 10 11 10 5
0 62 25 125 55 64 30 118 55 121 55 3 0 -6 -10 -21 -21 -15 -12 -25 -24 -22
-27 3 -2 12 0 19 6 23 19 149 68 218 85 203 51 423 54 624 11 69 -15 78 -17
144 -29 19 -4 45 -11 58 -16 13 -5 34 -9 46 -9 52 1 -177 85 -261 96 -26 3
-56 9 -67 12 -21 5 -382 12 -387 7z"/>
<path d="M5205 9081 c2 -4 17 -8 35 -9 17 -1 59 -9 93 -18 34 -8 70 -17 81
-19 10 -2 55 -16 100 -31 44 -14 88 -27 96 -29 25 -5 185 -72 242 -101 63 -31
160 -95 155 -100 -2 -2 -23 3 -47 11 -51 18 -66 14 -18 -5 66 -26 164 -100
229 -172 45 -50 84 -83 125 -103 62 -32 63 -32 94 -34 11 0 20 -6 20 -11 0
-18 -92 -1 -145 26 -27 15 -70 43 -95 62 -45 36 -39 18 10 -27 36 -34 126 -91
144 -91 8 0 18 -4 21 -10 3 -5 40 -8 83 -6 172 6 330 103 401 246 12 22 10 22
-14 -5 -124 -141 -193 -177 -325 -170 -117 6 -164 27 -250 113 -61 61 -136
129 -237 217 -87 74 -217 145 -346 186 -135 44 -234 70 -281 75 -77 9 -175 11
-171 5z"/>
<path d="M4330 9030 c0 -5 5 -10 10 -10 6 0 10 5 10 10 0 6 -4 10 -10 10 -5 0
-10 -4 -10 -10z"/>
<path d="M5365 8980 c-2 -3 1 -7 8 -7 7 0 41 -8 76 -17 35 -10 66 -15 69 -12
3 3 1 6 -4 6 -5 0 -39 9 -77 19 -37 10 -69 15 -72 11z"/>
<path d="M2790 8971 c0 -4 24 -15 53 -25 34 -12 68 -34 97 -65 26 -25 54 -52
63 -60 16 -13 17 -12 8 12 -9 24 -6 23 49 -19 49 -37 121 -76 140 -76 3 0 16
-4 30 -9 l25 -9 -25 21 c-14 12 -97 71 -185 130 -152 103 -162 109 -207 107
-27 -1 -48 -4 -48 -7z"/>
<path d="M5530 8940 c0 -5 5 -10 11 -10 5 0 7 5 4 10 -3 6 -8 10 -11 10 -2 0
-4 -4 -4 -10z"/>
<path d="M2788 8870 l24 -19 -64 4 c-35 2 -88 -2 -118 -9 l-55 -14 71 -1 c80
-1 130 -18 187 -63 42 -33 47 -26 17 28 -12 20 -19 38 -16 41 2 3 29 -9 60
-26 76 -43 91 -39 25 7 -85 59 -188 100 -131 52z"/>
<path d="M4743 8786 c-33 -24 -77 -65 -99 -92 -21 -27 -43 -52 -49 -56 -5 -4
-6 -8 -2 -8 4 0 38 31 75 68 37 37 85 82 107 100 58 47 37 39 -32 -12z"/>
<path d="M2530 8722 c12 -8 152 -59 240 -88 8 -3 5 4 -7 16 -13 11 -23 22 -23
24 0 2 17 2 38 -1 60 -8 152 -42 227 -84 67 -37 68 -38 35 -9 -69 61 -213 119
-335 135 -90 12 -190 16 -175 7z"/>
<path d="M3567 8718 c-7 -5 1 -8 21 -8 17 0 32 4 32 9 0 11 -35 10 -53 -1z"/>
<path d="M3630 8720 c0 -4 7 -7 15 -6 23 3 26 12 5 13 -11 1 -20 -2 -20 -7z"/>
<path d="M4566 8702 c-5 -9 -33 -116 -40 -156 -6 -36 11 -22 18 14 3 14 10 41
16 60 21 64 24 111 6 82z"/>
<path d="M3596 8692 c-3 -5 1 -9 9 -9 8 0 12 4 9 9 -3 4 -7 8 -9 8 -2 0 -6 -4
-9 -8z"/>
<path d="M3645 8690 c11 -5 18 -9 15 -10 -14 -4 -41 -8 -103 -15 -78 -8 -80
-17 -6 -23 60 -4 119 13 119 35 0 10 6 13 16 9 8 -3 13 -2 10 3 -3 4 -20 8
-38 8 -27 1 -29 -1 -13 -7z"/>
<path d="M4245 8654 c-9 -15 -12 -23 -6 -20 11 7 35 46 28 46 -3 0 -12 -12
-22 -26z"/>
<path d="M4105 8628 c-12 -56 -21 -139 -15 -143 4 -2 7 1 7 8 0 7 4 32 8 57
12 75 14 100 10 100 -3 0 -7 -10 -10 -22z"/>
<path d="M4587 8557 c-19 -40 -38 -84 -42 -98 -4 -13 -13 -27 -19 -31 -8 -6
-7 -8 1 -8 7 0 19 15 27 33 7 17 28 63 46 100 17 38 29 71 27 74 -3 2 -21 -29
-40 -70z"/>
<path d="M2640 8614 c0 -5 -25 -10 -55 -11 -59 -1 -121 -18 -131 -35 -4 -7 -2
-8 5 -4 18 11 157 17 183 7 20 -7 8 -16 -98 -69 -125 -63 -201 -109 -225 -138
-8 -9 26 4 74 30 49 26 90 46 92 44 3 -2 -28 -29 -68 -60 -40 -32 -97 -83
-127 -114 -51 -53 -52 -55 -15 -28 41 29 90 66 113 85 82 67 317 166 372 156
22 -5 23 -4 7 8 -21 15 -98 13 -152 -5 -55 -18 -53 -5 4 24 28 15 52 26 53 25
2 0 15 2 29 6 44 11 63 13 109 15 44 1 43 1 -45 30 -102 34 -109 35 -100 18 4
-7 -1 -4 -9 6 -9 11 -16 16 -16 10z"/>
<path d="M4205 8568 c-14 -29 -25 -60 -24 -68 0 -8 6 1 14 21 7 20 20 50 29
67 9 18 14 32 11 32 -3 0 -17 -24 -30 -52z"/>
<path d="M3849 8579 c-5 -86 3 -157 27 -227 34 -99 50 -117 24 -26 -28 97 -31
110 -37 194 -5 76 -12 104 -14 59z"/>
<path d="M3509 8583 c-20 -2 -45 -13 -54 -24 -18 -19 -17 -19 31 -19 32 0 44
3 35 9 -8 5 -24 8 -37 6 -13 -1 -21 2 -18 6 3 5 23 9 45 9 21 0 39 5 39 10 0
6 -1 9 -2 8 -2 -1 -19 -3 -39 -5z"/>
<path d="M3566 8578 c3 -4 9 -8 15 -8 5 0 9 4 9 8 0 5 -7 9 -15 9 -8 0 -12 -4
-9 -9z"/>
<path d="M4130 8523 c0 -36 3 -64 6 -61 8 9 10 128 2 128 -5 0 -8 -30 -8 -67z"/>
<path d="M6767 8512 c-40 -54 -131 -142 -147 -142 -5 0 -10 -4 -10 -9 0 -13
115 21 188 54 72 33 145 75 139 81 -2 3 -40 -9 -83 -26 -43 -16 -85 -30 -92
-30 -9 0 -4 18 17 57 17 31 29 58 27 60 -2 2 -20 -18 -39 -45z"/>
<path d="M3548 8543 c7 -3 16 -2 19 1 4 3 -2 6 -13 5 -11 0 -14 -3 -6 -6z"/>
<path d="M7008 8542 c-9 -24 -147 -133 -231 -184 -34 -21 -69 -42 -77 -47 -15
-9 -4 -9 165 4 151 11 271 14 225 6 -25 -5 -65 -15 -90 -22 -25 -7 -49 -13
-55 -15 -5 -1 -33 -11 -61 -22 -50 -20 -87 -36 -202 -88 -29 -13 -56 -24 -60
-24 -4 0 -16 -8 -27 -16 -19 -14 -18 -15 20 -10 133 19 375 28 395 16 6 -4
-15 -13 -47 -20 -75 -18 -72 -17 -78 -20 -3 -1 -8 -3 -12 -4 -77 -15 -283 -73
-283 -79 0 -5 8 -6 18 -2 52 20 357 28 462 11 30 -4 61 -8 68 -9 6 0 12 -4 12
-9 0 -5 -8 -7 -17 -4 -29 9 -261 12 -269 3 -4 -4 4 -7 17 -8 65 -1 216 -11
234 -14 11 -2 46 -4 78 -4 31 -1 57 -4 57 -8 0 -5 -94 -8 -210 -8 -115 1 -206
-2 -202 -6 7 -7 354 -140 402 -154 24 -8 24 -8 5 -16 -23 -9 -206 -5 -280 6
-50 8 -62 1 -15 -9 55 -11 134 -39 178 -63 60 -33 154 -94 167 -108 9 -10 115
-103 194 -171 19 -16 42 -36 50 -44 40 -38 114 -93 106 -80 -44 77 -113 155
-208 234 -32 27 -56 50 -54 52 2 2 21 -5 43 -15 21 -10 71 -33 109 -51 39 -18
82 -39 98 -46 15 -8 27 -12 27 -9 0 2 -24 17 -52 31 -29 15 -65 35 -80 46 -16
11 -28 16 -28 13 0 -3 -12 2 -27 13 -16 10 -76 43 -135 72 -150 75 -101 90 63
20 38 -16 69 -26 69 -22 0 4 -9 12 -19 17 -11 6 -41 23 -68 39 -40 25 -63 31
-138 36 -49 4 -79 8 -65 9 14 2 34 4 45 6 22 4 117 16 152 19 28 2 42 16 17
17 -47 1 -89 10 -132 28 -48 20 -182 68 -261 94 -41 13 -27 14 185 12 126 -2
247 0 269 5 31 6 23 13 -11 9 -3 0 -11 6 -17 15 -10 12 -62 29 -187 61 -8 2
-15 4 -15 5 0 1 -7 3 -15 5 -31 6 -214 56 -217 59 -2 1 14 8 36 15 57 17 114
41 108 47 -10 10 -56 14 -157 14 -102 0 -142 -3 -225 -15 -31 -5 -21 2 45 28
70 28 326 124 379 143 59 20 -174 41 -267 24 -23 -4 -45 -4 -47 0 -3 5 11 21
30 36 49 40 148 164 131 164 -8 0 -16 -4 -18 -8z m2 -480 c0 -4 -33 -8 -72 -9
-45 0 -65 3 -53 8 27 10 125 11 125 1z m237 -65 c3 -4 -13 -4 -37 -2 -24 2
-46 7 -49 11 -8 8 78 -1 86 -9z m156 -27 c9 0 17 -4 17 -10 0 -11 -60 -4 -94
11 -16 7 -11 8 19 4 22 -2 48 -4 58 -5z m-44 -377 c2 -2 0 -3 -6 -3 -6 0 -21
9 -34 21 l-24 20 30 -17 c17 -10 32 -19 34 -21z"/>
<path d="M3731 8508 c-24 -45 -7 -141 42 -237 22 -44 106 -145 114 -138 2 3
-13 33 -34 68 -20 35 -47 91 -60 124 -12 33 -22 52 -22 42 -1 -10 4 -27 9 -38
6 -10 8 -19 6 -19 -11 0 -28 44 -33 84 -2 22 -6 43 -9 45 -2 2 4 10 14 18 9 8
12 12 5 9 -8 -4 -13 6 -15 31 l-3 37 -14 -26z"/>
<path d="M2960 8511 c22 -13 201 -61 195 -52 -2 5 -15 11 -27 14 -13 3 -50 12
-83 21 -102 28 -102 28 -85 17z"/>
<path d="M3894 8432 c6 -56 34 -144 68 -212 36 -71 27 -33 -28 128 -32 92 -43
115 -40 84z"/>
<path d="M4163 8445 c-3 -9 -3 -18 -1 -21 3 -3 8 4 11 16 6 23 -1 27 -10 5z"/>
<path d="M3428 8433 c6 -2 18 -2 25 0 6 3 1 5 -13 5 -14 0 -19 -2 -12 -5z"/>
<path d="M3478 8428 c6 -6 18 -8 28 -6 14 3 12 5 -9 10 -19 3 -25 2 -19 -4z"/>
<path d="M4130 8419 c0 -5 5 -7 10 -4 6 3 10 8 10 11 0 2 -4 4 -10 4 -5 0 -10
-5 -10 -11z"/>
<path d="M3761 8404 c0 -11 3 -14 6 -6 3 7 2 16 -1 19 -3 4 -6 -2 -5 -13z"/>
<path d="M4149 8398 c-1 -7 -2 -26 -3 -41 -2 -15 0 -29 3 -32 4 -2 8 6 8 18 1
12 5 32 8 45 3 12 1 22 -5 22 -5 0 -10 -6 -11 -12z"/>
<path d="M2585 8388 c-53 -11 -160 -59 -175 -78 -3 -3 -21 -16 -40 -28 -41
-25 -71 -50 -158 -134 -65 -63 -83 -103 -22 -49 19 17 38 31 42 31 4 0 13 6
20 13 7 7 42 35 78 62 35 28 74 58 85 68 26 24 172 95 209 101 16 3 33 9 38
14 12 12 -23 12 -77 0z"/>
<path d="M3430 8380 c36 -12 72 -12 65 0 -3 6 -25 10 -48 9 -36 -1 -38 -2 -17
-9z"/>
<path d="M2890 8356 c0 -9 3 -16 8 -17 4 0 45 -2 92 -5 83 -4 84 -4 56 12 -17
9 -58 19 -93 22 -54 4 -63 2 -63 -12z"/>
<path d="M3834 8345 c4 -32 27 -100 50 -150 8 -16 17 -45 21 -62 4 -18 11 -33
16 -33 12 0 12 17 -1 25 -5 3 -10 14 -10 24 0 10 -18 65 -40 122 -22 57 -38
91 -36 74z"/>
<path d="M3406 8348 c3 -5 8 -7 11 -4 3 2 16 1 29 -4 15 -6 24 -6 24 0 0 6 -8
10 -17 11 -10 0 -26 2 -36 4 -9 2 -14 -1 -11 -7z"/>
<path d="M3486 8338 c3 -4 17 -8 31 -8 15 0 23 3 19 7 -10 10 -56 12 -50 1z"/>
<path d="M2486 8290 c-56 -30 -160 -97 -200 -130 -40 -34 -131 -106 -196 -155
-78 -59 -94 -74 -87 -81 3 -3 22 2 42 11 21 8 40 13 42 11 9 -9 -95 -104 -136
-126 -47 -23 -48 -24 -136 -43 -71 -15 -63 -24 19 -22 l59 2 -64 -61 c-36 -34
-105 -97 -154 -141 -49 -44 -96 -87 -105 -95 -14 -13 -64 -57 -174 -150 -46
-39 -96 -93 -91 -98 4 -4 102 68 306 226 99 76 185 120 339 172 136 46 297
108 314 121 6 4 31 26 56 49 51 47 34 40 -75 -28 -80 -49 -164 -84 -350 -141
-38 -12 -79 -26 -90 -31 -57 -24 -53 -13 30 70 83 83 182 150 221 150 12 0 48
15 161 66 40 18 56 39 22 29 -13 -4 -37 -13 -54 -21 -47 -21 -168 -65 -171
-62 -12 13 126 127 246 203 52 33 148 98 214 145 65 47 127 90 138 96 12 7 16
14 9 18 -8 5 -172 -108 -267 -183 -10 -8 -84 -51 -134 -77 -46 -25 -35 -2 32
61 59 57 239 198 286 224 9 5 14 12 11 15 -3 3 -31 -8 -63 -24z"/>
<path d="M2954 8314 c-5 -1 -21 -5 -36 -8 -35 -8 -37 -25 -3 -21 14 1 25 -1
25 -4 0 -4 -33 -12 -74 -18 -41 -7 -96 -22 -123 -35 -48 -22 -143 -78 -143
-84 0 -2 37 13 83 32 127 55 196 74 259 73 65 -3 105 -19 45 -19 -23 0 -36 -4
-32 -10 3 -5 16 -10 27 -10 40 0 10 -11 -43 -16 -50 -5 -179 -41 -179 -50 0
-2 16 -2 36 0 46 6 38 -1 -32 -30 -133 -54 -222 -147 -318 -333 -38 -74 -63
-131 -57 -127 15 10 -44 -90 -83 -139 -17 -22 -39 -52 -48 -67 -10 -14 -88
-96 -175 -182 -86 -85 -154 -158 -150 -162 4 -4 14 1 23 12 8 10 14 14 12 8
-4 -14 -76 -92 -104 -114 -21 -16 32 47 56 66 8 7 12 16 8 19 -7 7 -30 -17
-83 -84 -11 -14 -14 -22 -7 -17 6 4 12 3 12 -3 0 -5 -8 -12 -17 -15 -18 -6
-115 -134 -113 -149 1 -4 -6 -19 -14 -32 -9 -13 -18 -32 -20 -42 -1 -10 -6
-25 -9 -33 -3 -8 -8 -44 -11 -80 -5 -64 -8 -93 -21 -197 -3 -28 -2 -54 3 -57
4 -2 9 -42 11 -88 4 -135 -11 -86 -25 80 -3 45 -10 82 -14 82 -3 0 -7 -8 -8
-17 -3 -43 -2 -170 2 -188 7 -37 25 -99 51 -179 31 -99 31 -125 0 -66 -38 71
-73 168 -95 265 -12 50 -24 97 -27 105 -11 28 -13 44 -17 160 -6 164 23 290
104 453 38 75 41 111 4 42 -10 -19 -22 -35 -26 -35 -5 0 -7 -3 -6 -7 1 -5 -7
-26 -19 -48 -19 -38 -51 -122 -58 -155 -2 -8 -10 -42 -18 -75 -8 -33 -18 -81
-21 -106 -4 -25 -9 -59 -12 -75 -4 -16 -6 -87 -7 -157 0 -74 -4 -122 -8 -114
-16 29 -37 136 -33 171 9 81 12 103 23 151 23 105 23 102 7 81 -13 -16 -26
-63 -40 -147 -2 -15 -11 -51 -20 -80 -9 -30 -20 -70 -25 -89 l-8 -35 -12 28
c-16 40 -14 73 9 152 12 39 22 77 25 85 2 8 4 15 5 15 1 0 3 11 5 25 3 20 1
18 -13 -10 -9 -19 -19 -37 -22 -40 -3 -3 -7 -12 -8 -20 -4 -15 -5 -19 -21 -80
-10 -40 -13 -30 -16 55 -2 74 7 118 46 214 43 108 33 108 -43 -1 -15 -22 -29
-34 -33 -28 -4 6 -14 2 -26 -12 -18 -23 -18 -22 0 33 32 94 50 120 175 247
119 122 173 189 81 102 -121 -115 -218 -200 -227 -200 -11 0 27 92 58 142 40
62 120 144 173 175 51 30 54 32 95 68 45 39 26 38 -24 -2 -40 -32 -98 -63
-116 -63 -4 0 1 9 11 20 18 20 18 21 -1 14 -10 -4 -32 -16 -49 -27 -28 -18
-27 -16 5 14 92 87 245 200 322 239 27 13 46 25 44 27 -12 12 -310 -154 -336
-187 -3 -3 -16 -14 -29 -23 -49 -33 -147 -136 -170 -179 -22 -37 -22 -41 -5
-28 10 8 21 17 24 20 40 40 42 32 4 -16 -85 -107 -161 -294 -143 -354 4 -14 8
-18 8 -10 1 8 21 63 44 122 40 101 102 207 114 195 3 -3 -4 -19 -16 -35 -26
-37 -87 -220 -96 -286 -19 -148 1 -273 68 -428 29 -69 37 -59 16 19 -10 37
-17 69 -15 70 1 2 15 -23 30 -56 14 -32 42 -76 60 -97 31 -37 94 -134 126
-198 12 -24 16 -26 19 -11 5 30 56 -63 102 -187 23 -62 52 -129 65 -148 31
-45 30 -27 -1 45 -27 59 -28 76 -4 53 8 -8 48 -40 89 -73 129 -102 201 -167
251 -227 51 -61 65 -61 28 -1 -49 79 3 32 147 -134 82 -94 127 -204 126 -308
-1 -77 -10 -110 -72 -260 -23 -55 -48 -118 -56 -139 -14 -38 -14 -39 4 -23 10
9 23 17 28 17 5 0 4 -4 -1 -8 -6 -4 -18 -27 -27 -52 l-17 -45 27 34 c47 60
152 161 167 161 8 0 15 -7 15 -16 0 -8 4 -13 9 -9 6 3 10 13 10 23 0 9 5 37
11 62 10 40 20 52 86 100 41 30 80 60 87 66 7 6 23 17 36 24 l24 12 -20 -28
c-15 -22 -18 -36 -12 -58 5 -16 5 -34 2 -40 -21 -37 -79 -122 -86 -127 -5 -3
-9 -10 -8 -15 0 -5 -18 -33 -40 -63 -22 -29 -39 -55 -37 -56 2 -2 24 24 48 58
62 84 186 207 308 306 95 76 103 85 97 110 -5 25 -2 29 32 44 21 8 45 18 53
21 8 2 -1 5 -20 6 l-35 1 45 39 c35 30 42 41 33 51 -17 17 -101 -2 -211 -47
-107 -44 -158 -77 -182 -117 -13 -21 -20 -26 -20 -14 0 9 -3 17 -6 17 -13 0
-111 -73 -177 -132 -73 -66 -72 -43 1 31 46 46 214 171 229 171 7 0 13 4 13 9
0 23 243 111 306 111 32 0 61 29 73 73 7 28 6 37 -3 37 -32 0 -290 -140 -430
-234 -86 -58 -164 -112 -172 -121 -25 -25 -26 -17 0 33 47 94 86 182 84 189
-2 5 7 28 19 53 21 43 29 74 38 151 2 19 6 54 10 79 4 25 8 56 10 70 1 14 6
50 11 80 14 86 10 307 -11 595 -7 104 -8 268 -1 325 9 71 43 195 68 243 10 21
23 49 28 62 14 37 -12 22 -48 -28 -16 -23 -42 -55 -57 -72 -26 -29 -27 -29
-20 -5 4 14 11 27 14 30 4 3 22 25 41 50 19 25 37 47 40 50 26 25 52 60 44 60
-5 0 -23 -13 -41 -28 -81 -70 -87 -71 -59 -9 8 18 25 58 39 89 29 66 77 137
121 183 33 34 99 85 109 85 4 0 -11 -30 -34 -66 -22 -36 -37 -69 -34 -73 6 -6
26 16 45 49 5 8 11 12 15 8 9 -9 -17 -56 -62 -114 -56 -71 -60 -80 -22 -53 18
13 40 30 47 37 31 28 31 8 1 -45 -17 -32 -36 -62 -41 -68 -4 -5 -8 -16 -8 -25
1 -12 4 -11 16 5 15 19 16 16 9 -35 -4 -30 -9 -68 -11 -85 -2 -16 -6 -46 -9
-65 -5 -32 -8 -60 -20 -215 -5 -63 -5 -339 0 -425 10 -177 4 -514 -10 -582 -4
-15 -8 -41 -10 -58 -7 -52 -14 -66 -36 -67 -11 -1 -27 -7 -34 -13 -16 -13 -57
-130 -46 -130 4 0 26 13 47 28 36 26 139 63 355 126 48 14 92 32 98 40 11 13
17 13 46 0 23 -9 41 -11 57 -5 25 10 24 11 -35 16 -48 4 -52 8 -33 37 13 21
76 223 90 293 6 26 5 28 -5 10 -13 -21 -59 -71 -59 -63 0 2 10 24 21 48 52
107 59 130 43 130 -32 0 -73 -34 -79 -64 -6 -27 -36 -99 -66 -158 -7 -13 -5
-18 5 -18 23 0 -15 -68 -43 -75 -28 -7 -36 -1 -25 17 16 25 12 38 -12 38 -24
0 -32 -14 -15 -24 15 -10 1 -44 -21 -49 -14 -4 -18 -2 -14 10 14 37 17 61 7
67 -21 13 -11 21 29 23 21 1 47 7 57 13 15 9 13 10 -12 4 -16 -4 -41 -6 -55
-5 -28 1 -54 21 -28 21 9 0 20 5 24 12 5 7 3 8 -5 4 -7 -5 -19 0 -27 10 -9 11
-12 13 -8 5 5 -9 3 -12 -5 -7 -7 5 -9 16 -5 28 4 13 2 18 -4 14 -11 -6 -25 21
-17 34 3 4 21 11 42 15 25 4 32 9 23 15 -7 4 -23 6 -35 4 -35 -6 -65 25 -68
70 -2 36 0 40 33 52 34 12 33 14 -17 18 -15 1 -16 6 -7 30 4 11 2 21 -7 27
-12 8 -12 11 1 19 8 5 10 10 4 10 -7 0 -14 9 -17 19 -3 13 2 21 16 25 20 5 20
6 -4 25 -21 18 -22 20 -5 21 15 0 16 3 6 15 -10 13 -9 15 11 15 22 1 22 2 -6
15 -16 7 -24 14 -17 14 6 1 11 4 10 9 -3 16 15 61 23 56 5 -3 9 0 9 5 0 6 -5
11 -11 11 -6 0 -9 6 -7 12 3 7 -5 21 -16 31 -17 15 -18 18 -3 13 21 -7 23 10
2 18 -8 3 -15 10 -15 16 0 6 4 9 9 5 5 -3 12 -1 16 5 3 6 -1 13 -10 16 -12 5
-13 9 -4 20 6 8 8 14 3 14 -5 1 2 8 16 16 14 8 17 13 8 10 -10 -3 -20 -1 -23
3 -2 5 5 12 18 15 21 7 21 7 2 16 -11 5 -15 9 -10 9 6 1 3 6 -5 11 -11 7 -11
10 -2 10 8 0 10 5 6 12 -15 24 -11 68 5 68 13 1 12 3 -3 15 -12 9 -15 15 -7
15 8 0 11 6 7 17 -4 9 -1 20 6 25 10 8 10 11 1 15 -14 5 -18 24 -5 22 4 -1 14
-1 22 0 12 1 12 4 -2 12 -10 5 -18 15 -18 20 0 6 4 8 8 5 4 -2 14 -1 22 5 9 5
10 9 3 9 -7 0 -10 13 -9 31 2 25 16 41 72 87 38 30 107 73 154 95 47 22 98 49
113 59 16 11 30 19 31 17 2 -2 15 -39 29 -82 l25 -79 -29 -12 c-39 -16 -28
-25 20 -16 31 5 38 4 34 -7 -3 -7 1 -13 8 -14 8 0 3 -5 -11 -11 -14 -6 -29
-10 -33 -9 -5 1 -6 -3 -3 -8 4 -6 18 -6 39 0 44 12 57 11 51 -5 -4 -10 2 -12
23 -9 23 4 25 2 13 -7 -15 -11 16 -10 145 7 33 4 38 3 28 -8 -21 -21 -15 -28
17 -19 17 5 30 6 30 2 0 -4 -19 -41 -41 -82 -79 -148 -70 -160 16 -21 28 44
53 80 57 81 7 0 -45 -103 -65 -127 -5 -7 -6 -13 -1 -13 5 1 38 39 74 86 101
134 94 122 79 142 -13 15 -12 16 3 4 10 -8 19 -9 22 -3 4 5 2 12 -4 16 -20 12
-10 26 10 15 16 -9 20 -8 20 5 0 10 5 13 13 9 9 -6 9 -5 0 8 -7 8 -10 18 -6
21 3 4 0 13 -7 22 -10 12 -10 15 4 15 9 0 16 5 16 10 0 6 -6 10 -12 10 -10 0
-10 2 -1 8 6 4 13 30 14 57 0 28 8 65 16 84 8 18 17 48 20 65 3 17 9 39 14 49
6 11 6 17 0 17 -5 0 -19 -24 -30 -52 -15 -39 -20 -46 -20 -28 -1 14 3 40 8 58
6 18 6 30 1 27 -5 -3 -11 -19 -15 -35 -11 -51 -23 -33 -18 28 4 53 3 56 -11
37 l-15 -20 -2 20 c-1 11 0 25 1 30 1 6 3 17 5 25 5 27 17 94 22 120 7 38 16
40 10 2 -4 -26 -3 -31 7 -23 7 6 17 7 21 3 5 -4 5 -2 2 4 -8 14 12 76 22 69 5
-2 14 21 21 53 7 31 16 59 20 62 4 3 10 18 14 33 5 22 4 27 -6 21 -10 -5 -11
-4 0 7 16 17 15 46 -1 52 -9 3 -14 -7 -16 -37 -2 -48 -16 -68 -19 -29 -4 53
-20 46 -28 -13 -4 -33 -7 -63 -6 -67 2 -5 -1 -6 -6 -3 -5 3 -5 27 -1 53 13 77
11 153 -3 153 -9 0 -8 4 2 10 12 8 12 12 2 18 -8 5 -10 16 -6 27 6 14 4 16 -6
10 -10 -6 -12 -2 -8 17 3 19 -5 36 -34 69 l-39 44 20 -45 c39 -89 41 -97 42
-180 2 -115 0 -120 -21 -61 -47 131 -142 223 -269 261 -105 31 -185 28 -289
-11 -30 -11 -73 -22 -95 -24 -23 -3 -58 -7 -77 -10 -120 -16 -130 -16 -130 -6
0 6 -14 5 -37 -4 -56 -20 -93 -39 -93 -47 0 -5 -4 -8 -10 -8 -8 0 -75 -42 -88
-55 -3 -2 19 5 47 15 99 38 291 71 291 50 0 -6 -4 -10 -9 -10 -18 0 -281 -132
-281 -141 0 -14 12 -11 48 11 46 28 51 25 11 -9 -19 -16 -45 -39 -59 -52 l-25
-22 23 6 c27 6 24 1 -45 -73 -65 -70 -83 -91 -127 -150 -22 -30 -44 -57 -47
-60 -12 -10 -79 -137 -79 -149 0 -7 38 40 85 105 138 194 163 221 278 301 l52
36 -45 -45 c-110 -110 -194 -212 -119 -147 48 42 90 72 95 67 2 -3 -12 -18
-33 -34 -21 -15 -57 -47 -80 -71 -41 -41 -62 -56 -47 -31 4 7 3 8 -4 4 -6 -4
-8 -14 -5 -23 4 -11 3 -14 -5 -9 -7 4 -12 1 -12 -9 0 -9 -4 -14 -9 -11 -8 5
-41 -62 -41 -84 0 -5 -5 -21 -12 -37 -6 -15 -12 -32 -14 -38 -1 -5 -12 -37
-24 -70 -12 -33 -23 -75 -25 -95 -5 -38 -7 -48 -29 -130 -15 -52 -25 -105 -31
-160 -2 -14 -6 -50 -9 -80 -9 -77 -14 -170 -9 -170 2 0 17 28 33 63 16 34 29
59 30 56 0 -3 -18 -60 -40 -127 -44 -133 -48 -154 -20 -102 11 19 20 31 20 25
1 -5 3 -44 6 -85 2 -41 10 -106 17 -145 13 -65 13 -146 3 -270 -2 -27 -5 -69
-5 -92 -1 -24 -5 -43 -10 -43 -5 0 -7 8 -4 19 3 10 1 21 -4 24 -5 3 -8 -8 -7
-24 1 -16 -2 -42 -6 -57 -6 -21 -8 -12 -9 37 -1 101 -10 66 -16 -64 -3 -66 -8
-121 -10 -124 -3 -2 -5 47 -6 110 0 78 -3 107 -9 92 -5 -13 -12 -23 -15 -23
-4 0 -4 3 -2 8 3 4 7 30 11 57 3 28 8 66 11 85 3 27 2 31 -6 18 -5 -10 -11
-37 -13 -60 -2 -24 -5 -43 -6 -43 0 0 -3 -18 -6 -40 -2 -22 -9 -56 -14 -75
l-9 -35 3 33 c1 17 -1 32 -6 32 -4 0 -8 -21 -8 -47 0 -69 -10 -47 -12 28 -2
79 -9 104 -20 69 -4 -15 -5 0 -2 35 11 140 15 181 19 204 3 16 1 21 -6 14 -5
-5 -12 -29 -14 -54 -6 -52 -17 -167 -18 -191 -1 -10 -5 -18 -10 -18 -8 0 -2
197 8 240 3 14 8 36 10 50 2 14 11 56 19 94 19 79 15 101 -4 29 -7 -26 -15
-52 -16 -58 -32 -99 -38 -150 -38 -325 0 -165 4 -221 20 -282 16 -64 16 -64 4
-45 -19 30 -49 144 -61 231 -10 74 -14 328 -5 419 3 36 -5 44 -11 9 -13 -77
-18 -170 -17 -305 2 -145 -2 -198 -8 -119 -1 18 -5 32 -9 32 -8 0 -5 276 4
312 4 15 3 29 -2 32 -5 3 -9 0 -8 -7 1 -36 -4 -67 -11 -67 -11 0 -2 154 13
230 3 14 8 41 11 60 3 19 8 43 11 54 3 10 1 16 -4 13 -9 -6 -33 -95 -39 -142
-17 -136 -21 -311 -9 -387 3 -24 8 -56 10 -72 2 -15 7 -37 10 -47 4 -10 2 -19
-4 -19 -13 0 -37 77 -49 165 -9 67 -8 278 2 339 5 34 4 46 -3 41 -47 -28 49
220 128 333 60 85 50 87 -13 3 -58 -77 -128 -224 -146 -306 -6 -27 -15 -70
-20 -95 -24 -111 -31 -237 -16 -330 11 -76 12 -79 19 -86 4 -4 7 -19 7 -33 -1
-67 -48 71 -57 164 -6 66 -13 85 -14 39 0 -26 -1 -27 -10 -9 -7 14 -8 9 -3
-20 11 -73 12 -117 2 -107 -12 12 -28 74 -34 132 -5 51 -5 241 1 282 9 71 18
121 39 207 8 35 11 60 5 54 -5 -5 -11 -18 -14 -29 -2 -10 -11 -46 -19 -79 -26
-109 -31 -149 -31 -290 0 -154 -13 -131 -19 33 -4 126 -15 129 -14 3 1 -103
15 -194 29 -186 4 3 5 -3 2 -13 -2 -10 5 -40 17 -66 21 -50 36 -116 26 -116
-20 0 -82 168 -93 249 -3 24 -9 55 -14 70 -7 21 -8 18 -5 -17 3 -41 -4 -50
-11 -14 -5 22 -3 199 2 232 8 53 66 262 81 291 8 17 14 35 12 41 -6 16 -62
-103 -92 -193 -13 -41 -30 -111 -36 -156 -7 -46 -14 -83 -17 -83 -2 0 -2 37 2
82 5 78 1 98 -11 47 -12 -46 -14 -219 -3 -271 5 -29 12 -69 14 -88 4 -33 3
-32 -11 10 -38 112 -45 148 -58 305 -1 11 1 35 5 53 4 17 3 34 -1 37 -4 3 -10
-10 -14 -28 -3 -17 -9 -48 -12 -67 -4 -19 -7 -47 -8 -62 0 -16 -5 -28 -9 -28
-13 0 1 120 24 201 31 112 96 244 147 298 7 7 10 16 7 19 -10 11 -106 -103
-136 -163 -26 -52 -29 -55 -24 -25 l6 35 -20 -25 c-16 -20 -29 -65 -35 -122
-1 -3 -5 -10 -9 -14 -8 -8 -4 30 15 141 5 33 12 71 14 85 12 71 75 207 138
300 24 36 118 149 171 206 80 87 114 126 195 220 52 61 104 122 115 135 19 22
87 116 122 169 10 14 91 100 182 193 142 144 172 170 219 187 59 22 140 29
151 12 8 -12 114 19 109 33 -2 6 -9 9 -16 8 -8 0 -11 5 -8 13 4 10 -3 14 -27
13 -18 0 -26 -3 -19 -6 6 -2 12 -8 12 -12 0 -9 -134 -6 -150 4 -8 5 -11 4 -7
-2 4 -6 -5 -10 -21 -11 -32 -1 -98 -27 -108 -43 -4 -8 1 -9 17 -4 20 6 17 1
-16 -30 -22 -21 -67 -63 -99 -94 -32 -31 -56 -50 -52 -44 4 7 32 36 62 65 31
29 60 61 66 71 10 19 9 19 -22 1 -42 -25 -100 -88 -199 -216 -45 -60 -84 -108
-86 -108 -5 0 72 137 99 175 87 124 192 207 319 249 63 21 105 28 189 29 37 0
68 4 68 8 0 4 -24 12 -52 17 -48 9 -50 10 -16 11 45 1 62 21 19 21 -17 0 -31
5 -31 11 0 6 7 8 16 5 22 -8 40 4 23 15 -11 7 -9 9 6 9 14 0 7 7 -20 20 -35
18 -37 19 -10 14 53 -11 75 -11 75 -3 0 9 -4 10 -39 13 -11 0 -23 4 -27 8 -3
4 3 6 14 3 12 -2 24 0 27 4 4 8 -102 30 -121 25z m601 -319 c69 -15 171 -100
209 -174 18 -34 12 -39 -18 -16 -12 9 -22 11 -26 5 -3 -5 -19 -11 -34 -12 -28
-3 -28 -4 -22 -51 3 -28 19 -74 37 -106 18 -31 41 -71 51 -90 18 -32 17 -55
-1 -35 -5 5 -37 63 -70 128 -33 66 -67 124 -75 128 -9 5 -27 6 -42 2 l-27 -7
44 -38 c24 -21 39 -39 32 -39 -6 0 -15 5 -18 10 -3 6 -17 10 -30 10 -13 0 -27
-4 -30 -10 -3 -5 0 -10 8 -10 30 0 114 -90 152 -160 l37 -71 -30 15 c-47 24
-133 34 -183 21 -24 -6 -85 -34 -135 -62 -80 -46 -102 -62 -151 -103 -26 -22
-12 -31 16 -11 58 42 273 135 330 144 34 6 88 -9 108 -28 9 -9 -8 -12 -71 -11
-102 1 -139 -14 -266 -108 -52 -39 -97 -73 -100 -77 -3 -3 -21 -15 -40 -26
-67 -42 -141 -101 -132 -107 6 -3 26 10 46 30 19 19 39 33 44 30 5 -3 18 3 29
13 10 10 30 24 44 31 40 21 -92 -97 -152 -134 -68 -43 -105 -52 -112 -26 -3
12 2 20 14 23 13 4 17 10 12 23 -4 12 -3 15 5 10 7 -4 12 -2 12 3 0 15 -8 14
-46 -9 -46 -29 -49 -12 -7 40 19 25 39 54 45 64 9 16 8 18 -8 12 -11 -3 0 12
23 34 58 55 32 50 -41 -7 -66 -52 -59 -34 20 50 65 69 79 87 66 87 -6 0 -31
-16 -56 -35 -56 -42 -64 -44 -38 -7 64 89 199 192 315 239 68 28 194 53 235
47 15 -2 42 -5 60 -8 17 -2 32 -2 32 0 0 2 -19 13 -42 25 -33 17 -53 20 -97
16 -31 -3 -65 -9 -76 -13 -41 -14 -270 -128 -283 -141 -7 -7 -17 -13 -21 -13
-4 0 -16 -8 -27 -17 -92 -82 -80 -59 36 67 47 50 87 94 90 97 3 3 -7 -2 -22
-11 -20 -13 -27 -14 -31 -4 -4 8 -8 9 -14 3 -5 -5 -23 -23 -42 -40 -27 -25
-32 -26 -22 -8 12 24 81 81 123 102 15 8 25 18 21 24 -3 5 -8 5 -12 1 -8 -12
-84 -46 -77 -35 3 4 35 28 71 52 91 60 87 67 -24 38 -19 -5 -37 -6 -40 -4 -9
10 32 44 61 50 19 5 28 12 24 20 -3 9 11 19 44 30 61 20 74 37 25 30 -20 -2
-33 0 -30 5 3 5 -7 5 -25 0 -54 -15 -23 6 50 34 38 15 68 31 65 36 -6 9 -88
-10 -123 -29 -12 -6 -22 -9 -22 -6 0 8 138 72 170 78 30 6 144 2 185 -8z
m-379 -120 c-11 -8 -27 -15 -35 -15 -10 0 -7 6 9 14 33 19 50 19 26 1z m640
-270 l5 -40 -25 34 c-29 39 -31 52 -14 84 11 22 12 21 20 -8 5 -16 11 -48 14
-70z m-976 -91 c-14 -35 -13 -35 16 -24 63 24 55 13 -46 -70 -30 -25 -64 -53
-75 -63 -11 -11 -47 -40 -79 -65 l-59 -46 113 140 c100 122 128 153 137 154 1
0 -2 -12 -7 -26z m842 -188 c16 -7 28 -30 34 -63 4 -25 -34 -46 -70 -39 -55
10 -73 59 -36 96 19 19 37 21 72 6z m-316 -154 c0 -77 15 -122 52 -165 8 -9
12 -20 9 -24 -4 -3 -25 12 -47 35 -34 37 -54 84 -54 127 0 33 26 105 38 105 0
0 1 -35 2 -78z m-2116 -512 c0 -5 -5 -10 -11 -10 -5 0 -7 5 -4 10 3 6 8 10 11
10 2 0 4 -4 4 -10z m8 -201 c1 -18 1 -31 -2 -28 -7 7 -15 69 -7 65 4 -3 8 -19
9 -37z m847 -188 c3 -5 2 -12 -3 -15 -5 -3 -9 1 -9 9 0 17 3 19 12 6z m-12
-51 c-3 -12 -8 -19 -11 -16 -5 6 5 36 12 36 2 0 2 -9 -1 -20z m-390 -60 c3
-11 1 -18 -4 -14 -5 3 -9 12 -9 20 0 20 7 17 13 -6z m374 -45 c-1 -25 -4 -45
-8 -45 -8 0 -17 79 -10 86 13 13 20 -1 18 -41z m-370 -7 c-3 -8 -6 -5 -6 6 -1
11 2 17 5 13 3 -3 4 -12 1 -19z m368 -78 c2 -12 1 -20 -2 -16 -4 4 -8 16 -10
28 -4 28 6 18 12 -12z m15 -160 c0 -11 -2 -20 -4 -20 -2 0 -6 9 -9 20 -3 11
-1 20 4 20 5 0 9 -9 9 -20z m14 -77 c9 -50 23 -95 54 -171 13 -34 22 -65 20
-67 -6 -6 -67 112 -73 143 -3 12 -7 32 -10 45 -10 43 -13 97 -5 92 4 -3 11
-22 14 -42z m189 0 c-6 -16 -5 -17 12 -3 17 14 18 13 12 -3 -4 -10 -7 -37 -7
-59 0 -47 -13 -43 -16 5 -2 18 -6 42 -9 55 -5 13 -3 22 4 22 6 0 8 -8 4 -17z
m194 -8 c0 -8 -4 -15 -9 -15 -10 0 -11 14 -1 23 9 10 10 9 10 -8z m-85 -25
c-2 -16 -6 -30 -8 -30 -2 0 -4 14 -4 30 0 17 4 30 8 30 5 0 7 -13 4 -30z m28
-160 c0 -5 -5 -10 -11 -10 -5 0 -7 5 -4 10 3 6 8 10 11 10 2 0 4 -4 4 -10z
m-90 -193 c4 -21 6 -36 3 -33 -10 10 -40 105 -31 100 4 -3 9 1 9 8 1 7 4 2 6
-12 3 -14 8 -42 13 -63z m120 -212 c-7 -8 -17 -15 -23 -15 -6 0 -2 7 9 15 25
19 30 19 14 0z"/>
<path d="M3374 8309 c-2 -4 22 -12 54 -18 83 -16 125 -21 118 -13 -11 10 -167
39 -172 31z"/>
<path d="M3345 8262 c-68 -8 -37 -17 61 -17 68 -1 98 2 88 8 -18 10 -100 15
-149 9z"/>
<path d="M4359 8213 c-7 -32 -12 -94 -12 -137 1 -86 21 -226 33 -226 8 0 4 67
-5 110 -8 34 -8 205 0 263 9 65 -1 59 -16 -10z"/>
<path d="M3349 8219 c-7 -4 -17 -5 -23 -2 -5 3 -6 1 -3 -4 5 -7 -6 -11 -29
-11 -20 0 -41 -5 -47 -11 -8 -8 15 -11 83 -11 51 0 91 3 88 6 -7 6 -34 12 -62
13 -44 2 -2 15 44 14 28 -1 50 3 50 7 0 11 -83 11 -101 -1z"/>
<path d="M3460 8218 c0 -4 6 -8 14 -8 8 0 17 4 20 8 2 4 -4 8 -15 8 -10 0 -19
-4 -19 -8z"/>
<path d="M3282 8157 c-29 -5 -50 -13 -47 -17 3 -5 11 -7 18 -5 11 5 72 11 121
14 11 1 17 4 14 7 -10 10 -51 10 -106 1z"/>
<path d="M3687 8103 c60 -82 96 -123 107 -123 8 0 8 2 0 8 -6 4 -18 21 -27 37
-19 38 -85 115 -98 115 -6 0 2 -17 18 -37z"/>
<path d="M6830 8009 c0 -5 5 -7 10 -4 6 3 10 8 10 11 0 2 -4 4 -10 4 -5 0 -10
-5 -10 -11z"/>
<path d="M2962 7998 c-9 -4 25 -6 76 -5 52 1 95 4 97 7 5 8 -153 6 -173 -2z"/>
<path d="M4597 7975 c-9 -20 -17 -41 -17 -48 0 -7 9 8 20 32 24 52 21 66 -3
16z"/>
<path d="M5725 7953 c-199 -45 -378 -234 -365 -383 1 -14 2 -31 3 -37 1 -21
11 -4 15 25 4 31 5 33 25 36 8 1 22 8 30 14 15 13 24 7 22 -13 0 -5 -10 -35
-22 -65 -20 -53 -26 -85 -24 -123 1 -23 21 -12 21 11 0 36 45 104 133 205 28
31 53 85 44 94 -3 3 -25 -4 -49 -15 -23 -12 -43 -20 -45 -19 -1 2 11 19 27 39
26 32 28 37 13 40 -28 6 -74 -9 -102 -34 -21 -19 -23 -20 -11 -3 65 90 157
154 288 201 42 15 80 30 84 33 12 11 -27 8 -87 -6z"/>
<path d="M4555 7873 c-9 -20 -14 -40 -13 -45 2 -5 11 11 20 37 20 54 15 61 -7
8z"/>
<path d="M4561 7818 c-46 -144 -44 -135 -33 -118 16 24 75 201 69 206 -3 3
-19 -37 -36 -88z"/>
<path d="M6869 7804 c18 -8 36 -13 39 -10 8 9 0 13 -38 19 l-35 6 34 -15z"/>
<path d="M4320 7804 c0 -6 7 -19 16 -30 14 -18 14 -18 3 6 -14 31 -19 36 -19
24z"/>
<path d="M4374 7740 c2 -25 5 -55 5 -67 1 -13 5 -23 10 -23 11 0 2 112 -10
125 -6 6 -8 -7 -5 -35z"/>
<path d="M1720 7762 c0 -5 7 -9 15 -9 8 0 15 4 15 9 0 4 -7 8 -15 8 -8 0 -15
-4 -15 -8z"/>
<path d="M6539 7726 c48 -49 50 -63 6 -46 -42 16 -41 5 2 -20 41 -24 103 -38
103 -23 0 17 -84 99 -120 118 l-35 17 44 -46z"/>
<path d="M4335 7740 c3 -5 8 -10 11 -10 2 0 4 5 4 10 0 6 -5 10 -11 10 -5 0
-7 -4 -4 -10z"/>
<path d="M6675 7738 c7 -16 55 -52 54 -41 0 4 -13 18 -30 31 -16 13 -27 18
-24 10z"/>
<path d="M6160 7721 c14 -12 37 -27 51 -34 27 -14 94 -66 235 -180 46 -38 84
-65 84 -61 0 13 -135 137 -205 188 -38 28 -92 62 -120 76 -70 34 -73 34 -45
11z"/>
<path d="M4346 7707 c3 -10 9 -15 12 -12 3 3 0 11 -7 18 -10 9 -11 8 -5 -6z"/>
<path d="M6395 7649 c39 -40 87 -89 108 -108 25 -24 35 -41 31 -53 -3 -10 -2
-18 3 -18 4 0 21 -12 36 -26 16 -14 31 -23 34 -20 11 11 -51 91 -142 182 -110
111 -170 148 -70 43z"/>
<path d="M6110 7706 c0 -2 7 -9 15 -16 13 -11 14 -10 9 4 -5 14 -24 23 -24 12z"/>
<path d="M6157 7679 c7 -7 15 -10 18 -7 3 3 -2 9 -12 12 -14 6 -15 5 -6 -5z"/>
<path d="M6369 7621 c41 -39 79 -71 83 -71 4 0 8 -4 8 -8 0 -11 60 -55 67 -49
9 10 -148 152 -200 181 -21 12 -7 -6 42 -53z"/>
<path d="M6770 7661 c0 -6 4 -13 10 -16 6 -3 7 1 4 9 -7 18 -14 21 -14 7z"/>
<path d="M6190 7656 c0 -2 7 -7 16 -10 8 -3 12 -2 9 4 -6 10 -25 14 -25 6z"/>
<path d="M4388 7615 c2 -14 6 -25 8 -25 2 0 4 11 4 25 0 14 -4 25 -9 25 -4 0
-6 -11 -3 -25z"/>
<path d="M6815 7625 c11 -9 29 -23 40 -33 11 -9 40 -33 65 -52 25 -19 54 -43
65 -53 38 -33 107 -87 112 -87 24 0 -220 201 -279 230 -22 11 -22 11 -3 -5z"/>
<path d="M5632 7610 c-28 -10 -65 -29 -81 -42 -39 -32 -78 -95 -87 -142 l-7
-38 44 47 c73 80 155 124 239 130 78 5 222 -46 314 -112 l51 -36 -43 44 c-82
87 -215 139 -364 142 -15 0 -25 4 -22 9 3 5 10 5 16 2 7 -4 8 -2 4 4 -4 7 -8
12 -9 12 -1 -1 -26 -9 -55 -20z"/>
<path d="M6265 7601 c56 -45 69 -70 24 -45 -19 11 -37 23 -40 28 -4 5 -12 7
-20 4 -7 -2 8 -16 32 -30 38 -23 73 -54 134 -121 36 -38 7 -35 -45 6 -100 77
-121 86 -65 26 28 -29 57 -60 66 -69 24 -23 109 -130 109 -137 0 -5 -60 47
-99 84 -7 8 -16 11 -19 8 -3 -3 15 -27 39 -53 83 -86 158 -189 186 -254 7 -15
15 -51 18 -80 3 -29 8 -70 10 -91 3 -21 7 -42 10 -47 3 -5 1 -11 -5 -15 -5 -3
-10 -14 -9 -23 0 -14 2 -14 10 3 8 17 9 17 4 -5 -2 -14 -5 -32 -5 -40 -1 -12
-3 -11 -14 3 -17 22 -27 2 -15 -28 4 -11 8 -31 8 -44 1 -23 0 -24 -19 -6 -11
10 -20 23 -20 29 0 20 -83 226 -91 226 -7 0 41 -143 62 -181 7 -13 6 -19 -1
-19 -6 0 -13 6 -16 14 -3 8 -12 17 -20 20 -18 7 -13 -3 26 -54 15 -19 30 -40
33 -47 9 -14 -72 28 -193 101 -97 59 -96 54 11 -39 19 -16 30 -27 25 -22 -6 4
-20 7 -31 7 -42 0 -166 108 -283 247 -50 59 -64 81 -42 68 27 -17 -8 25 -53
64 -29 24 -75 66 -104 92 -90 85 -184 108 -302 73 -29 -8 -55 -14 -56 -12 -8
8 67 51 102 58 93 21 165 -5 342 -126 19 -13 37 -22 39 -19 4 3 -10 17 -97 93
-42 36 -125 73 -184 81 -60 8 -155 -7 -206 -34 -33 -16 -74 -72 -65 -87 3 -4
0 -8 -5 -8 -6 0 -11 -7 -11 -14 0 -8 -16 -49 -35 -91 l-35 -77 -45 37 c-44 36
-65 36 -25 0 11 -10 17 -22 14 -26 -3 -5 -1 -9 3 -9 5 0 18 -6 28 -14 19 -13
18 -15 -15 -28 l-35 -15 40 -7 c56 -11 58 -14 35 -51 -12 -19 -23 -46 -26 -61
-4 -24 -3 -26 11 -14 8 7 15 19 15 26 0 8 4 14 9 14 6 0 8 -8 6 -18 -5 -26 13
-114 26 -127 7 -7 8 -5 4 8 -4 9 -3 17 2 17 5 0 15 -21 22 -47 16 -55 44 -116
85 -186 41 -70 43 -50 3 30 -38 73 -43 88 -51 146 -5 33 -3 39 20 49 20 10 38
8 87 -6 94 -26 131 -35 170 -40 20 -2 42 -8 48 -12 7 -4 9 -3 5 4 -7 12 4 21
33 27 50 9 120 75 157 147 8 15 24 8 129 -54 66 -39 122 -74 125 -77 21 -29
150 -89 236 -111 30 -7 56 -26 97 -69 69 -72 72 -94 20 -146 -25 -25 -31 -35
-18 -30 47 17 52 17 57 -7 8 -49 -6 -82 -47 -106 l-40 -24 33 6 c30 5 32 4 22
-14 -9 -16 -8 -18 5 -14 23 9 19 -28 -6 -60 -11 -14 -37 -35 -57 -46 -40 -20
-30 -28 12 -9 56 26 68 -16 18 -66 -16 -16 -19 -23 -9 -19 20 7 22 -7 5 -25
-11 -10 -10 -12 2 -9 11 2 14 -7 12 -42 -1 -37 -8 -51 -39 -82 -21 -20 -45
-38 -53 -38 -10 -1 -9 -4 5 -9 13 -5 31 -1 53 12 18 11 35 18 37 15 3 -2 -7
-21 -21 -42 -14 -21 -24 -40 -21 -43 7 -6 -23 -93 -32 -93 -4 0 -16 -19 -26
-42 -26 -59 -76 -106 -122 -113 -55 -10 -62 -13 -25 -14 44 -1 40 -14 -10 -33
-24 -9 -35 -17 -25 -17 9 -1 17 -5 17 -11 0 -5 8 -10 18 -10 10 0 -5 -15 -36
-37 -52 -37 -53 -38 -33 -54 24 -20 18 -29 -20 -29 -22 0 -27 -4 -22 -16 5
-14 2 -16 -21 -10 -15 4 -31 4 -36 1 -17 -10 22 -41 104 -84 91 -47 196 -123
246 -177 l35 -38 -45 35 c-120 94 -197 138 -335 188 -58 21 -105 37 -105 36 0
-2 20 -15 45 -29 25 -15 45 -30 45 -35 0 -4 30 -24 68 -43 109 -58 196 -114
200 -128 3 -8 -6 -6 -24 7 -16 11 -69 37 -119 58 -49 21 -112 48 -140 60 -27
12 -68 28 -90 36 -22 8 -42 17 -45 21 -3 3 -16 0 -30 -7 -18 -11 -20 -14 -8
-15 69 -1 546 -287 676 -405 29 -26 50 -50 47 -54 -3 -3 -9 -1 -13 5 -34 50
-547 374 -591 374 -6 0 -11 -9 -11 -20 0 -12 -11 -32 -25 -46 -14 -14 -25 -30
-25 -37 0 -7 19 -27 43 -45 79 -61 179 -167 232 -247 29 -44 95 -163 147 -265
53 -102 112 -213 131 -246 61 -103 134 -153 230 -159 60 -4 56 1 -29 31 -37
13 -80 36 -96 51 l-28 27 81 38 c44 21 85 38 89 38 14 0 20 29 7 37 -7 4 -28
13 -47 18 -19 6 -34 15 -34 20 1 6 35 19 76 31 41 11 96 33 123 47 l48 27 -6
-63 c-3 -36 -14 -81 -23 -100 -10 -20 -15 -40 -11 -43 4 -4 27 1 52 10 32 13
58 33 88 71 23 30 45 54 48 54 3 1 18 -22 34 -50 20 -38 30 -48 37 -38 7 12 9
11 7 -1 -1 -8 -1 -37 0 -64 1 -44 3 -47 18 -35 33 28 54 96 58 191 4 97 -13
173 -66 287 -34 74 -34 100 0 151 36 55 148 164 256 251 44 35 85 68 91 74 6
5 29 24 50 40 117 91 244 210 327 304 39 46 42 47 28 9 -17 -46 -21 -78 -11
-78 5 0 10 5 10 10 0 6 16 46 36 88 20 42 56 122 81 177 24 55 49 105 55 110
8 7 9 6 3 -5 -6 -11 -5 -12 3 -5 10 10 16 31 27 105 6 33 12 96 14 130 1 21
15 2 41 -60 34 -83 44 -169 27 -252 -5 -25 -4 -38 3 -38 5 0 10 8 10 18 0 10
5 23 12 30 7 7 9 12 5 12 -3 0 0 17 7 38 7 20 11 67 10 104 -2 56 -10 84 -47
160 -24 51 -52 118 -62 148 -10 30 -24 68 -32 84 l-15 29 31 -23 c17 -12 43
-36 57 -54 31 -39 94 -153 88 -159 -3 -2 2 -10 10 -16 13 -11 14 -8 6 21 -6
18 -23 59 -40 91 -17 33 -25 57 -18 57 26 0 -43 54 -196 156 -88 59 -179 121
-201 139 -22 17 -47 35 -55 40 -23 13 58 -61 131 -120 81 -65 130 -122 161
-184 34 -68 34 -69 2 -31 -44 53 -84 91 -144 137 -30 23 -65 51 -77 63 -13 11
-23 18 -23 14 0 -4 32 -38 71 -77 83 -82 141 -157 163 -209 8 -21 13 -38 12
-38 -4 0 -114 133 -128 154 -4 6 -9 8 -12 5 -3 -3 20 -43 50 -89 65 -98 84
-141 84 -184 -1 -29 -2 -28 -21 19 -12 28 -26 60 -32 72 -19 41 -18 18 2 -40
11 -32 17 -57 14 -57 -3 0 -1 -6 4 -12 5 -7 10 -29 11 -48 1 -19 -1 -28 -4
-20 -4 8 -13 30 -20 48 -49 114 -62 133 -37 55 22 -73 24 -82 28 -161 3 -46 1
-70 -6 -67 -5 4 -9 12 -8 18 3 24 -1 38 -9 33 -5 -3 -29 51 -53 119 -24 69
-47 125 -50 125 -6 0 6 -60 28 -140 5 -19 10 -60 11 -90 l1 -55 -13 45 c-7 25
-32 90 -56 145 -23 55 -58 141 -76 190 -19 50 -38 99 -43 110 -40 94 -56 125
-59 116 -2 -5 3 -25 12 -43 105 -231 203 -567 192 -664 -5 -42 -33 -133 -36
-114 0 3 -2 51 -4 107 -2 56 -7 114 -10 130 -3 15 -8 44 -11 63 -26 155 -114
383 -176 448 -10 12 -19 26 -19 32 0 6 -4 8 -10 5 -6 -3 3 -29 20 -62 36 -67
34 -80 -4 -23 -35 53 -44 51 -11 -2 93 -150 144 -319 146 -482 1 -65 4 -90 9
-71 7 31 5 154 -4 184 -3 9 -8 43 -11 76 -7 74 9 64 31 -18 24 -94 24 -224 0
-322 -2 -5 -6 -27 -11 -48 -8 -40 -24 -61 -19 -24 7 49 11 117 6 112 -6 -6 -7
-7 -16 -84 -4 -29 -9 -58 -12 -62 -3 -5 -8 -21 -10 -36 -7 -39 -44 -120 -60
-134 -17 -14 -17 -13 -4 31 6 19 13 73 16 120 7 88 1 108 -10 33 -15 -113 -89
-272 -135 -293 -24 -11 -25 -11 -10 7 24 29 51 97 54 139 3 42 16 89 33 121 8
15 8 23 -1 33 -9 10 -9 11 1 6 8 -5 12 0 13 16 0 13 3 62 5 111 3 77 1 87 -14
88 -14 0 -14 2 -2 7 9 4 15 19 14 37 -1 17 -2 40 -3 53 -1 13 -5 20 -11 17 -6
-4 -11 7 -11 24 -1 17 -2 34 -3 39 -2 4 -6 34 -11 67 -15 111 -31 180 -38 161
-4 -10 -5 -21 -2 -26 21 -33 25 -505 6 -615 -6 -33 -12 -64 -14 -70 -7 -23
-166 -326 -179 -340 -14 -15 12 51 50 129 38 77 60 135 67 175 3 14 11 58 19
98 13 68 14 139 2 191 -3 13 -6 65 -7 116 -1 52 -7 107 -15 123 -7 15 -25 55
-40 88 -15 33 -40 81 -56 108 -15 26 -25 47 -22 47 3 0 -3 12 -14 28 -10 15
-34 55 -53 90 -18 34 -37 62 -41 62 -8 0 36 -87 136 -273 51 -95 74 -152 84
-207 8 -48 7 -356 -1 -403 -10 -51 -45 -151 -74 -208 -12 -26 -23 -52 -23 -57
0 -6 -4 -13 -9 -17 -10 -5 -8 15 9 88 4 21 4 37 -1 37 -5 0 -9 -8 -9 -18 0 -9
-9 -41 -19 -70 -11 -29 -20 -55 -20 -57 -4 -28 -132 -235 -146 -235 -4 0 79
242 91 262 5 9 4 10 -4 3 -6 -5 -24 -44 -40 -85 -43 -109 -97 -220 -127 -259
-14 -19 -25 -42 -25 -50 -1 -31 -22 19 -40 97 -26 105 -21 254 9 311 6 11 11
23 11 28 -1 17 -34 -54 -45 -99 -17 -61 -13 -215 5 -248 7 -14 13 -27 12 -30
-3 -9 21 -75 44 -122 13 -26 24 -51 24 -55 0 -9 -25 15 -26 25 0 4 -12 32 -26
62 -30 67 -57 146 -74 220 l-13 55 6 -50 c9 -74 10 -78 18 -100 4 -11 13 -36
20 -55 7 -19 13 -37 13 -40 1 -10 14 -46 28 -77 7 -18 12 -33 10 -33 -9 0 -45
38 -41 44 3 3 2 4 -2 1 -3 -3 -17 5 -30 17 -42 39 -24 3 23 -48 132 -141 173
-220 180 -346 2 -55 -10 -64 -20 -15 -4 17 -13 46 -21 62 l-14 30 5 -37 c6
-45 -4 -48 -42 -13 -15 14 -33 25 -41 25 -7 0 -18 -11 -23 -25 -5 -14 -12 -25
-14 -25 -3 0 -3 6 -1 13 7 18 -4 30 -65 72 -146 100 -249 273 -284 478 -3 15
-7 35 -10 45 -3 9 -8 33 -10 52 -3 19 -7 46 -10 60 -18 80 -27 200 -15 200 5
0 9 -10 10 -22 0 -13 2 -32 4 -43 2 -11 6 -47 10 -80 21 -194 131 -490 218
-590 32 -37 143 -113 152 -104 2 3 -12 22 -32 44 -21 24 -33 32 -29 20 8 -23
8 -22 -55 55 -117 143 -196 332 -233 560 -3 19 -7 44 -10 55 -2 11 -7 40 -10
65 -3 25 -8 56 -11 70 -3 14 -8 59 -11 100 -3 41 -7 85 -9 97 -2 13 0 25 5 28
5 3 11 -12 13 -32 2 -21 3 1 3 48 -1 55 -5 85 -11 82 -5 -3 -4 0 3 8 14 15 17
33 4 25 -5 -3 -9 1 -9 9 0 8 4 12 9 9 4 -3 8 -1 8 5 0 5 -5 13 -10 16 -6 4 -7
12 -3 18 4 7 8 37 9 67 1 30 5 63 9 73 5 11 3 17 -6 17 -12 0 -12 2 -1 9 8 4
14 12 14 16 0 4 -6 12 -14 16 -7 5 -8 9 -2 9 12 0 13 19 20 290 5 217 6 226
28 222 21 -4 24 -17 -39 182 -14 43 -25 83 -25 88 0 18 20 -3 36 -40 22 -47
21 -45 34 -37 7 4 7 11 2 18 -5 7 -21 48 -37 92 -15 44 -36 86 -46 93 -11 7
-19 19 -19 26 0 8 -7 27 -15 42 -24 46 -18 63 10 29 13 -16 24 -42 25 -57 0
-16 5 -28 10 -28 6 0 19 -15 30 -32 21 -35 24 -30 20 37 -4 69 -63 214 -112
273 -22 26 -1 20 31 -8 18 -17 34 -30 36 -30 9 0 -19 56 -47 94 -31 44 -37 66
-13 46 24 -20 27 -6 4 19 -16 16 -18 25 -10 30 8 5 -5 24 -38 54 -28 26 -53
47 -57 47 -7 0 24 -40 41 -52 5 -4 6 -10 2 -15 -8 -8 -49 32 -108 107 -45 56
-60 85 -24 46 36 -39 42 -28 8 16 -27 34 -185 170 -206 177 -7 2 6 -11 28 -28z
m83 -86 c-3 -3 -9 2 -12 12 -6 14 -5 15 5 6 7 -7 10 -15 7 -18z m-642 -416
c64 -60 -15 -127 -116 -98 -49 14 -51 100 -2 117 41 14 91 6 118 -19z m-294
-115 c3 -50 13 -87 31 -124 15 -30 25 -55 23 -58 -8 -7 -46 19 -62 44 -20 30
-26 119 -12 175 6 22 12 38 13 37 1 -2 5 -35 7 -74z m488 -62 c0 -46 -48 -115
-98 -141 -33 -17 -38 -7 -7 13 33 22 62 81 71 146 7 50 8 51 20 29 7 -13 13
-34 14 -47z m1787 -1298 c-3 -48 -17 -43 -15 6 1 21 5 37 10 34 4 -3 7 -21 5
-40z m-3 -81 c-7 -40 -12 -39 -12 1 0 20 4 34 8 31 5 -3 6 -18 4 -32z m-1499
-573 c3 -5 1 -10 -4 -10 -6 0 -11 5 -11 10 0 6 2 10 4 10 3 0 8 -4 11 -10z
m297 -394 c55 -32 73 -52 31 -34 -41 17 -93 57 -93 71 0 8 3 9 8 1 4 -6 28
-23 54 -38z m63 -202 c85 -36 147 -35 228 4 76 37 90 40 54 12 -50 -40 -119
-62 -212 -67 -102 -6 -110 -1 -141 72 l-16 40 24 -22 c13 -12 41 -30 63 -39z
m170 -124 c44 -17 82 -34 84 -36 2 -2 -17 -13 -43 -25 -56 -24 -146 -37 -146
-20 0 6 -8 19 -18 29 -91 91 -33 115 123 52z"/>
<path d="M5325 7543 c8 -65 26 -123 37 -117 4 3 6 9 3 14 -2 4 -8 25 -11 46
-3 22 -8 46 -9 54 -2 8 -4 23 -4 33 -1 9 -6 17 -11 17 -7 0 -9 -18 -5 -47z"/>
<path d="M2301 7553 c-13 -16 -51 -57 -85 -92 -33 -35 -52 -59 -41 -53 24 12
91 82 130 135 32 43 29 50 -4 10z"/>
<path d="M7240 7522 c0 -6 157 -101 184 -111 40 -16 148 -145 151 -182 1 -10
19 -35 41 -55 47 -43 185 -169 234 -213 l35 -32 -45 29 c-54 34 -80 45 -80 32
0 -6 3 -10 8 -10 4 0 21 -12 37 -28 17 -15 67 -58 113 -95 45 -38 82 -71 82
-73 0 -5 -33 13 -205 113 -164 95 -275 153 -275 144 0 -5 33 -30 73 -56 203
-134 279 -202 376 -338 37 -51 93 -129 126 -173 60 -82 136 -148 198 -172 l32
-12 -25 17 c-38 27 -140 130 -140 143 0 10 59 -19 115 -57 32 -22 40 -15 9 9
-40 31 -141 135 -189 194 -21 28 -79 81 -127 120 -48 38 -87 75 -88 82 0 14
34 -7 75 -45 11 -10 61 -49 110 -86 50 -37 96 -72 103 -78 24 -20 11 3 -28 50
-22 26 -40 51 -40 56 0 29 -125 172 -186 212 -16 10 -23 22 -19 33 4 13 -8 29
-42 57 -43 35 -93 85 -135 137 -61 74 -91 116 -86 122 7 6 17 -4 98 -100 35
-42 68 -76 73 -76 13 0 -73 118 -123 169 -59 59 -79 75 -165 131 -16 10 -35
22 -41 27 -9 7 -23 16 -71 43 -49 27 -163 78 -163 72z m791 -909 c13 -16 12
-17 -3 -4 -10 7 -18 15 -18 17 0 8 8 3 21 -13z"/>
<path d="M5651 7475 c-62 -23 -92 -46 -175 -134 -47 -49 -67 -88 -38 -72 9 5
30 24 47 42 74 80 203 169 245 169 6 0 8 5 5 10 -8 13 -9 13 -84 -15z"/>
<path d="M4537 7473 c-9 -15 -28 -81 -32 -109 -2 -16 -7 -40 -10 -54 -8 -34
-14 -292 -6 -285 3 4 6 18 7 33 12 214 22 310 38 373 12 46 13 59 3 42z"/>
<path d="M7290 7435 c0 -7 161 -125 171 -125 5 0 9 -3 9 -8 0 -4 10 -13 23
-20 12 -7 -3 10 -33 37 -30 28 -61 51 -67 51 -7 0 -13 4 -13 9 0 5 -20 21 -45
34 -25 14 -45 24 -45 22z"/>
<path d="M4597 7308 c-9 -28 -12 -47 -8 -42 11 12 34 84 29 89 -2 3 -12 -18
-21 -47z"/>
<path d="M4575 7239 c-4 -6 -5 -12 -2 -15 2 -3 7 2 10 11 7 17 1 20 -8 4z"/>
<path d="M4557 7190 c-3 -11 -3 -20 -1 -20 2 0 8 9 14 20 6 11 7 20 2 20 -6 0
-12 -9 -15 -20z"/>
<path d="M3931 7157 c-13 -21 -12 -21 5 -5 10 10 16 20 13 22 -3 3 -11 -5 -18
-17z"/>
<path d="M6817 7164 c-3 -4 3 -18 14 -33 12 -14 41 -55 65 -90 51 -75 56 -73
15 7 -31 61 -84 126 -94 116z"/>
<path d="M3901 7103 c-10 -26 -10 -27 4 -9 8 11 15 23 15 28 0 15 -7 8 -19
-19z"/>
<path d="M7250 7051 c0 -6 6 -14 14 -18 7 -4 31 -22 52 -40 21 -17 77 -62 124
-99 102 -81 272 -249 323 -320 34 -48 67 -83 67 -72 0 4 -14 23 -50 65 -5 7
-10 15 -10 19 0 21 -173 201 -275 287 -33 27 -63 55 -67 61 -5 6 -8 7 -8 1 0
-6 -3 -6 -8 1 -13 19 -162 125 -162 115z"/>
<path d="M6794 6970 c13 -38 26 -73 29 -77 4 -3 7 -14 7 -23 0 -9 7 -25 15
-36 13 -16 14 -16 9 -1 -3 9 -1 24 6 32 9 11 6 23 -14 58 -14 24 -26 50 -26
58 1 8 8 -2 16 -21 8 -19 18 -37 22 -40 9 -6 44 -79 68 -138 9 -24 18 -41 20
-39 13 13 -95 231 -136 275 -35 37 -39 25 -16 -48z"/>
<path d="M5248 6973 c7 -3 16 -2 19 1 4 3 -2 6 -13 5 -11 0 -14 -3 -6 -6z"/>
<path d="M1643 6938 c-29 -39 -79 -173 -88 -238 -11 -74 -12 -170 -3 -170 5 0
8 7 8 16 0 8 3 13 8 10 4 -2 8 14 10 37 1 23 20 112 41 197 22 85 39 156 37
157 -2 2 -8 -2 -13 -9z"/>
<path d="M6875 6815 c8 -28 14 -51 14 -53 0 -1 5 -28 12 -60 7 -31 13 -61 13
-66 1 -5 6 -11 13 -13 9 -3 10 4 3 28 -5 18 -12 50 -16 73 -3 22 -8 45 -12 50
-3 6 -7 21 -8 35 -2 13 -10 31 -19 40 -14 14 -14 11 0 -34z"/>
<path d="M7345 6818 c22 -25 62 -83 89 -129 47 -83 54 -76 11 11 -28 55 -74
113 -112 143 -21 16 -18 11 12 -25z"/>
<path d="M3170 6715 c-25 -14 -37 -25 -29 -25 25 0 89 29 89 40 0 15 -10 12
-60 -15z"/>
<path d="M6470 6700 c0 -5 5 -10 11 -10 5 0 7 5 4 10 -3 6 -8 10 -11 10 -2 0
-4 -4 -4 -10z"/>
<path d="M1841 6558 c-26 -56 -62 -168 -55 -168 3 0 0 -9 -6 -20 -7 -13 -7
-20 -1 -20 6 0 14 15 19 33 6 17 26 76 45 130 38 105 37 129 -2 45z"/>
<path d="M7910 6594 c0 -4 42 -50 94 -103 52 -53 121 -124 155 -159 34 -35 61
-60 61 -55 0 19 -49 83 -99 129 -57 52 -64 58 -154 142 -31 30 -57 50 -57 46z"/>
<path d="M6871 6419 c1 -189 -8 -433 -17 -461 -3 -10 -1 -18 3 -18 5 0 10 21
12 47 1 26 4 49 7 52 7 7 15 -6 17 -28 1 -11 5 -21 9 -21 4 0 4 21 1 48 -7 50
-7 118 -1 301 4 102 -10 232 -26 248 -3 3 -5 -73 -5 -168z"/>
<path d="M3414 6548 l-19 -23 23 19 c21 18 27 26 19 26 -2 0 -12 -10 -23 -22z"/>
<path d="M5612 6497 c13 -21 28 -46 33 -55 27 -45 48 -72 56 -72 5 0 -3 17
-18 39 -16 21 -35 49 -43 61 -30 45 -50 64 -28 27z"/>
<path d="M2259 6478 c-17 -60 -18 -68 -9 -68 7 0 13 22 27 93 6 34 -6 16 -18
-25z"/>
<path d="M1617 6490 c-3 -11 -1 -20 4 -20 5 0 9 9 9 20 0 11 -2 20 -4 20 -2 0
-6 -9 -9 -20z"/>
<path d="M3250 6411 c-41 -41 -86 -75 -107 -82 -31 -10 -87 -58 -78 -67 6 -6
76 28 112 55 21 15 51 42 68 60 28 29 36 39 74 86 30 38 -2 13 -69 -52z"/>
<path d="M3339 6453 c-29 -35 -41 -53 -36 -53 2 0 17 16 31 35 28 36 31 49 5
18z"/>
<path d="M3280 6380 c0 -13 -128 -138 -162 -158 -16 -9 -27 -21 -25 -27 2 -5
-6 -18 -17 -28 -19 -17 -18 -17 9 1 17 10 64 41 105 67 41 27 77 51 80 55 3 4
13 9 23 13 9 3 17 12 17 19 0 8 -3 9 -8 3 -4 -5 -27 -20 -51 -33 -49 -25 -49
-24 17 57 19 23 29 41 23 41 -6 0 -11 -4 -11 -10z"/>
<path d="M2221 6364 c0 -11 3 -14 6 -6 3 7 2 16 -1 19 -3 4 -6 -2 -5 -13z"/>
<path d="M2370 6368 c0 -3 -7 -22 -15 -42 -8 -20 -13 -36 -10 -36 8 0 36 73
30 78 -3 3 -5 3 -5 0z"/>
<path d="M5655 6333 c6 -4 23 -25 38 -45 26 -35 117 -107 117 -92 0 8 -140
138 -154 142 -7 2 -7 1 -1 -5z"/>
<path d="M2000 6153 c0 -31 2 -54 4 -52 8 8 12 109 4 109 -4 0 -8 -25 -8 -57z"/>
<path d="M2414 6138 c-10 -29 -19 -57 -20 -63 -1 -5 -6 -28 -12 -50 -26 -96
-39 -235 -22 -235 6 0 10 17 11 38 3 92 11 141 49 279 24 88 20 109 -6 31z"/>
<path d="M2183 6165 c0 -8 4 -12 9 -9 5 3 6 10 3 15 -9 13 -12 11 -12 -6z"/>
<path d="M4628 6107 c-21 -10 -38 -23 -38 -27 0 -5 12 -2 28 6 15 7 32 14 39
14 6 0 14 4 18 9 10 18 -10 17 -47 -2z"/>
<path d="M3155 6102 c-5 -4 -23 -22 -39 -39 -25 -28 -26 -31 -8 -26 25 6 65
48 61 62 -2 6 -8 7 -14 3z"/>
<path d="M4687 6093 c-14 -13 -6 -19 21 -17 15 1 27 3 27 4 0 1 18 4 40 6 62
8 54 14 -17 14 -35 0 -68 -3 -71 -7z"/>
<path d="M1995 6080 c3 -5 8 -10 11 -10 2 0 4 5 4 10 0 6 -5 10 -11 10 -5 0
-7 -4 -4 -10z"/>
<path d="M7381 6054 c0 -11 3 -14 6 -6 3 7 2 16 -1 19 -3 4 -6 -2 -5 -13z"/>
<path d="M1971 6050 c0 -8 4 -22 9 -30 12 -18 12 -2 0 25 -6 13 -9 15 -9 5z"/>
<path d="M4745 6050 c-6 -10 9 -26 25 -24 8 0 36 2 63 2 26 1 47 6 47 10 0 5
-15 7 -32 5 -25 -3 -29 -2 -18 6 12 8 11 10 -7 8 -12 0 -19 -6 -15 -12 3 -6 0
-6 -9 1 -15 12 -47 15 -54 4z"/>
<path d="M4029 6036 c-2 -2 -24 -7 -49 -11 -25 -4 -46 -8 -48 -9 -1 -2 30 -16
68 -31 39 -16 73 -32 76 -37 9 -14 -69 -8 -111 8 -78 30 -134 10 -69 -25 22
-11 33 -20 27 -21 -7 0 -27 9 -45 20 -53 32 -56 23 -4 -11 l47 -32 74 13 c40
7 110 10 154 8 45 -3 84 -1 87 4 6 10 -14 79 -28 93 -6 6 -6 3 -2 -9 6 -16 4
-18 -12 -12 -10 5 -44 16 -74 26 -30 10 -62 21 -71 24 -8 4 -17 5 -20 2z"/>
<path d="M7389 5958 c10 -92 3 -244 -14 -305 -3 -10 2 -2 12 17 25 51 28 340
4 340 -4 0 -5 -24 -2 -52z"/>
<path d="M3532 5975 c2 -24 45 -72 55 -61 3 2 -9 23 -26 47 -29 40 -31 41 -29
14z"/>
<path d="M3479 5934 c-15 -18 1 -33 75 -75 l40 -22 -24 34 c-34 47 -62 79 -71
79 -3 0 -13 -7 -20 -16z"/>
<path d="M4390 5922 c0 -34 32 -59 85 -66 25 -4 47 -12 51 -18 4 -7 -2 -8 -17
-2 -40 12 -151 12 -204 -1 -56 -15 -57 -15 -145 15 -50 17 -89 22 -175 22
-101 1 -116 -2 -185 -30 -48 -21 -78 -28 -84 -22 -14 14 -56 12 -61 -2 -4 -11
-11 -46 -14 -69 -1 -3 -20 -4 -44 -4 -39 1 -43 -1 -42 -23 0 -14 6 -27 13 -30
6 -2 12 -11 12 -19 0 -13 -10 -14 -66 -9 -36 3 -82 9 -102 12 -53 8 -39 1 62
-35 101 -35 118 -46 64 -37 -23 3 -38 2 -38 -4 0 -10 14 -14 39 -11 7 2 10 -2
6 -8 -3 -7 0 -8 9 -5 9 3 16 2 16 -3 0 -11 30 -11 48 1 7 4 14 1 18 -8 7 -18
-4 -38 -17 -31 -5 4 -9 -1 -9 -9 0 -8 -9 -20 -20 -26 -29 -16 -24 -31 8 -26
l27 5 -25 -19 c-22 -18 -23 -20 -5 -20 15 0 16 -3 7 -12 -17 -17 -15 -29 4
-26 9 2 21 -5 27 -14 9 -13 7 -22 -8 -39 -11 -12 -14 -19 -7 -15 21 13 13 -11
-10 -28 -23 -16 -23 -16 4 -6 30 10 47 -3 29 -23 -5 -7 -9 -26 -7 -42 2 -17 4
-36 5 -44 1 -10 4 -11 15 -2 14 12 49 4 41 -9 -3 -4 4 -10 15 -13 11 -3 29
-24 40 -49 29 -63 27 -69 -22 -67 -47 3 -73 -8 -102 -40 -19 -21 -19 -21 5
-21 24 -1 24 -1 -6 -25 -16 -14 -24 -25 -16 -25 11 0 11 -3 1 -15 -11 -13 -8
-15 19 -15 30 0 41 -13 21 -25 -6 -4 -8 -10 -5 -15 3 -4 -2 -13 -11 -21 -8 -7
-20 -22 -26 -33 -10 -20 -10 -20 7 -6 17 14 18 14 5 -10 -10 -21 -10 -23 1
-12 29 27 28 9 -1 -34 -18 -25 -30 -48 -27 -50 3 -3 21 9 41 27 l36 31 -10
-26 c-5 -15 -15 -36 -20 -47 -10 -18 -1 -27 14 -12 3 4 16 8 27 10 16 2 20 -1
15 -12 -3 -8 -1 -15 3 -15 5 0 11 7 15 15 6 16 26 16 38 0 4 -6 8 -2 8 8 0 10
4 16 8 13 4 -2 26 3 47 13 22 10 73 25 114 34 42 10 80 25 87 35 11 14 15 14
22 4 8 -11 17 -10 53 7 23 12 49 21 56 21 12 0 17 13 14 33 -1 5 14 -3 32 -17
19 -14 36 -23 39 -20 4 3 9 -4 13 -15 4 -14 15 -21 31 -21 14 0 36 -12 49 -26
14 -15 25 -22 25 -15 0 19 18 12 25 -10 5 -16 9 -18 15 -9 6 10 11 8 21 -9 16
-24 31 -29 23 -6 -12 29 6 15 21 -17 8 -18 13 -24 10 -13 -4 18 -4 18 8 4 6
-9 22 -19 35 -23 12 -4 22 -12 22 -18 0 -5 7 -8 15 -4 9 3 20 -5 29 -22 9 -15
15 -21 16 -14 0 7 -5 22 -10 33 -6 10 -8 19 -6 19 3 0 14 -17 25 -37 11 -21
20 -31 21 -23 0 12 3 11 11 -3 22 -37 -6 -34 -112 13 -114 51 -188 93 -297
168 l-62 43 -25 -26 c-14 -14 -27 -25 -28 -25 -23 0 -366 -129 -402 -151 -27
-17 -60 -32 -72 -33 -13 -2 -26 -6 -30 -9 -3 -4 -18 -7 -33 -7 -14 0 -32 -6
-38 -12 -10 -10 -15 -10 -22 2 -8 12 -10 10 -10 -10 0 -18 -3 -21 -9 -11 -5 8
-16 11 -25 8 -9 -4 -16 -1 -16 6 0 9 -3 8 -9 -1 -6 -11 -11 -10 -25 3 -9 9
-16 12 -16 6 0 -19 -30 -12 -31 7 0 14 -2 14 -9 -3 -8 -19 -9 -19 -9 -1 -1 16
-3 17 -18 5 -9 -8 -14 -9 -10 -2 8 13 -1 43 -14 43 -5 0 -9 -6 -9 -13 0 -7
-11 -28 -24 -47 -38 -57 -53 -112 -63 -230 -3 -41 -7 -77 -9 -79 -10 -11 -15
13 -15 70 0 82 29 176 81 262 43 71 47 102 8 51 -13 -15 -31 -35 -41 -44 -19
-16 -46 -70 -67 -133 -6 -21 -14 -37 -15 -35 -5 5 40 182 50 199 6 9 2 9 -11
-2 -10 -9 -29 -19 -42 -22 l-23 -5 23 36 c30 50 76 111 110 145 17 16 22 27
14 27 -18 0 -145 -130 -192 -195 -20 -28 -52 -79 -71 -115 -45 -81 -74 -123
-80 -116 -10 9 82 170 158 277 79 110 79 113 20 91 -10 -4 -13 -1 -9 10 4 8 3
20 -1 27 -16 25 -70 -51 -160 -225 -62 -118 -122 -186 -178 -200 -34 -9 -17
-25 22 -21 18 2 39 0 47 -4 14 -9 11 -13 -139 -170 -77 -81 -144 -177 -143
-206 0 -4 31 24 68 62 61 64 133 127 186 165 25 17 66 57 66 64 0 10 150 156
160 156 14 0 13 -13 -2 -28 -9 -9 -9 -12 0 -12 8 0 10 -12 7 -37 -16 -118 -15
-116 -82 -151 -24 -12 -61 -31 -84 -43 -67 -35 -63 -26 50 96 40 43 27 40 -20
-5 -14 -13 -46 -40 -119 -98 -11 -10 -58 -46 -105 -82 -46 -35 -82 -67 -79
-69 2 -3 17 5 32 16 27 20 147 67 195 77 24 5 54 13 90 22 89 23 89 23 -45
-69 -53 -37 -100 -72 -103 -77 -7 -12 106 29 174 63 25 12 74 50 108 83 35 34
63 55 63 47 0 -32 -114 -129 -202 -171 -47 -23 -89 -42 -93 -42 -14 0 -95 -55
-99 -67 -5 -13 20 -7 42 10 20 16 14 1 -28 -68 -22 -36 -36 -65 -32 -65 4 0
15 12 24 28 41 69 136 137 208 149 37 5 35 -2 -27 -108 -68 -115 -174 -218
-297 -289 -49 -28 -56 -34 -41 -42 17 -10 106 -5 138 8 30 11 18 -3 -40 -47
-32 -23 -60 -46 -63 -49 -3 -4 -36 -30 -75 -59 -38 -30 -71 -57 -73 -62 -4
-11 25 -5 74 16 42 17 132 27 139 15 3 -4 -26 -39 -63 -76 -38 -38 -87 -94
-110 -125 -49 -65 -132 -208 -132 -226 0 -23 15 -13 38 26 28 44 87 106 167
176 32 28 67 57 77 67 10 9 38 31 60 50 106 85 129 106 213 191 55 56 112 103
145 121 l55 29 -60 -65 c-33 -35 -82 -92 -110 -125 -27 -33 -77 -80 -110 -104
-96 -71 -280 -219 -283 -229 -5 -13 47 -2 93 20 113 55 238 155 319 258 32 40
60 71 63 68 2 -2 -5 -25 -17 -51 -20 -43 -22 -65 -22 -241 l0 -194 -29 -43
c-15 -23 -40 -55 -55 -72 -95 -108 -129 -164 -162 -267 -27 -84 -28 -96 -2
-38 43 93 105 210 112 210 5 0 8 5 8 10 0 10 33 49 108 128 17 18 32 29 32 24
0 -6 -10 -57 -21 -114 -23 -113 -34 -303 -20 -340 9 -21 10 -20 11 12 5 150
13 225 31 285 11 39 31 108 44 155 13 47 33 107 45 135 25 58 28 84 35 275 3
80 7 170 10 200 6 62 47 155 75 170 18 10 18 9 4 -25 -23 -57 -42 -161 -38
-216 4 -61 14 -79 14 -26 0 19 6 38 13 40 9 4 9 6 0 6 -9 1 -8 8 3 29 7 15 14
34 14 42 0 23 55 133 73 149 19 15 21 12 8 -22 -19 -50 -35 -172 -34 -267 0
-36 1 -134 2 -219 0 -85 3 -152 5 -150 2 2 6 35 10 73 4 39 8 72 10 74 2 2 14
-31 26 -72 35 -116 45 -98 24 39 -10 62 -10 237 -1 287 10 55 36 128 64 177
29 52 25 66 -6 19 -11 -18 -21 -27 -21 -20 0 22 93 173 104 169 6 -2 33 18 59
45 27 28 50 48 52 46 2 -1 -31 -57 -73 -123 -87 -136 -131 -214 -138 -247 -17
-69 -21 -98 -14 -98 4 0 11 15 14 33 10 50 136 298 169 332 7 6 23 26 36 43
13 18 28 32 33 32 10 0 -8 -33 -57 -107 -19 -29 -31 -53 -27 -53 4 0 16 15 27
33 10 17 27 41 36 52 10 11 28 31 39 45 26 31 25 28 -34 -93 -26 -54 -49 -104
-50 -110 -1 -7 -4 -16 -8 -22 -3 -5 -9 -23 -12 -40 -3 -16 -9 -41 -13 -55 -14
-55 -8 -254 11 -325 25 -95 104 -256 165 -335 28 -36 50 -69 51 -75 0 -5 -26
18 -59 51 -62 66 -141 167 -141 183 0 5 -4 11 -8 13 -12 5 -81 150 -98 207
-34 117 -20 243 43 371 46 92 49 100 28 75 -20 -24 -63 -104 -88 -165 -22 -52
-31 -182 -16 -232 6 -18 12 -40 14 -48 16 -68 92 -220 140 -279 98 -120 174
-193 192 -186 7 2 10 -1 7 -8 -4 -11 54 -58 136 -110 41 -26 33 -10 -28 55
-25 26 -52 58 -60 70 -9 13 -22 29 -29 36 -22 22 -73 100 -73 110 0 6 -4 12
-8 14 -13 5 -50 99 -56 143 -6 40 -6 40 13 -10 38 -103 105 -225 124 -225 4 0
1 10 -7 23 -31 47 -68 185 -83 302 -3 28 -10 57 -15 65 -6 10 -8 4 -4 -20 4
-24 3 -30 -4 -20 -18 28 -33 227 -20 264 3 10 7 -15 9 -55 3 -97 7 -138 14
-145 3 -3 5 23 5 59 0 79 20 202 46 282 2 6 4 13 5 18 2 13 52 109 56 105 1
-1 -6 -36 -16 -77 -49 -191 -43 -369 17 -562 27 -88 113 -279 126 -279 4 0 -9
31 -28 70 -18 38 -34 72 -34 75 0 3 -9 24 -19 48 -27 59 -60 170 -68 231 -8
60 -7 256 1 306 10 63 35 149 60 208 29 66 32 62 12 -17 -33 -126 -37 -241
-12 -336 8 -33 22 -105 31 -160 20 -126 51 -245 81 -310 28 -59 26 -44 -14 90
-30 100 -34 117 -53 210 -13 68 -18 201 -9 250 5 28 8 6 8 -77 2 -127 5 -152
32 -213 10 -22 21 -57 25 -78 4 -20 11 -39 15 -42 5 -3 4 11 -2 31 -10 37 -3
62 8 28 11 -35 43 -109 44 -101 0 12 -60 198 -76 234 -20 44 -17 59 5 32 18
-22 19 -22 16 -4 -2 11 -4 20 -5 20 -1 0 -3 9 -5 20 -11 66 -17 94 -26 125
-17 65 -8 65 15 0 38 -103 62 -155 68 -144 4 5 -3 27 -13 49 -11 22 -21 55
-23 73 -2 18 -6 35 -10 39 -3 3 -6 21 -6 38 0 18 -6 38 -14 44 -26 22 -6 181
35 279 22 52 28 53 22 6 -4 -28 -2 -35 8 -29 9 6 10 3 5 -11 -13 -30 -19 -216
-8 -254 8 -29 9 -23 6 34 -2 38 1 90 7 115 6 25 12 51 13 58 1 7 5 16 9 20 5
4 6 -25 3 -65 -2 -40 0 -75 5 -78 5 -3 9 19 10 48 1 39 3 46 8 28 6 -22 8 -20
16 20 4 25 9 52 11 60 2 8 5 25 6 38 1 12 5 22 9 22 12 0 18 -44 12 -100 -12
-110 -4 -262 17 -312 8 -21 9 -21 10 -3 1 24 13 -2 55 -110 22 -60 93 -222
102 -234 9 -13 13 10 4 26 -25 44 -114 258 -134 323 -2 8 -6 18 -7 22 -13 38
-26 118 -19 118 5 0 9 -11 9 -25 0 -13 11 -58 24 -99 25 -76 57 -153 146 -350
11 -25 20 -50 20 -55 0 -6 5 -11 11 -11 5 0 8 3 6 8 -14 22 -142 337 -160 392
-24 76 -24 78 -36 150 -5 32 -9 43 -10 26 0 -16 -4 -26 -8 -22 -10 10 -13 67
-3 61 5 -3 12 -1 15 5 4 6 1 9 -7 8 -13 -3 -20 37 -10 56 2 4 6 27 8 50 2 22
6 48 7 56 2 8 7 32 12 53 4 20 12 40 18 44 6 4 7 -4 2 -23 -22 -82 -32 -145
-24 -150 5 -3 7 -10 4 -15 -4 -5 -4 -9 -1 -9 3 0 15 21 27 48 l23 47 9 -77 c6
-43 13 -78 17 -78 4 0 6 42 5 93 -3 89 1 86 18 -18 3 -16 8 -49 12 -73 4 -23
11 -45 16 -48 5 -3 6 8 4 23 -3 15 -9 49 -14 74 -11 66 -12 259 -1 259 6 0 10
-30 11 -67 1 -71 4 -101 12 -110 3 -2 4 45 4 106 -1 60 1 107 5 103 6 -6 14
-65 17 -124 2 -37 21 -16 22 25 1 39 2 40 9 12 l8 -30 1 31 c0 16 -5 36 -11
43 -11 11 -9 11 9 2 31 -16 36 -27 22 -52 -8 -15 -8 -19 0 -15 12 8 15 -7 4
-18 -14 -14 -9 -94 5 -89 7 3 12 -3 12 -13 0 -36 14 -2 18 44 5 59 20 89 18
36 -1 -22 9 -79 21 -129 13 -49 24 -107 24 -127 1 -25 5 -35 14 -32 9 4 15
-13 21 -58 4 -35 7 -67 6 -71 -2 -5 2 -6 7 -2 8 4 52 -62 56 -85 0 -3 8 -18
17 -35 8 -16 26 -59 38 -95 12 -36 26 -69 30 -73 8 -9 -15 87 -25 103 -3 6 1
10 9 10 17 0 107 -71 172 -135 23 -22 74 -71 114 -110 40 -38 82 -88 92 -110
l19 -40 -5 34 c-3 19 -14 47 -25 62 -12 16 -21 31 -21 35 0 3 -30 67 -66 142
-135 277 -140 291 -159 387 -19 103 -9 201 37 342 22 71 42 94 35 42 -3 -19
-6 -34 -7 -34 -2 0 -14 -73 -28 -175 -11 -82 -4 -168 19 -228 13 -35 21 -22
10 16 -13 42 -5 41 13 -3 8 -19 20 -35 26 -35 6 0 8 6 4 13 -4 8 -4 8 2 2 6
-5 19 -37 29 -70 24 -75 160 -346 178 -353 4 -2 7 -8 7 -13 0 -8 79 -121 127
-183 12 -15 28 -26 35 -24 8 3 6 10 -8 24 -50 50 -216 321 -268 437 -62 138
-80 211 -80 332 0 102 2 116 32 185 18 41 41 89 53 105 l21 30 -6 -33 c-4 -22
-2 -31 5 -26 7 4 9 -10 4 -47 -8 -67 -9 -158 -1 -224 6 -52 7 -58 25 -138 15
-66 72 -207 143 -357 33 -69 69 -145 80 -170 11 -25 28 -54 38 -65 10 -11 28
-44 40 -73 13 -29 25 -51 27 -48 2 2 -7 29 -21 60 -14 31 -26 59 -26 61 0 2
-35 75 -78 162 -136 275 -191 432 -207 588 l-6 60 21 -40 c33 -64 38 -60 14
11 -24 72 -30 205 -14 281 5 21 12 53 15 72 3 19 8 37 10 41 2 3 6 17 9 31 2
13 9 44 14 67 l10 44 -36 -7 c-33 -6 -35 -5 -21 11 10 13 5 12 -15 -4 -42 -33
-134 -58 -241 -67 -177 -15 -625 -25 -625 -14 0 13 -34 20 -115 25 -106 7
-180 33 -296 105 -53 32 -100 59 -105 59 -5 0 -23 13 -41 28 -17 15 -41 35
-52 44 -12 10 -21 27 -21 38 0 24 -3 24 -41 4 -42 -21 -47 -11 -15 27 15 17
25 33 23 35 -2 2 -35 6 -75 8 -39 2 -86 11 -103 20 -36 18 -45 13 -53 -24 -6
-37 -17 -60 -27 -60 -11 0 -12 24 -2 34 4 3 8 16 10 27 2 11 10 35 18 55 12
29 18 33 32 26 21 -11 89 -21 151 -21 28 -1 49 -8 62 -21 12 -12 22 -15 26 -9
3 6 12 2 21 -11 8 -12 21 -19 29 -16 8 3 14 0 14 -5 0 -7 9 -9 21 -6 12 3 18
3 15 0 -3 -3 2 -12 12 -19 19 -15 33 -18 30 -6 -4 14 13 82 28 114 16 35 14
25 -9 -60 -14 -49 -14 -54 4 -75 10 -12 18 -16 19 -9 0 19 20 14 20 -5 0 -9 3
-13 7 -10 3 4 12 2 19 -4 9 -8 16 -4 26 13 7 13 13 30 14 38 1 8 9 43 19 78
20 69 15 89 -10 45 -15 -26 -15 -26 -9 -3 10 37 45 84 54 71 4 -8 18 -1 41 19
45 40 56 38 30 -6 -24 -40 -20 -55 9 -36 28 17 31 15 24 -15 l-5 -28 25 28 26
28 0 -48 1 -48 20 25 c70 84 80 92 94 80 8 -7 15 -24 15 -37 0 -22 2 -24 15
-13 8 7 15 9 15 4 0 -4 6 1 14 11 13 18 13 18 24 -1 11 -19 11 -19 13 1 1 17
2 16 8 -4 7 -28 31 -41 31 -17 0 8 5 18 12 22 7 4 8 3 4 -4 -10 -16 7 -15 23
1 11 10 13 10 7 0 -5 -9 0 -13 13 -13 15 0 19 -6 17 -25 -2 -13 1 -22 5 -19 5
3 9 12 9 20 0 8 5 14 11 14 5 0 8 -4 4 -9 -3 -5 -1 -12 5 -16 5 -3 10 1 10 9
0 18 16 21 25 6 4 -6 11 -8 16 -4 5 3 7 10 4 15 -4 5 -2 9 4 9 5 0 13 -9 16
-20 3 -11 11 -20 16 -20 5 0 9 -6 9 -14 0 -8 5 -18 10 -21 7 -4 9 2 6 17 -9
39 -14 88 -10 88 2 0 12 -19 23 -42 17 -36 20 -39 21 -18 l0 25 20 -30 c16
-24 20 -26 20 -11 0 20 0 20 15 0 12 -15 14 -16 15 -3 0 22 28 20 36 -3 3 -10
10 -18 16 -18 5 0 8 7 4 15 -8 23 1 19 65 -30 l58 -44 16 22 c8 12 15 17 15
12 0 -6 5 -2 11 8 6 10 15 14 22 10 7 -4 19 -8 27 -10 20 -3 43 -36 65 -94 11
-27 25 -49 32 -49 7 0 13 4 13 9 0 5 8 7 19 4 24 -6 31 6 40 65 l7 47 34 -49
c62 -86 60 -85 50 -46 -19 69 -5 82 26 25 25 -46 40 -44 39 5 -1 44 8 51 25
20 6 -11 17 -20 25 -20 7 0 16 -8 18 -17 3 -10 5 -2 6 17 1 34 1 34 21 15 11
-11 22 -34 26 -52 5 -27 3 -33 -22 -46 -31 -16 -85 -71 -101 -103 -37 -70 -52
-366 -24 -454 19 -60 30 -71 24 -24 -4 33 3 23 46 -61 27 -56 66 -115 86 -135
l37 -35 -37 55 c-33 49 -104 189 -109 215 -1 6 -6 24 -10 40 -11 49 -15 127
-6 149 6 16 9 9 15 -32 6 -48 71 -199 81 -189 2 2 -9 30 -26 63 -31 61 -38 90
-19 79 7 -5 8 7 3 37 -13 81 -11 115 8 149 l18 34 -5 -35 c-4 -25 -3 -31 5
-20 5 8 10 29 11 45 0 25 2 27 8 10 5 -11 5 -31 1 -45 -14 -53 -1 -159 27
-217 25 -51 102 -143 119 -143 6 0 -33 48 -57 70 -11 11 -39 55 -39 63 0 4 5
5 12 1 7 -4 8 -3 4 5 -4 6 -11 9 -15 6 -10 -5 -31 39 -31 63 1 9 7 2 15 -15
22 -51 23 -39 4 35 -9 37 -15 83 -13 102 1 19 5 61 8 93 7 84 19 93 30 22 25
-172 209 -563 305 -649 31 -28 26 -14 -9 25 -60 67 -243 469 -255 560 -7 53 3
159 16 159 5 0 8 -3 8 -7 -1 -5 0 -10 1 -13 2 -6 6 -26 14 -65 9 -45 24 -92
25 -75 0 8 -4 35 -9 60 -7 40 -7 43 6 25 8 -10 14 -28 14 -40 0 -21 18 -63 63
-153 12 -24 41 -64 65 -90 l44 -47 -43 80 c-94 175 -129 262 -144 353 -4 28
-3 42 4 42 23 0 105 -138 126 -212 2 -5 3 -9 5 -10 1 -2 3 -10 5 -18 7 -33 58
-166 67 -175 5 -6 5 2 -1 18 -6 15 -13 38 -15 50 -2 12 -16 61 -30 110 -14 48
-26 89 -26 92 0 17 23 -2 63 -52 61 -77 135 -153 149 -153 7 0 5 5 -4 13 -16
13 -152 206 -209 297 -37 59 -41 76 -21 89 18 11 19 41 3 80 -16 36 -17 36
-93 -13 -54 -34 -56 -37 -52 -73 3 -21 6 -46 8 -55 2 -10 1 -20 -3 -22 -4 -3
-7 4 -8 13 -1 10 -7 37 -13 60 l-11 41 -31 -16 c-20 -11 -34 -12 -40 -6 -19
19 0 40 41 47 44 7 46 9 31 28 -5 7 -21 27 -36 45 -24 30 -74 46 -74 23 0 -27
-271 30 -312 66 -9 8 -23 33 -31 56 -47 130 -59 153 -47 85 5 -23 4 -53 -1
-66 -9 -23 -13 -24 -57 -19 -57 8 -74 11 -132 28 -25 7 -49 13 -54 13 -5 1
-10 17 -11 36 -3 34 -3 34 10 10 7 -14 17 -23 21 -22 4 2 11 -2 16 -10 7 -10
8 -9 4 5 -3 9 -1 17 4 17 6 0 10 -8 11 -17 0 -15 2 -15 9 2 8 19 9 19 9 -3 1
-13 5 -21 10 -18 5 3 0 36 -10 73 -24 85 -24 94 1 63 l21 -25 -7 30 c-4 17
-11 33 -17 36 -5 4 -4 16 4 30 7 13 13 26 12 29 0 3 -3 18 -7 33 l-7 28 28
-18 28 -17 -20 24 c-17 20 -17 22 -3 17 12 -4 15 -2 12 8 -3 7 -12 16 -20 19
-21 8 -17 29 4 22 9 -3 4 5 -13 19 -16 14 -33 25 -37 25 -5 0 -8 5 -8 11 0 7
10 5 25 -5 30 -20 35 -20 35 0 0 8 5 12 10 9 6 -3 10 -2 10 4 0 6 -13 17 -30
26 -32 17 -41 29 -13 18 11 -4 14 -3 9 5 -4 7 -14 12 -22 12 -8 0 -14 7 -14
16 0 10 8 15 23 14 36 -3 40 -1 27 15 -7 8 -20 15 -30 15 -10 0 -23 6 -29 13
-9 11 -2 12 37 6 57 -9 87 -11 80 -4 -3 3 -15 7 -26 10 -12 2 -30 9 -39 15
-15 9 -15 11 -2 6 12 -3 18 3 22 19 2 14 1 22 -4 20 -14 -9 -20 14 -10 34 8
14 8 21 -2 24 -6 3 -1 6 12 6 24 1 24 2 5 15 -18 13 -17 14 13 12 17 -1 30 2
27 6 -3 4 -20 9 -37 9 -18 1 -24 3 -14 6 9 2 15 9 12 14 -6 8 15 13 42 10 6
-1 14 3 18 9 3 5 0 7 -8 4 -8 -3 -17 2 -20 10 -4 10 3 18 21 24 l27 10 -27 7
c-22 5 -26 11 -19 24 5 9 11 43 15 76 5 44 16 76 43 120 20 33 44 66 52 73 14
12 11 13 -16 8 -49 -8 -48 8 4 54 l48 42 -57 -31 -56 -32 -16 23 c-9 12 -43
43 -76 69 -33 25 -57 49 -53 53 4 4 0 4 -10 0 -12 -4 -17 -1 -17 11 0 9 4 14
9 11 5 -3 12 1 15 10 5 13 2 15 -14 11 -11 -3 -23 -1 -26 5 -3 5 -15 8 -25 5
-11 -3 -16 -1 -13 5 6 9 -54 7 -170 -6 -27 -3 -28 -2 -23 30 5 28 3 32 -14 31
-13 -1 -19 -9 -19 -25z m175 -100 c-3 -3 -11 0 -18 7 -9 10 -8 11 6 5 10 -3
15 -9 12 -12z m-356 -10 c3 -5 21 -17 40 -27 28 -14 49 -16 115 -11 45 4 90 8
101 10 22 3 89 -10 120 -23 11 -5 40 -17 64 -26 24 -9 56 -25 70 -36 34 -27
71 -88 71 -117 0 -13 4 -21 8 -18 10 6 9 48 -2 86 -6 22 -5 21 10 -5 28 -48
23 -118 -14 -212 -25 -61 -37 -81 -48 -76 -8 3 -13 11 -11 17 2 6 0 23 -4 38
-5 18 -3 32 5 40 22 23 66 85 66 93 0 4 -9 -4 -21 -19 -28 -36 -53 -33 -105
13 -54 47 -97 58 -254 65 -113 5 -179 18 -252 50 -47 20 -91 20 -130 0 -81
-42 -156 52 -94 119 21 23 57 37 121 49 36 7 138 0 144 -10z m-493 -129 c-3
-10 -7 -32 -8 -50 -1 -17 -5 -30 -9 -27 -11 6 6 94 17 94 3 0 3 -8 0 -17z m-6
-113 c0 -12 7 -34 15 -50 9 -17 11 -31 5 -35 -5 -3 -13 2 -18 12 -15 28 -23
93 -12 93 6 0 10 -9 10 -20z m355 -162 c-4 -9 -24 -23 -45 -33 -48 -22 -135
-15 -159 12 -15 15 -15 16 1 4 31 -23 111 -17 159 11 47 28 53 29 44 6z m375
-26 c0 -56 38 -77 110 -61 33 7 45 10 114 24 56 11 67 9 59 -12 -5 -12 -2 -15
10 -10 21 8 21 8 3 -35 -18 -41 -87 -135 -153 -205 -48 -52 -49 -52 -153 -73
-58 -11 -113 -23 -122 -26 -10 -3 -18 -1 -18 5 0 17 90 58 140 64 66 8 96 22
138 65 72 76 140 168 142 193 0 4 -34 -8 -75 -26 -77 -33 -113 -36 -168 -14
-37 16 -61 62 -52 105 7 41 25 45 25 6z m-590 -127 c21 -42 47 -64 204 -179
53 -39 94 -71 92 -73 -4 -4 -79 27 -86 36 -3 3 -23 15 -45 26 -22 11 -42 23
-45 26 -3 4 -15 9 -27 13 -58 18 -154 171 -155 246 -1 53 4 53 23 0 11 -30 29
-73 39 -95z m860 136 c0 -5 -14 -8 -31 -6 -45 6 -49 15 -6 15 21 0 37 -4 37
-9z m-1594 -869 c-18 -16 -18 -16 -6 6 6 13 14 21 18 18 3 -4 -2 -14 -12 -24z
m-72 -117 c-9 -14 -18 -25 -21 -25 -5 0 5 18 20 38 17 22 18 13 1 -13z m103
-47 c-3 -8 -6 -5 -6 6 -1 11 2 17 5 13 3 -3 4 -12 1 -19z m405 -272 c-17 -30
-41 -97 -53 -148 -12 -51 -29 -101 -38 -112 -41 -48 -235 -154 -246 -135 -4 5
-11 7 -16 4 -5 -4 -9 -2 -9 2 0 12 40 45 56 47 7 1 17 6 21 11 5 4 1 4 -7 0
-13 -8 -13 -7 -1 8 15 18 26 23 16 7 -3 -5 -2 -10 3 -10 10 0 118 112 147 154
11 15 26 34 33 41 6 8 12 17 12 21 0 4 7 15 16 25 16 18 41 59 71 116 9 18 18
31 21 29 2 -3 -10 -29 -26 -60z m1891 14 c3 -11 1 -18 -4 -14 -5 3 -9 12 -9
20 0 20 7 17 13 -6z m-2231 -63 c-2 -18 2 -27 12 -27 15 0 17 -49 3 -95 -3
-11 -8 -38 -12 -59 -8 -58 -16 -88 -32 -121 -25 -51 -113 -123 -215 -177 -65
-34 -118 -71 -158 -111 -34 -32 -59 -61 -57 -64 3 -2 28 10 56 27 29 16 53 30
55 30 1 0 67 36 146 80 79 44 147 80 152 80 5 0 1 -14 -9 -30 -12 -21 -44 -43
-108 -75 -93 -45 -128 -67 -240 -148 -60 -45 -72 -49 -140 -56 -41 -4 -75 -4
-75 0 0 4 21 19 48 35 68 39 192 167 192 199 0 29 -6 28 -101 -27 -36 -21 -75
-38 -85 -38 -10 0 6 13 36 28 30 16 87 45 125 64 39 20 85 39 102 43 29 6 32
4 27 -12 -3 -10 -2 -14 3 -8 4 6 21 19 37 29 73 47 228 222 208 235 -11 8 -44
137 -46 176 -1 22 5 32 24 42 37 19 56 12 52 -20z m168 18 c-6 -8 -9 -18 -6
-23 3 -5 -4 -18 -15 -28 -11 -10 -18 -23 -16 -29 3 -6 -14 -24 -36 -40 -34
-24 -39 -25 -33 -9 5 10 11 30 14 44 7 35 32 70 48 70 8 0 14 4 14 9 0 5 8 12
18 14 9 3 19 5 21 6 2 0 -2 -6 -9 -14z m268 -140 c-4 -18 -1 -25 10 -25 13 0
13 -3 -1 -18 -10 -10 -17 -23 -18 -28 0 -5 -27 -34 -60 -64 -118 -107 -147
-138 -199 -214 -30 -41 -55 -74 -57 -73 -7 7 41 115 73 161 18 28 81 101 139
161 57 61 105 113 105 118 0 4 3 7 6 7 4 0 4 -11 2 -25z m-598 -46 c0 -55 -16
-49 -18 7 -2 28 2 43 8 39 5 -3 10 -24 10 -46z m77 -32 c-6 -23 -25 -65 -42
-93 -32 -50 -115 -135 -138 -143 -7 -2 9 16 36 40 26 24 47 52 47 62 0 9 4 17
9 17 18 0 41 31 34 45 -14 24 -3 125 13 125 8 0 14 -8 15 -17 0 -13 3 -11 10
7 16 39 28 5 16 -43z m-102 -29 c-8 -40 -15 -53 -36 -66 -12 -8 -19 -10 -17
-5 2 4 12 31 23 60 18 48 38 55 30 11z m1575 -40 c0 -9 5 -18 12 -20 9 -3 10
-18 2 -61 -6 -31 -7 -54 -2 -51 4 3 8 14 8 25 0 10 9 27 20 36 11 10 20 23 20
29 0 14 50 77 56 71 2 -2 -5 -30 -15 -63 -11 -32 -18 -60 -17 -62 5 -4 31 40
46 78 7 19 18 41 23 48 22 29 22 7 0 -75 -45 -171 -48 -310 -7 -424 7 -23 60
-130 116 -238 57 -108 105 -200 106 -206 7 -18 -259 259 -307 320 -43 56 -131
217 -131 240 0 5 15 -16 33 -47 34 -59 106 -148 120 -148 5 0 0 12 -10 28 -37
53 -91 168 -111 233 -25 87 -25 215 2 282 18 46 35 49 36 5z m-812 -17 c-7
-22 -16 -41 -20 -41 -5 0 -8 -7 -8 -15 0 -9 -14 -44 -32 -78 -45 -90 -77 -185
-72 -220 2 -17 -2 -37 -9 -46 -9 -12 -9 -13 1 -7 6 4 12 3 12 -2 0 -6 -6 -12
-13 -15 -7 -2 -14 -18 -16 -33 -1 -16 -4 -38 -6 -49 -1 -11 -3 -47 -4 -80 -4
-120 -17 -21 -16 119 1 139 3 154 26 225 23 70 155 298 167 287 1 -2 -3 -22
-10 -45z m1126 -53 c-15 -49 -25 -71 -30 -66 -3 3 3 24 12 47 17 43 30 57 18
19z m-530 -4 c3 -8 2 -12 -4 -9 -6 3 -10 10 -10 16 0 14 7 11 14 -7z m490
-133 c-6 -33 -11 -76 -9 -96 1 -19 -1 -38 -5 -40 -4 -2 -6 17 -5 43 2 67 16
152 24 152 4 0 2 -27 -5 -59z m-46 -169 c4 -35 -5 -25 -12 12 -3 16 -2 25 1
22 4 -4 9 -19 11 -34z m39 -14 c-3 -7 -5 -2 -5 12 0 14 2 19 5 13 2 -7 2 -19
0 -25z m-947 -9 c0 -6 -4 -7 -10 -4 -5 3 -10 11 -10 16 0 6 5 7 10 4 6 -3 10
-11 10 -16z m-1127 -86 c-8 -25 -50 -68 -108 -113 -47 -36 -155 -103 -155 -96
0 1 37 34 82 72 45 38 102 88 127 111 50 46 64 53 54 26z m273 -85 c-9 -133
-34 -279 -50 -295 -5 -5 0 125 9 213 5 55 34 164 43 164 2 0 1 -37 -2 -82z
m27 -43 c-3 -9 -8 -14 -10 -11 -3 3 -2 9 2 15 9 16 15 13 8 -4z m-13 -124
c-14 -86 -30 -128 -27 -69 1 21 5 38 8 38 4 0 6 6 5 13 -2 25 16 122 21 108 3
-7 0 -48 -7 -90z m603 -31 c3 -11 1 -18 -4 -14 -5 3 -9 12 -9 20 0 20 7 17 13
-6z"/>
<path d="M4579 3688 c0 -7 -3 -26 -5 -43 -3 -16 -2 -26 2 -22 9 8 16 77 9 77
-3 0 -5 -6 -6 -12z"/>
<path d="M4575 3529 c8 -28 17 -54 21 -58 4 -3 4 2 1 11 -3 9 -9 33 -13 52 -3
20 -10 38 -14 41 -5 3 -2 -18 5 -46z"/>
<path d="M7440 5921 c4 -16 5 -33 2 -37 -4 -4 -2 -4 4 -1 12 7 7 54 -7 62 -4
3 -4 -8 1 -24z"/>
<path d="M6849 5903 c-1 -16 -3 -53 -4 -83 -8 -139 -8 -287 -1 -279 3 3 8 70
11 149 4 80 8 166 9 193 1 26 -2 47 -6 47 -4 0 -9 -12 -9 -27z"/>
<path d="M3466 5878 c5 -7 9 -17 9 -21 0 -12 86 -60 93 -53 3 4 3 7 1 9 -57
42 -109 75 -103 65z"/>
<path d="M7011 5844 c0 -11 3 -14 6 -6 3 7 2 16 -1 19 -3 4 -6 -2 -5 -13z"/>
<path d="M3067 5814 c-15 -14 -41 -30 -58 -36 -16 -6 -28 -12 -25 -15 9 -9 95
36 105 56 15 27 12 26 -22 -5z"/>
<path d="M4710 5830 c0 -13 18 -22 24 -11 3 5 -1 11 -9 15 -8 3 -15 1 -15 -4z"/>
<path d="M7003 5799 c-2 -23 3 -25 10 -4 4 8 3 16 -1 19 -4 3 -9 -4 -9 -15z"/>
<path d="M3495 5772 c22 -10 42 -15 44 -10 5 14 -3 18 -45 24 l-39 5 40 -19z"/>
<path d="M7001 5754 c0 -11 3 -14 6 -6 3 7 2 16 -1 19 -3 4 -6 -2 -5 -13z"/>
<path d="M5578 5725 c2 -14 8 -27 12 -30 4 -2 5 7 2 20 -2 14 -8 27 -12 30 -4
2 -5 -7 -2 -20z"/>
<path d="M7283 5680 c1 -105 -13 -169 -63 -285 -45 -106 -68 -179 -59 -188 2
-2 -2 -11 -10 -20 -7 -10 -11 -17 -8 -17 3 0 -1 -24 -10 -52 -17 -59 -24 -140
-13 -157 4 -7 7 6 8 27 2 53 12 123 18 133 3 5 7 19 9 31 8 39 44 146 69 200
50 112 68 175 73 253 3 44 0 91 -5 105 -9 21 -10 16 -9 -30z"/>
<path d="M7429 5698 c0 -13 -2 -30 -4 -38 -2 -8 -6 -26 -9 -39 -10 -44 -38
-126 -49 -138 -5 -7 -7 -13 -4 -13 7 0 -61 -153 -166 -370 -38 -80 -51 -119
-55 -166 -2 -34 0 -64 5 -67 5 -3 10 -1 11 6 9 89 25 149 49 182 14 19 15 19
7 -5 -20 -67 -33 -124 -29 -128 6 -6 28 52 64 168 18 58 51 155 73 215 22 61
55 152 74 203 31 85 55 212 40 212 -3 0 -6 -10 -7 -22z"/>
<path d="M5616 5627 c9 -26 20 -49 24 -52 9 -6 -22 80 -33 91 -4 4 0 -14 9
-39z"/>
<path d="M7457 5655 c-4 -8 -3 -16 1 -19 4 -3 9 4 9 15 2 23 -3 25 -10 4z"/>
<path d="M7356 5613 c-6 -14 -5 -15 5 -6 7 7 10 15 7 18 -3 3 -9 -2 -12 -12z"/>
<path d="M7458 5595 c-3 -14 -1 -25 3 -25 5 0 9 11 9 25 0 14 -2 25 -4 25 -2
0 -6 -11 -8 -25z"/>
<path d="M7459 5558 c-4 -13 -4 -108 0 -108 4 0 7 25 8 55 1 30 0 55 -3 55 -2
0 -4 -1 -5 -2z"/>
<path d="M6255 5420 c-2 -3 5 -6 15 -7 11 -1 22 2 25 7 3 5 -4 8 -16 7 -11 -1
-22 -4 -24 -7z"/>
<path d="M6690 5405 c0 -14 2 -25 4 -25 2 0 6 11 8 25 3 14 1 25 -3 25 -5 0
-9 -11 -9 -25z"/>
<path d="M7452 5391 c0 -17 1 -31 3 -31 7 0 12 39 5 49 -4 7 -7 -1 -8 -18z"/>
<path d="M5706 5381 c-2 -3 12 -6 32 -7 43 -1 128 -11 157 -18 68 -18 100 -25
103 -22 4 4 -81 32 -126 41 -46 10 -161 14 -166 6z"/>
<path d="M6701 5354 c0 -11 3 -14 6 -6 3 7 2 16 -1 19 -3 4 -6 -2 -5 -13z"/>
<path d="M7442 5318 c-3 -37 2 -35 12 5 3 15 3 27 -2 27 -4 0 -9 -14 -10 -32z"/>
<path d="M3110 5324 c0 -14 33 -36 57 -39 l28 -3 -30 24 c-28 22 -55 31 -55
18z"/>
<path d="M5695 5310 c-3 -5 -1 -10 4 -10 6 0 11 5 11 10 0 6 -2 10 -4 10 -3 0
-8 -4 -11 -10z"/>
<path d="M5725 5310 c2 -3 28 -8 57 -9 29 -1 65 -3 81 -5 15 -2 27 1 27 5 0 5
-19 9 -42 10 -24 1 -62 2 -85 4 -24 1 -41 -1 -38 -5z"/>
<path d="M5907 5299 c7 -7 15 -10 18 -7 3 3 -2 9 -12 12 -14 6 -15 5 -6 -5z"/>
<path d="M3210 5290 c-9 -6 -10 -10 -3 -10 6 0 15 5 18 10 8 12 4 12 -15 0z"/>
<path d="M5690 5249 c0 -5 6 -9 13 -10 58 -3 100 -10 118 -19 11 -7 23 -9 25
-7 8 7 -76 36 -118 40 -21 3 -38 1 -38 -4z"/>
<path d="M3131 5224 c-19 -8 -32 -17 -28 -20 8 -8 87 18 81 27 -7 12 -13 11
-53 -7z"/>
<path d="M5635 5215 c-54 -17 -33 -18 30 -1 28 8 41 14 30 14 -11 0 -38 -5
-60 -13z"/>
<path d="M4766 5182 c-2 -4 4 -8 14 -8 10 0 16 4 14 8 -3 4 -9 8 -14 8 -5 0
-11 -4 -14 -8z"/>
<path d="M5690 5169 c0 -5 5 -7 10 -4 6 3 10 8 10 11 0 2 -4 4 -10 4 -5 0 -10
-5 -10 -11z"/>
<path d="M5635 5160 c-3 -5 -1 -10 4 -10 6 0 11 5 11 10 0 6 -2 10 -4 10 -3 0
-8 -4 -11 -10z"/>
<path d="M5586 5151 c-4 -5 3 -7 14 -4 23 6 26 13 6 13 -8 0 -17 -4 -20 -9z"/>
<path d="M3354 5126 c-18 -14 -18 -15 0 -22 11 -4 21 -2 27 7 19 31 5 38 -27
15z"/>
<path d="M3125 5100 c-25 -27 -14 -34 29 -20 39 12 46 24 20 34 -24 9 -29 8
-49 -14z"/>
<path d="M3532 5078 c-30 -30 -2 -33 38 -5 l24 17 -25 0 c-14 0 -30 -5 -37
-12z"/>
<path d="M5279 5071 c-22 -19 -23 -20 -4 -21 30 0 52 17 39 30 -8 8 -18 5 -35
-9z"/>
<path d="M6750 5087 c0 -2 13 -43 29 -92 33 -102 73 -195 83 -195 4 0 -6 28
-22 63 -16 35 -40 100 -55 145 -15 45 -28 82 -31 82 -2 0 -4 -1 -4 -3z"/>
<path d="M2965 5034 c-65 -34 -165 -113 -235 -183 -69 -70 -100 -107 -80 -96
15 8 222 178 249 203 8 8 38 32 68 54 46 35 60 48 50 48 -1 0 -25 -12 -52 -26z"/>
<path d="M3160 5015 c-6 -8 -8 -20 -4 -26 4 -7 3 -10 -2 -7 -5 3 -15 0 -22 -8
-10 -11 -6 -13 29 -10 51 4 65 17 50 45 -14 24 -34 27 -51 6z"/>
<path d="M2990 4963 c-27 -11 -154 -95 -183 -122 -71 -65 -115 -114 -146 -166
-36 -59 -36 -87 0 -41 12 15 23 25 25 23 2 -2 -17 -45 -42 -95 -25 -51 -47
-103 -50 -115 -17 -81 -20 -105 -14 -122 5 -16 8 -12 14 18 10 54 59 171 83
196 l20 22 -4 -26 c-3 -14 -3 -25 -1 -25 3 0 22 26 43 58 21 31 70 89 109 127
73 72 87 83 144 123 17 13 37 33 43 44 9 18 8 19 -10 13 -25 -8 -26 -2 -4 32
l17 26 -28 -7 -29 -7 17 25 c9 14 15 26 14 25 -2 0 -10 -3 -18 -6z"/>
<path d="M5930 4925 c-7 -9 -15 -46 -16 -83 -2 -37 -5 -76 -8 -87 -2 -11 -5
-28 -5 -38 -1 -10 -6 -15 -12 -12 -15 10 -61 -4 -54 -15 4 -6 39 -36 78 -67
86 -68 107 -90 107 -114 0 -10 6 -24 13 -31 7 -7 44 -65 82 -128 86 -143 139
-214 206 -273 61 -54 160 -108 241 -131 51 -15 88 -43 88 -68 0 -5 -17 -8 -37
-8 l-37 0 62 -32 c34 -18 62 -36 62 -40 0 -4 -6 -6 -12 -3 -7 2 -31 6 -53 9
-128 17 -193 53 -305 167 -49 49 -91 89 -95 89 -14 0 63 -95 113 -141 88 -79
237 -142 363 -155 35 -3 67 -8 71 -10 4 -2 9 0 12 4 3 5 -18 24 -47 42 l-52
33 84 32 c47 17 80 34 75 36 -5 3 -13 5 -19 4 -14 -1 -103 -16 -125 -20 -10
-2 -24 2 -30 10 -13 15 5 23 67 31 59 7 52 14 -15 14 -42 0 -65 5 -76 16 -26
25 -19 37 17 30 83 -16 100 -17 124 -11 42 10 25 18 -62 31 -81 11 -90 14
-114 32 -14 10 -28 29 -32 43 -3 13 -41 84 -83 158 -42 73 -76 135 -76 137 0
1 -22 39 -50 84 -27 45 -50 83 -50 85 0 10 -90 148 -131 200 -50 64 -124 137
-176 173 -36 26 -75 28 -93 7z m134 -92 c104 -105 99 -97 86 -139 -10 -28 -10
-38 -1 -44 8 -4 11 -23 8 -48 -2 -23 0 -39 5 -36 4 3 8 13 9 22 0 9 6 35 13
57 l12 40 35 -55 c55 -86 54 -83 33 -76 -11 3 -34 8 -52 11 -48 8 -31 -10 21
-23 24 -6 51 -20 61 -31 19 -21 9 -35 -14 -20 -8 5 -28 8 -45 8 -21 -1 -24 -3
-10 -6 11 -3 32 -14 47 -24 14 -11 30 -19 35 -19 4 0 17 -8 28 -16 19 -14 16
-15 -29 -9 -28 3 -46 2 -42 -2 4 -5 13 -8 19 -8 7 -1 11 -6 9 -13 -1 -7 5 -12
14 -12 8 0 13 4 10 8 -2 4 5 9 17 9 17 2 19 0 7 -7 -13 -9 -13 -10 0 -10 13 0
13 -1 0 -10 -13 -8 -12 -10 3 -10 9 0 17 -4 17 -10 0 -6 -3 -9 -7 -9 -37 6
-28 -6 17 -24 54 -21 55 -21 25 -28 -23 -5 -25 -7 -8 -8 39 -2 73 -24 80 -50
3 -14 8 -30 12 -36 3 -5 6 -15 7 -22 1 -6 21 -38 45 -72 23 -33 40 -63 37 -66
-3 -3 -51 10 -107 29 -55 18 -101 32 -101 30 0 -13 99 -57 159 -70 54 -12 76
-22 88 -41 21 -32 14 -36 -38 -18 -117 40 -181 77 -243 139 -98 100 -164 200
-209 314 -17 43 -149 246 -168 257 -14 9 2 -26 33 -72 33 -49 36 -63 7 -37
-22 20 -64 94 -61 107 1 4 -2 7 -7 7 -12 0 -1 47 15 60 7 6 10 18 7 26 -7 18
25 67 38 58 6 -3 8 -12 5 -20 -4 -11 -2 -11 14 -2 17 11 22 9 35 -10 18 -25
35 -29 35 -8 0 8 -15 26 -32 41 -36 30 -54 55 -40 55 5 0 35 -26 66 -57z m-13
-335 c11 -21 11 -22 -4 -9 -10 7 -17 17 -17 22 0 15 9 10 21 -13z"/>
<path d="M3322 4908 l-34 -21 29 -23 c45 -36 143 -21 143 22 0 12 -5 12 -30
-1 -33 -17 -54 -20 -45 -5 9 14 -8 12 -25 -2 -12 -11 -12 -10 -3 2 11 16 14
50 4 50 -3 0 -21 -10 -39 -22z"/>
<path d="M5105 4910 c-9 -15 16 -43 27 -32 10 10 0 42 -12 42 -5 0 -12 -5 -15
-10z"/>
<path d="M3559 4898 c-8 -8 -24 -21 -37 -30 -13 -9 -20 -18 -15 -21 11 -7 80
49 72 58 -4 3 -13 0 -20 -7z"/>
<path d="M5295 4900 c-8 -13 3 -30 20 -30 23 0 25 15 5 28 -12 7 -21 8 -25 2z"/>
<path d="M5442 4871 c-11 -7 -10 -10 3 -15 26 -10 35 -7 29 9 -7 17 -13 18
-32 6z"/>
<path d="M2995 4787 c-60 -41 -140 -117 -183 -172 -28 -37 -112 -199 -112
-217 0 -7 7 -1 16 12 10 14 22 30 28 35 7 6 25 27 40 48 28 36 46 47 46 27 0
-12 -110 -174 -121 -178 -15 -6 -10 -39 6 -39 8 0 12 4 9 8 -2 4 12 16 33 26
61 29 109 86 160 190 26 54 63 127 83 163 49 91 71 140 62 139 -4 0 -34 -19
-67 -42z m-62 -129 c-40 -98 -54 -128 -57 -128 -11 0 36 126 62 168 24 38 23
25 -5 -40z m-60 -153 c-3 -9 -8 -14 -10 -11 -3 3 -2 9 2 15 9 16 15 13 8 -4z"/>
<path d="M7020 4788 c1 -15 50 -77 50 -63 0 12 -38 75 -45 75 -3 0 -5 -6 -5
-12z"/>
<path d="M6866 4777 c3 -10 9 -15 12 -12 3 3 0 11 -7 18 -10 9 -11 8 -5 -6z"/>
<path d="M5244 4769 c-9 -16 10 -31 30 -23 13 5 14 9 5 20 -14 17 -25 18 -35
3z"/>
<path d="M5820 4661 c0 -6 -16 -27 -36 -45 l-37 -34 20 -28 c12 -16 30 -37 41
-47 20 -19 22 -18 56 8 20 15 36 34 36 42 0 8 28 -21 61 -64 82 -104 93 -116
77 -80 -7 15 -16 27 -20 27 -5 0 -8 7 -8 15 0 8 -4 15 -8 15 -4 0 -15 13 -24
28 -24 40 -158 179 -158 163z"/>
<path d="M5699 4498 c-19 -29 -56 -77 -83 -106 l-49 -52 13 -39 c13 -41 36
-53 84 -44 23 5 25 9 21 47 -3 22 0 48 5 56 7 12 13 11 34 -10 22 -20 26 -21
26 -6 0 9 -4 25 -9 35 -8 14 -4 21 20 35 18 11 37 15 47 10 9 -4 20 -8 25 -8
4 -1 30 -30 57 -66 27 -36 53 -69 57 -75 5 -5 35 -44 67 -85 69 -89 98 -109
35 -24 -24 33 -46 61 -49 64 -4 3 -42 52 -86 110 -43 57 -89 116 -101 130 -13
14 -23 28 -23 31 0 11 -37 49 -48 49 -5 0 -25 -24 -43 -52z"/>
<path d="M2392 4518 c-9 -12 -62 -118 -62 -125 0 -2 5 -3 10 -3 6 0 10 6 10
13 0 7 13 38 30 70 29 56 33 70 12 45z"/>
<path d="M5587 4452 c3 -15 -3 -18 -34 -20 -47 -3 -109 -20 -145 -38 -26 -14
-27 -15 -14 -51 11 -32 18 -38 40 -36 31 2 117 61 159 109 36 40 37 46 10 50
-16 3 -20 -1 -16 -14z"/>
<path d="M3861 4315 c-16 -36 -23 -116 -12 -133 5 -9 13 -6 28 10 23 25 34 95
16 106 -6 4 -13 16 -15 27 -4 17 -7 16 -17 -10z"/>
<path d="M5773 4313 c1 -10 19 -34 41 -53 l41 -35 -19 30 c-48 75 -66 92 -63
58z"/>
<path d="M4071 4240 c-11 -25 -20 -58 -20 -75 0 -24 2 -26 8 -11 7 19 8 19 13
-1 8 -30 48 -27 48 4 0 12 4 24 9 27 10 7 20 65 12 71 -3 1 -19 -14 -35 -36
-16 -21 -31 -37 -33 -35 -2 1 4 20 12 40 23 55 11 69 -14 16z"/>
<path d="M4168 4227 c-3 -19 -2 -25 4 -19 6 6 8 18 6 28 -3 14 -5 12 -10 -9z"/>
<path d="M5220 4240 c0 -5 5 -10 10 -10 6 0 10 5 10 10 0 6 -4 10 -10 10 -5 0
-10 -4 -10 -10z"/>
<path d="M5700 4233 c0 -27 19 -40 31 -22 12 20 11 31 -2 23 -6 -3 -15 0 -20
7 -6 11 -9 8 -9 -8z"/>
<path d="M4274 4182 l-2 -47 10 38 c6 22 7 42 2 47 -5 5 -10 -12 -10 -38z"/>
<path d="M4459 4177 c-13 -8 -15 -16 -7 -39 15 -44 39 -37 32 10 -7 44 -5 42
-25 29z"/>
<path d="M4602 4140 c1 -30 11 -39 23 -20 8 13 -3 50 -15 50 -5 0 -8 -13 -8
-30z"/>
<path d="M4155 4149 c-4 -6 -5 -12 -2 -15 2 -3 7 2 10 11 7 17 1 20 -8 4z"/>
<path d="M4364 4120 c0 -13 4 -16 10 -10 7 7 7 13 0 20 -6 6 -10 3 -10 -10z"/>
<path d="M6150 3805 c0 -11 39 -79 59 -105 12 -14 21 -19 21 -11 0 7 -13 30
-30 51 -16 21 -30 43 -30 48 0 6 -4 14 -10 17 -5 3 -10 3 -10 0z"/>
<path d="M6094 3774 c10 -81 77 -178 150 -217 36 -19 56 -22 156 -21 128 1
188 17 254 65 60 44 49 48 210 -84 21 -18 46 -36 55 -41 9 -5 25 -18 36 -29
11 -10 29 -23 39 -29 17 -9 17 -8 -2 18 -40 55 -247 261 -277 276 -37 19 -130
41 -146 36 -7 -2 4 -14 24 -27 20 -12 37 -25 37 -28 0 -3 -17 -3 -37 0 -46 8
-27 -8 30 -23 20 -6 37 -14 37 -19 0 -4 -24 -21 -52 -36 -45 -25 -64 -29 -128
-29 -201 1 -325 58 -371 171 -15 39 -18 42 -15 17z"/>
<path d="M5498 3775 c24 -45 132 -140 132 -116 0 6 -5 11 -10 11 -6 0 -38 28
-72 63 -33 34 -56 53 -50 42z"/>
<path d="M4366 3602 c-2 -4 -1 -14 4 -22 7 -11 9 -9 7 8 -1 24 -3 26 -11 14z"/>
<path d="M5301 3570 c16 -32 52 -84 62 -88 4 -2 7 -8 7 -14 0 -14 99 -117 131
-135 27 -16 55 -55 76 -108 l13 -30 -6 33 c-3 17 -4 32 -1 32 3 0 36 -12 73
-26 68 -26 189 -41 199 -25 2 5 -21 12 -53 16 -85 10 -106 15 -115 24 -5 5 8
8 29 6 43 -4 37 0 -61 33 -33 11 -59 25 -58 30 2 6 -23 25 -55 43 -73 42 -144
106 -232 209 l-21 25 12 -25z m159 -170 c3 -3 21 -17 40 -30 19 -12 40 -28 45
-34 15 -16 45 -34 87 -54 46 -21 51 -36 6 -17 -100 42 -198 115 -233 175 -7
12 34 -18 55 -40z"/>
<path d="M6116 3549 c11 -12 31 -27 46 -35 14 -7 70 -50 123 -94 103 -85 159
-122 215 -138 89 -26 87 -19 -5 27 -55 28 -118 66 -140 86 -22 19 -43 35 -47
35 -5 0 -8 6 -8 14 0 10 10 14 31 14 30 -1 56 20 41 33 -4 4 -29 10 -57 14
-72 9 -134 25 -179 46 l-39 18 19 -20z"/>
<path d="M4298 3525 c5 -17 15 -54 22 -84 7 -29 19 -65 27 -80 l15 -26 -6 25
c-4 14 -9 32 -11 40 -2 8 -12 42 -20 75 -9 33 -21 64 -26 70 -6 6 -6 -1 -1
-20z"/>
<path d="M4120 3520 c0 -5 5 -10 10 -10 6 0 10 5 10 10 0 6 -4 10 -10 10 -5 0
-10 -4 -10 -10z"/>
<path d="M4017 3383 c2 -38 7 -71 11 -75 4 -4 6 26 4 67 -2 41 -7 75 -11 75
-4 0 -6 -30 -4 -67z"/>
<path d="M4163 3405 c0 -8 4 -12 9 -9 5 3 6 10 3 15 -9 13 -12 11 -12 -6z"/>
<path d="M6117 3395 c33 -61 187 -185 284 -229 64 -29 129 -41 129 -24 0 6 -3
9 -6 5 -14 -14 -166 46 -202 81 -17 15 -13 15 68 -3 69 -15 138 -19 164 -9 33
13 13 19 -62 20 -120 1 -245 52 -346 144 -24 21 -35 27 -29 15z"/>
<path d="M6910 3400 c0 -5 5 -10 11 -10 6 0 45 -20 86 -45 42 -26 77 -44 80
-42 10 11 -66 69 -115 87 -61 23 -62 23 -62 10z"/>
<path d="M6920 3368 c0 -2 40 -44 88 -93 48 -50 109 -125 136 -168 26 -42 49
-77 51 -77 2 0 -6 23 -16 51 -24 61 -79 151 -123 198 -41 44 -136 106 -136 89z"/>
<path d="M4836 3267 c3 -10 9 -15 12 -12 3 3 0 11 -7 18 -10 9 -11 8 -5 -6z"/>
<path d="M3990 3255 c0 -5 5 -17 10 -25 5 -8 10 -10 10 -5 0 6 -5 17 -10 25
-5 8 -10 11 -10 5z"/>
<path d="M4463 3191 c3 -35 11 -68 18 -75 9 -8 10 -7 5 9 -4 11 -9 42 -12 70
-3 27 -8 52 -11 55 -3 3 -3 -24 0 -59z"/>
<path d="M4010 3205 c0 -8 72 -168 92 -204 11 -20 35 -62 54 -93 50 -82 87
-168 125 -288 18 -58 33 -107 34 -110 0 -3 3 -9 6 -15 4 -5 10 -26 14 -45 8
-42 35 -122 45 -133 9 -11 -9 72 -21 95 -5 10 -9 26 -9 36 0 33 -72 276 -103
347 -17 38 -58 113 -92 165 -71 108 -137 235 -128 244 4 3 1 6 -5 6 -7 0 -12
-2 -12 -5z"/>
<path d="M4530 3180 c0 -5 5 -10 11 -10 5 0 7 5 4 10 -3 6 -8 10 -11 10 -2 0
-4 -4 -4 -10z"/>
<path d="M5580 3190 c-1 -16 41 -144 64 -194 70 -152 146 -225 455 -436 52
-35 114 -84 139 -107 25 -24 47 -41 50 -39 11 12 -126 130 -267 231 -180 128
-236 177 -294 254 -40 53 -117 205 -117 233 -1 13 -29 68 -30 58z"/>
<path d="M6110 3137 c0 -28 119 -178 234 -293 105 -104 154 -161 197 -229 22
-35 61 -110 64 -125 1 -3 5 -13 8 -22 15 -40 20 -53 23 -63 1 -5 10 -43 21
-82 10 -40 21 -73 25 -73 4 0 6 6 3 13 -2 6 -11 50 -20 97 -9 46 -19 89 -23
95 -4 5 -7 12 -8 15 -7 36 -63 139 -108 200 -22 30 -94 109 -161 176 -66 66
-136 140 -155 163 -19 24 -40 48 -45 55 -6 6 -20 27 -33 46 -12 19 -22 31 -22
27z"/>
<path d="M2865 3084 c-11 -9 -96 -54 -190 -100 -166 -81 -215 -116 -270 -189
-50 -66 -94 -167 -100 -230 -14 -130 -14 -148 -6 -140 16 16 43 88 30 80 -26
-16 30 153 74 221 56 89 153 169 297 245 36 19 67 36 70 39 3 3 31 22 63 43
31 20 57 39 57 42 0 7 -3 6 -25 -11z"/>
<path d="M5310 3041 c0 -31 85 -138 204 -256 72 -72 160 -165 195 -208 35 -42
66 -77 69 -77 3 0 -2 8 -11 18 -10 10 -17 22 -17 26 0 9 -62 90 -72 94 -5 2
-8 10 -8 17 0 7 -64 78 -143 156 -79 79 -160 166 -180 193 -20 27 -37 44 -37
37z"/>
<path d="M2755 2937 c-124 -72 -283 -218 -341 -314 -18 -30 63 52 123 125 20
23 82 76 139 118 57 41 104 77 104 80 0 5 0 5 -25 -9z"/>
<path d="M6600 2936 c0 -2 21 -14 48 -26 26 -12 66 -35 90 -51 46 -31 62 -37
40 -16 -37 37 -178 111 -178 93z"/>
<path d="M6541 2914 c9 -10 23 -32 32 -49 25 -50 117 -136 117 -110 0 21 -44
85 -62 91 -24 7 -58 37 -58 51 0 5 -10 14 -22 22 -22 13 -22 13 -7 -5z"/>
<path d="M3191 2858 c-6 -143 -8 -169 -14 -174 -3 -3 -5 21 -4 55 2 57 -5 78
-15 49 -6 -17 -2 -133 6 -178 4 -19 9 -47 11 -62 10 -54 44 -149 69 -193 32
-54 43 -60 16 -7 -28 54 -50 145 -56 237 -8 100 -8 80 0 218 3 64 2 117 -2
117 -5 0 -10 -28 -11 -62z"/>
<path d="M4291 2893 c7 -12 15 -20 18 -17 3 2 -3 12 -13 22 -17 16 -18 16 -5
-5z"/>
<path d="M3265 2880 c3 -5 8 -10 11 -10 2 0 4 5 4 10 0 6 -5 10 -11 10 -5 0
-7 -4 -4 -10z"/>
<path d="M4342 2833 c19 -44 28 -50 16 -10 -6 21 -15 37 -19 37 -5 0 -3 -12 3
-27z"/>
<path d="M3160 2820 c0 -5 5 -10 11 -10 5 0 7 5 4 10 -3 6 -8 10 -11 10 -2 0
-4 -4 -4 -10z"/>
<path d="M2637 2773 c-52 -47 -92 -92 -85 -96 1 -1 37 30 78 70 84 82 89 98 7
26z"/>
<path d="M6842 2768 c50 -54 96 -119 143 -201 33 -59 44 -55 17 5 -28 63 -70
120 -136 188 -72 73 -91 80 -24 8z"/>
<path d="M2755 2779 c-112 -97 -216 -216 -269 -306 -18 -31 5 -8 43 41 45 60
50 66 165 184 44 45 78 83 75 86 -2 2 -8 0 -14 -5z"/>
<path d="M3982 2730 c13 -22 27 -40 31 -40 5 0 -2 18 -14 40 -13 22 -26 40
-31 40 -5 0 2 -18 14 -40z"/>
<path d="M3560 2681 c0 -6 16 -25 37 -43 20 -18 47 -43 61 -56 14 -12 50 -44
80 -70 30 -26 69 -60 87 -77 18 -16 49 -46 70 -65 l38 -35 -21 32 c-22 30
-167 168 -227 214 -16 13 -32 26 -35 29 -21 26 -90 80 -90 71z"/>
<path d="M7011 2451 c51 -106 69 -114 21 -10 -21 46 -43 84 -49 86 -6 2 6 -32
28 -76z"/>
</g>
</svg>
