<svg xmlns="http://www.w3.org/2000/svg" xmlns:xlink="http://www.w3.org/1999/xlink" version="1.1" x="0px" y="0px"
     viewBox="0 0 95 118.75" style="enable-background:new 0 0 95 95;" xml:space="preserve"><g><path d="M9.8,33.2c0.7-0.9,1.3-1.9,2.1-2.8c0.8-0.9,1.7-1.8,2.6-2.6c1.4-1.3,2.5-2.8,3.5-4.4c0-0.1,0.1-0.1,0.1-0.2c0,0,0,0,0,0   c0.4-0.5,0.8-0.9,1.1-1.4c0.6-0.8,1.2-1.6,1.9-2.3c0.3-0.4,0.8-0.6,1.2-0.9c-0.2,0.3-0.4,0.6-0.7,0.9c-0.4,0.4-0.8,0.7-1.2,1.1   c0,0,0.1,0.1,0.1,0.1c0.7-0.7,1.4-1.3,2.1-2c0,0,0.1,0,0.1,0c0,0.1,0,0.1,0,0.2c-1.2,1.2-2.5,2.4-3.7,3.7c-0.8,0.9-1.3,1.9-2.1,2.8   c-1.3,1.6-2.7,3.2-4.1,4.7c-1.6,1.7-3,3.6-3.6,5.9c-0.3,1.5-0.5,2.8-0.4,3.6c0.2-1.5,0.3-2.1,0.9-2.8c-0.1,0.5-0.3,1-0.4,1.5   c0.3-0.6,0.5-1.2,0.9-1.8c0.3-0.5,0.8-1,1.3-1.5c0,0,0.1,0.1,0.1,0.1c-2,2.2-3,6.6-1.9,8.2c-0.6-1.6-0.2-3.1,0.3-4.7   c-0.1,0.6-0.2,1.2-0.2,1.9c0,0.6,0.1,1.3,0.2,1.9c0.1,0.6,0.3,1.2,0.5,1.8c0.2,0.6,0.5,1.1,0.7,1.7c-1.3-3.5-0.8-5.7-0.5-6.8   c0,0.6-0.1,1.2-0.1,1.8c0,0.6,0,1.2,0,1.9c0,0,0.1,0,0.1,0c-0.1-2.7,0.6-5.2,2.1-7.5c-0.8,1.8-1.5,3.6-1.4,5.7   c0.1,2,0.2,3.9,1.3,5.6c0.1,0,0.1,0,0.2,0c-0.1-0.4-0.2-0.8-0.3-1.2l0,0c-0.5-2.2-0.5-4.3,0-6.4c0.1-0.6,0.3-1.2,0.5-1.8   c0,0,0.1,0,0.1,0c-0.1,0.3-0.1,0.6-0.2,0.9c-0.5,1.9-0.7,3.9-0.5,5.9c0.1,1,0.3,1.8,0.6,2.1c-0.1-1-0.2-2-0.4-3c0,0,0.1,0,0.1,0   c0.1,0.4,0.1,0.9,0.2,1.3c0,0,0.1,0,0.1,0c0-1,0-2.1,0-3.1c0.1,0,0.1,0,0.2,0c-0.2,1.9-0.3,3.8,0.6,5.7C14,46.8,14,46.7,14,46.6   c-0.6-1.6-0.5-3.3-0.3-4.9c0-0.4,0.2-0.8,0.4-1.1c-0.1,0.4-0.1,0.8-0.2,1.2c0,0.1-0.1,0.2-0.1,0.3c0.1,1.6,0.2,3.1,0.4,4.7   c0.1,1,0.8,2.5,1.3,2.9c-1.1-2.4-1.7-5-1.4-7.7c0.1-0.6,0.2-1.2,0.3-1.8c0.1-0.1,0.1-0.2,0.2-0.2c-0.4,2.4-0.4,4.8,0.4,7.2   c0-0.1,0-0.1,0.1-0.2c0.1,0.2,0.2,0.4,0.2,0.7c0.1,0.2,0.2,0.4,0.2,0.7c-0.4-1.7-0.8-3.5-0.7-5.3c0.1-1.8,0.2-3.5,1-5.2   C15.2,39.9,15,42,15,43.9c0.3-1.6,0.7-3.4,1-5.2l0,0c0,0.2,0,0.3,0,0.5c-0.2,1.1-0.5,2.2-0.6,3.3c-0.3,1.5-0.3,2.9,0,4.4   c0.1,0.6,0.2,1.1,0.3,1.6c-0.1-1.2-0.2-2.6-0.2-3.9c0-1.3,0.2-2.6,0.4-4c0,0.9-0.1,1.8-0.1,2.6c0,0.9,0,1.8,0,2.6   c0.1,0.9,0.2,1.8,0.4,2.6c0.2,0.8,0.5,1.6,0.8,2.5c0,0,0.1,0,0.1,0c0-0.1,0-0.1-0.1-0.2l0,0c0.1,0.4,0.2,0.8,0.4,1.2   c0-0.1,0.1-0.1,0-0.2c-0.3-1.9-0.7-3.7-0.3-5.6c0.1-0.3,0-0.6,0.1-0.9c0,0,0,0,0,0c0.1,1,0.1,2,0.2,3.1c0.1-0.6,0.1-1.2,0.1-1.9   c-0.1-2.1,0.7-4,1.4-6c-0.3,1.3-0.7,2.5-1,3.8c-0.2,1.1-0.2,2.1-0.3,3.2c0,0,0.1,0,0.1,0c0.2-1.1,0.3-2.2,0.5-3.3c0,0,0.1,0,0.1,0   c-0.1,1.1-0.3,2.2-0.4,3.3c0,0,0.1,0,0.1,0c0.1-0.5,0.1-1,0.2-1.5c0,0,0,0,0.1,0c0,1.1,0,2.2,0,3.4c0,0,0,0,0.1,0   c0.1-1.3,0.1-2.5,0.2-3.8c0,0,0,0,0.1,0c0,0.5,0,1.1,0,1.6c0,0,0.1,0,0.1,0c0.1-0.6,0.1-1.3,0.2-1.9c0,0,0,0,0,0c0,0.9,0,1.9,0,2.8   c0.1-0.3,0.1-0.5,0.1-0.8c0.1-1.6,0.3-3.3,0.3-4.9c0-0.6-0.2-1.2-0.3-1.8c0-0.3,0-0.7,0-1.1c-0.2,0.2-0.2,0.3-0.3,0.4   c0.2-0.5,0.4-1,0.1-1.6c-0.2,0.5-0.4,0.9-0.5,1.3c0,0-0.1,0-0.1,0c0.4-1.3,0.8-2.6,1.2-3.8c0,0,0,0-0.1,0c-0.2,0.6-0.5,1.1-0.7,1.7   c-0.1-0.9,0-1.7,0.1-2.5c0.1-0.8,0.2-1.6,0.4-2.4c0.2-0.8,0.4-1.5,0.6-2.3c0,0,0,0,0,0c-0.1,0.3-0.3,0.5-0.4,0.8   c0.4-1.2,0.8-2.3,1.2-3.5c0.1-0.3,0.3-0.5,0.4-0.8c1.6-2.6,3.7-4.6,6.5-5.9c0.7-0.3,1.5-0.5,2.3-0.4c-0.6,0.2-1.1,0.4-1.7,0.6   c0.1,0.1,0.2,0.1,0.3,0.2c-1.1,0.4-1.1,0.4-1.3,0.9c0.6-0.1,1.2-0.3,1.8-0.4c0,0,0,0.1,0,0.1c-0.6,0.4-1.3,0.9-1.9,1.3   c0,0,0,0,0.1,0.1c0.6-0.3,1.2-0.6,1.7-0.8c-1.8,1.1-2.4,1.6-2.6,2.2c0.4-0.3,0.7-0.7,1.1-1c0.1,0.1,0.1,0.1,0.2,0.2   c-0.2,0.1-0.3,0.2-0.5,0.4c0,0,0,0,0,0c0.4-0.3,0.8-0.6,1.2-0.9c-0.9,1-1.7,1.9-2.6,2.8c0,0,0.1,0.1,0.1,0.1   c1.6-1.4,3.4-2.3,5.5-2.7c-0.6,0.1-1.2,0.3-1.8,0.4c0.9-0.5,1.8-0.7,2.7-0.7c0.4,0,0.8,0.3,1.2,0.5c0,0,0,0.1-0.1,0.1   c-2.9-0.8-6.8,1.4-8.3,4c0.5-0.4,1-0.8,1.6-1.2c0,0,0,0.1,0.1,0.1c-0.6,0.7-1.3,1.4-1.9,2.1c0,0,0,0,0.1,0.1c0.5-0.4,1-0.8,1.5-1.2   c0,0,0,0,0.1,0.1c-0.3,0.3-0.7,0.7-1.1,1.1c0.2-0.1,0.3-0.1,0.6-0.2c-0.5,0.6-0.9,1.2-1.4,1.7c0.2-0.1,0.3-0.1,0.4-0.2   c-0.1,0.1-0.1,0.2-0.2,0.3c0.4-0.2,0.7-0.4,1-0.6c0,0,0.1,0.1,0.1,0.1c-0.2,0.2-0.5,0.5-0.7,0.7c0.1,0,0.2,0,0.3,0   c-0.1,0.1-0.2,0.2-0.3,0.3c0.2,0,0.4,0,0.6,0c0.1,0,0.2-0.1,0.3-0.1c0.4-0.2,0.7-0.4,1.1-0.7c0.1,0,0.3-0.1,0.3-0.2   c0.5-0.4,1-0.9,1.5-1.3c0.1-0.1,0.3-0.2,0.4-0.3c-0.3,0.1-0.6,0.3-0.9,0.5c-0.3,0.2-0.5,0.4-0.8,0.6c0-0.1,0-0.1,0.1-0.3   c-0.4,0.3-0.6,0.6-0.9,0.8c-0.2,0.1-0.4,0.2-0.5,0.3c0.1-0.1,0.1-0.3,0.3-0.4c0.6-0.4,1.1-0.8,1.7-1.2c0.7-0.5,1.4-1,2-1.5   c1.1-0.9,2.3-1.3,3.7-1c0.1,0,0.3,0.1,0.4,0.1c-0.5-0.7-1.2-0.8-2-0.6c-0.7,0.2-1.4,0.6-2.1,0.9c-0.4,0.2-0.9,0.4-1.3,0.5   c0-0.1-0.1-0.1-0.1-0.2c0.9-0.5,1.7-1,2.6-1.5c0.3-0.1,0.6-0.2,0.9-0.2c0.8-0.1,1.5,0.1,2.3,0.5c-0.7-1.3-1.2-2.5-2.6-3   c0.5-0.3,0.8-0.1,1.2,0.2c0,0,0.1-0.1,0.1-0.1c-0.5-0.4-1-0.8-1.5-1.2c0.2,0.1,0.5,0.2,0.7,0.3c0.1-0.1,0.1-0.2,0.2-0.2   c0,0,0.1,0,0.1,0c0.2,0.1,0.4,0.2,0.5,0.4c0.2,0.3,0.3,0.7,0.5,1.1c0.4,0.7,0.7,1.3,1.1,2c0.1,0,0.1-0.1,0.2-0.1   c-0.1-0.3-0.3-0.7-0.5-1c-0.3-0.5-0.6-0.9-0.8-1.5c-0.1-0.3-0.1-0.7-0.1-1.1c0.3,0,0.6,0,0.8,0c0-0.1-0.1-0.2-0.1-0.4   c0.3,0.3,0.6,0.4,0.9,0.7c-0.5-1.2-1.3-2.1-2.4-2.6c-2.1-0.9-3.9-0.1-5.6,1.1c0.4-0.2,0.8-0.4,1.2-0.6c0.4-0.2,1.2-0.3,1.5-0.2   c-1.1,0.4-2.3,0.9-3.6,1.4c0,0,0,0.1,0,0.1c0.8-0.3,1.7-0.6,2.5-0.9c-1.4,0.8-2.7,1.6-4.1,2.3c-1.6,0.8-2.9,1.9-3.9,3.4   c-0.6,0.9-1.3,1.8-2,2.8c1-2.5,2.7-4.2,4.4-6c-0.2,0.1-0.4,0.2-0.6,0.3c0,0,0-0.1-0.1-0.1c0.6-0.5,1.1-1,1.7-1.4c0,0,0,0,0,0   c-0.5,0.2-0.9,0.4-1.4,0.7c0-0.1-0.1-0.1-0.1-0.2c1.3-0.7,2.7-1.3,4.1-2c-2.5,0.2-4.8,0.6-6.6,2.4c0.3-0.3,0.5-0.6,0.9-0.8   c0.9-0.5,1.7-1.1,2.6-1.6c0.5-0.3,1-0.4,1.5-0.6l0,0c-0.1,0.1-0.2,0.1-0.3,0.2c0,0,0,0.1,0,0.1c0.9-0.1,1.8-0.2,2.7-0.3   c0.5-0.1,1.1-0.3,1.6-0.5c1.9-0.7,4.8,0.1,6,2.2c0.5,0.9,0.8,1.7,0.8,2.7c0,0.1,0,0.2,0,0.3c0,0,0,0,0,0.1c0-1,0-1.9,0-2.9   c0-1-0.4-1.9-0.8-2.7c0.1,0.1,0.2,0.2,0.3,0.3c0.8,1,1.1,2.1,0.9,3.5c-0.1,0.7-0.1,1.4-0.1,2.1c0.1-0.9,0.2-1.7,0.3-2.5   c0,0,0,0,0.1,0c0.1,0.3,0.2,0.6,0.3,1.1c0.1-0.7,0.1-1.2,0.2-1.7c0.2,1.2-0.2,2.3-0.5,3.5c0-0.2,0-0.3-0.1-0.5   c-0.1,0.4-0.2,0.8-0.3,1.2c0-0.1-0.1-0.1-0.1-0.2c0,0.1-0.1,0.2-0.1,0.3c0,0,0,0-0.1,0c0-0.3,0.1-0.6,0.1-0.9c0,0-0.1,0-0.1,0   c-0.2,1-0.4,1.9-0.5,2.9c0.1,0,0.1,0,0.2,0c0.1-0.1,0.1-0.2,0.2-0.4c0,0,0,0,0.1,0c-0.1,0.6-0.1,1.2-0.2,1.7c0,0,0.1,0,0.1,0   c0.1-0.4,0.3-0.8,0.4-1.2c0,0,0,0,0.1,0c-0.1,0.5-0.2,0.9-0.3,1.4c0,0,0,0,0.1,0c0.2-0.5,0.4-0.9,0.6-1.4c0,0,0.1,0,0.1,0   c0,0.1,0,0.2-0.1,0.3c-0.1,0.5-0.2,1-0.4,1.5c-0.1,0.2-0.4,0.4-0.1,0.7c-0.2,0.2-0.2,0.4-0.1,0.6c0,0.1,0,0.2,0,0.4   c0,0-0.2,0-0.3,0c0.1,0.1,0.2,0.2,0.4,0.4c-0.2,0-0.3-0.1-0.5-0.1c0.1,0.2,0.2,0.3,0.4,0.5c-0.1,0-0.2,0-0.3,0   c0.1,0.1,0.2,0.2,0.3,0.4c-0.2,0-0.3-0.1-0.4-0.1c0.1,0.1,0.1,0.2,0.2,0.4c-0.3-0.1-0.4-0.2-0.7-0.3c0.2,0.2,0.3,0.4,0.4,0.5   c0,0,0,0.1-0.1,0.1c-0.1-0.1-0.3-0.2-0.4-0.3c0,0,0,0-0.1,0c0.1,0.1,0.2,0.3,0.4,0.5c-0.7,0.9-1.4,1.8-2.1,2.7c0,0,0,0-0.1,0   c0.4-0.6,0.7-1.3,1.1-1.9c0,0-0.1,0-0.1-0.1c-0.5,0.8-1.1,1.6-1.6,2.4c0,0-0.1,0-0.1-0.1c0.4-0.8,0.9-1.6,1.3-2.5   c-0.4,0.1-0.6,0.1-0.9,0.2c0.1-0.1,0.2-0.2,0.3-0.4c0,0,0-0.1,0-0.1c-0.8,0.1-1.6,0.2-2.4,0.3c0.1-0.1,0.2-0.1,0.4-0.3   c-0.3,0-0.5,0.1-0.8,0.1c0.1-0.1,0.2-0.2,0.3-0.4c-0.5,0.1-0.9,0.2-1.3,0.3c0,0,0,0,0-0.1c0.3-0.1,0.5-0.2,0.9-0.4   c-0.5,0-0.8,0-1.3,0.1c0.3-0.1,0.4-0.1,0.6-0.2c0.2,0,0.3,0,0.5-0.2c-0.4,0-0.9,0.1-1.3,0.1c0,0,0-0.1,0-0.1   c0.3-0.1,0.6-0.1,0.8-0.2c-0.2-0.7-0.4-1.4-0.7-2.2c-0.7,0.8-1.7,0.9-2.5,1.4c-0.7,0.4-1.4,1-2,1.5c-0.1,0.1-0.1,0.3-0.1,0.6   c0,0,0,0-0.1,0.1c0.1,0.1,0.2,0.2,0.4,0.3c-0.2,0-0.4,0-0.6,0c0,0,0,0.1-0.1,0.1c0.2,0.1,0.3,0.3,0.6,0.4c-0.2,0-0.4,0-0.7,0   c0.2,0.2,0.3,0.3,0.5,0.4c-0.2,0-0.3,0-0.5,0c0.1,0.2,0.2,0.4,0.3,0.5c-0.1,0-0.2,0-0.4,0.1c0.2,0.1,0.3,0.2,0.5,0.3   c-0.2,0-0.3,0-0.4,0c0,0,0,0.1-0.1,0.1c0.1,0,0.2,0.1,0.2,0.2c-0.1,0-0.1,0.1-0.2,0.1c0.1,0.1,0.2,0.1,0.3,0.2   c-0.1,0-0.2,0-0.3,0.1c0.1,0.1,0.2,0.1,0.3,0.2c-0.1,0.1-0.2,0.1-0.3,0.2c0.2,0,0.3,0.1,0.4,0.1c-0.1,0.1-0.2,0.1-0.4,0.2   c0.2,0,0.4,0,0.6,0.1c-0.2,0.1-0.4,0.2-0.6,0.2c0,0,0,0.1,0,0.1c0.2,0,0.3,0,0.6,0.1c-0.3,0.1-0.5,0.1-0.7,0.2   c0.2,0.1,0.3,0.1,0.4,0.2c-0.2,0-0.3,0-0.5,0.1c0.2,0.1,0.4,0.2,0.6,0.4c-0.2,0-0.4,0-0.5,0c0,0,0,0.1-0.1,0.1   c0.2,0.1,0.4,0.2,0.6,0.4c-0.3,0-0.4,0-0.5,0c0,0,0,0.1,0,0.1c0.2,0.1,0.3,0.2,0.6,0.4c-0.2,0-0.4,0-0.5-0.1c0,0,0,0.1,0,0.1   c0.2,0.1,0.4,0.2,0.7,0.4c-0.2,0-0.3,0-0.5,0c0.1,0.1,0.1,0.2,0.2,0.3c-0.1,0-0.2,0-0.4,0c0.1,0.1,0.2,0.1,0.3,0.2   c-0.1,0-0.1,0-0.3,0.1c0.1,0.1,0.2,0.1,0.3,0.2c-0.2,0-0.3,0-0.4,0c0,0,0,0.1,0,0.1c0.2,0.1,0.4,0.2,0.7,0.3c-0.3,0-0.4,0-0.7,0   c0.3,0.2,0.4,0.2,0.7,0.4c-0.3-0.1-0.5-0.1-0.6-0.1c0,0,0,0.1-0.1,0.1c0.2,0.2,0.4,0.3,0.6,0.5c-0.2,0-0.4,0.1-0.6,0.1   c0.1,0.1,0.1,0.3,0.2,0.5c0,0,0.1,0,0.3,0.1c-0.2,0-0.3,0-0.4,0.1c0,0,0,0.1,0,0.1c0.1,0.1,0.3,0.1,0.4,0.1   c-0.1,0.2-0.2,0.4-0.4,0.6c0.3,0,0.6,0.1,0.9,0.1c0,0,0,0,0,0.1c-0.3,0.1-0.5,0.1-0.8,0.2c0,1.4,0.2,1.5,1.8,1.4   c-0.5,0.1-0.9,0.3-1.4,0.4c0.1,0.2,0.1,0.3,0.2,0.5c0.1,0,0.3,0,0.5,0c-0.2,0.1-0.4,0.1-0.5,0.2c0,0,0,0.1,0.1,0.1   c1,0.2,1.5-0.5,2.2-1.1c-0.5,0.8-1.1,1.3-2.2,1.2c0.4,0.3,0.8,0.2,1.1,0.1c-0.3,0.1-0.6,0.2-0.9,0.4c0.2,0.1,0.4,0.2,0.7,0.2   c0.3,0,0.7-0.2,1-0.3c-0.4,0.5-1,0.4-1.7,0.4c0.2,0.2,0.3,0.2,0.4,0.3c-0.1,0-0.1,0.1-0.2,0.1c0.5,0.4,1,0.3,1.5,0.2   c-0.4,0.1-0.8,0.2-1.2,0.3c0.3,0.3,1,0.2,1.3-0.1c0,0-0.1-0.1-0.1-0.2c0.1-0.2,0.3-0.4,0.4-0.6c-0.2,0.1-0.3,0.1-0.4,0.1   c0.1-0.2,0.2-0.3,0.3-0.5c0,0-0.1-0.1-0.1-0.1c0.2-0.3,0.3-0.5,0.5-0.8c0.1-0.2,0.1-0.5,0.2-0.7c0-0.1,0-0.2,0-0.3   c0.3-0.4,0.8-0.6,1.2-0.7c-0.3,0.8-0.7,1.6-1,2.3c0,0,0.1,0,0.1,0.1c0.3-0.4,0.5-0.7,0.8-1.1c0,0,0,0,0,0c-0.3,1.2-0.6,2.3-1,3.5   c-0.3,0.9-0.8,1.4-1.9,1.6c-1.3,0.3-2.6,0.8-3.9,1.2c0.4-1.8,0.7-3.7,0.7-5.6c0-1.5,0-3-0.1-4.5c-0.2-3.4,0-6.7,0.6-10.1   c0-0.1,0-0.1,0.1-0.3c-0.2,0.2-0.4,0.4-0.7,0.6c0.5-0.8,0.9-1.5,1.3-2.3c-0.6,0.4-1.1,0.8-1.6,1.2c0.4-0.5,0.8-1.1,1.2-1.6   c0.2-0.3,0.3-0.6,0.5-0.9c0,0-0.1-0.1-0.1-0.1c-0.3,0.3-0.5,0.6-0.8,0.9c0,0-0.1-0.1-0.1-0.1c0.4-0.6,0.7-1.2,1.1-1.8   c-2.2,1.2-3,3.2-3.8,5.3c0.7-0.5,1.3-1.1,1.9-1.6c-0.6,0.8-1.3,1.6-1.9,2.4c-0.2,0.2-0.3,0.5-0.3,0.8c0.6-0.7,1.1-1.4,1.7-2.1   c0,0,0.1,0,0.1,0c0,0.1-0.1,0.2-0.1,0.3c-0.2,0.4-0.4,0.8-0.6,1.3c-0.7,1.7-0.8,3.5-0.7,5.4c0.1,1.7,0.2,3.4,0.3,5.1   c0,0.4,0.1,0.8,0.1,1.2c0,1.8-0.4,3.5-0.6,5.3c-0.1,1.3-0.4,2.4-1.7,3c0.1,0,0.1,0.1,0.2,0.1c0.3-0.3,0.6-0.5,0.8-0.8   c0,0,0.1,0.1,0.1,0.1c-0.5,1.1-1,2.2-1.5,3.1c2.4-1.8,5-3.6,8.1-4.8c-0.2,0.4-0.2,0.8-0.4,1.1c-0.1,0.1-0.3,0.3-0.4,0.3   c-2.9,0.3-5.1,1.9-7.2,3.7c-0.3,0.3-0.6,0.7-0.8,1.1c1-0.8,2-1.8,3.2-2.4c0,0.3-0.1,0.5-0.1,0.8c0.1-0.1,0.1-0.1,0.1-0.1   c0.1-1,0.9-1.4,1.6-1.7c1.1-0.5,2.2-1,3.5-1.1c0,0.1,0,0.2,0.1,0.3c-0.3,0.3-0.7,0.6-1.2,1c0.4,0,0.7-0.1,0.9-0.1c0,0,0,0,0,0.1   c-0.3,0.1-0.7,0.2-1,0.3c-2.2,0.6-4,2-5.8,3.4c-1,0.8-1.9,1.7-2.9,2.6c-0.2,0.1-0.3,0.3-0.5,0.4c0.4-1,0.8-2,1.2-3   c0,0,0-0.1,0.1-0.1c1-2.3,0.5-4.4-1.1-6.2c-0.7-0.8-1.4-1.6-2.2-2.4c0.2,0.5,0.4,0.9,0.7,1.4c0,0-0.1,0.1-0.1,0.1   c-1.3-2.1-3.5-3.2-5.2-4.9c0.3,0.8,0.6,1.4,0.9,2.2c-1.3-1.4-1.2-3.4-2.4-4.8C6.8,43.2,6.9,43.6,7,44c0,0-0.1,0-0.1,0   c-0.2-0.4-0.5-0.9-0.7-1.3c-0.3-0.4-0.5-0.9-0.8-1.2c-1-1-1.4-2.3-1.6-3.6c0-0.1,0-0.1,0-0.2c-0.1,0-0.1,0-0.2,0   c0.3,1.2,0.6,2.4,0.9,3.7c-2-3.6-1.8-7.1,0.3-10.6c-0.9,0.7-1.3,1.6-2.3,4.5c-0.3-2.4,2.2-6.2,4.5-6.9c-0.3,0.2-0.4,0.4-0.7,0.6   c1.1-0.1,1.6-0.9,2.3-1.3c0,0,0.1,0.1,0.1,0.1c-0.5,0.4-0.9,0.8-1.5,1.1c-1.4,0.8-2.7,2.5-3.1,4.2C5.4,32,6.5,31,7.6,29.9   c0,0,0.1,0.1,0.1,0.1c-0.8,0.8-1.5,1.6-2.4,2.4c-1.1,1-1.7,2.6-1.8,3.9c0.3-0.4,0.1-1.1,0.7-1.4c0,0.2,0,0.3,0,0.5   c0.3-0.6,0.7-1.1,1.1-1.7c0.1,0,0.1,0,0.2,0.1c-0.8,1.6-1.3,3.2-0.8,4.9c0-1.2,0.6-2.2,1.1-3.3c-0.2,0.8-0.5,1.5-0.7,2.3   c-0.2,0.8-0.5,1.6,0.1,2.3c0.1-0.5,0.2-1,0.3-1.5c0.1-0.3,0.3-0.6,0.3-0.9C5.9,36.8,6,36,6.5,35.2C6.3,36.7,5.7,38,6,39.5   c0.1,0.6,0.3,1.1,0.5,1.6c-0.1-1.7-0.1-3.3,0.2-4.9c0.4-2.3,1-4.4,2.6-6.2c-1.5,2.4-2.4,5-2.2,7.9c0-0.2,0-0.4,0-0.6   c0-0.2,0-0.4,0-0.6c0.1,0.8,0.1,1.6,0.2,2.5c0,0,0.1,0,0.1,0c0-0.1,0-0.3,0-0.4c0.3,2.1,0.8,4,2,5.8c-0.3-1-0.5-1.9-0.8-2.7   c-0.6-1.7-0.5-3.4,0-5.2c0.2-0.7,0.4-1.3,0.6-2C9,34.9,9,35,9,35.2c-0.4,1.3-0.7,2.7-0.5,4.1c0.1-0.1,0.1-0.1,0.1-0.2   c-0.1,0.8,0,1.6,0.3,2.4c0-0.9-0.1-1.8-0.1-2.7c-0.1,0.1-0.1,0.3-0.2,0.4c0.1-1.1,0.2-2.2,0.4-3.3C9,35.4,9.1,35,9.2,34.5   c0.1-0.3,0.3-0.6,0.4-0.9c0-0.1,0-0.1,0-0.2c0,0,0,0,0,0c0,0,0,0,0.1,0C9.8,33.3,9.8,33.3,9.8,33.2C9.8,33.2,9.8,33.2,9.8,33.2   C9.8,33.2,9.8,33.2,9.8,33.2z M20.4,28.5C20.4,28.5,20.5,28.5,20.4,28.5c1.4-1.1,2.7-2.2,4-3.3c0,0,0,0,0-0.1   c-0.3,0.1-0.6,0.2-1,0.3c0.1-0.3,0.2-0.5,0.3-0.7c0,0-0.1-0.1-0.1-0.1C22.5,25.9,21.5,27.2,20.4,28.5z M33.8,28.7   c0.4,0,0.7-0.2,0.7-0.6c0-0.5-0.5-0.9-0.9-0.9c-0.4,0-0.7,0.3-0.7,0.7C32.9,28.4,33.3,28.7,33.8,28.7z M31.2,31.8   c-1.2-1.1-1.3-2.4-1-3.7C29.1,29.3,29.6,31.3,31.2,31.8z M20.5,27.5c0.8-1.2,1.7-2.2,2.8-3c0.2-0.1,0.3-0.3,0.4-0.5   C22.4,24.9,21.1,25.9,20.5,27.5z M11.4,43.9c0-1.4,0-3,0-4.5C11.1,40.9,11.1,42.5,11.4,43.9z M35.7,24.3c0,0,0.1,0,0.1,0   c-0.1-0.6-0.1-1.2-0.2-1.7c0,0.2,0,0.5,0,0.8c0,0-0.1,0-0.1,0c0-0.2,0-0.5,0-0.8C34.8,23.3,35.3,23.8,35.7,24.3z M26.1,48   c-0.9-0.1-0.7,0.6-1,1C25.8,49,26.2,48.6,26.1,48z M10.5,32.3C10.5,32.3,10.5,32.3,10.5,32.3c0.8-0.8,1.5-1.6,2.3-2.4   c0,0-0.1-0.1-0.1-0.1C11.9,30.6,11.2,31.4,10.5,32.3z M24.8,19c0,0,0,0.1,0,0.1c0.8,0,1.6-0.1,2.5-0.1c0,0,0-0.1,0-0.1   C26.4,18.9,25.6,18.9,24.8,19z M36.4,21.1c0,0,0.1,0,0.1,0c-0.1-0.5-0.1-1.1-0.2-1.6c0,0-0.1,0-0.1,0   C36.3,20.1,36.4,20.6,36.4,21.1z M9.2,39.3C9.2,39.3,9.1,39.3,9.2,39.3c0,0.7,0,1.4,0,2.1c0,0,0,0,0,0C9.2,40.7,9.2,40,9.2,39.3z"/><path
  d="M45.5,72.1c0-0.3,0-0.6-0.1-1c-0.2,0.4-0.4,0.7-0.5,1.1c-0.4,1.7,0,3.3,0.8,4.8c0.3,0.6,0.7,1.2,1,1.8   c-0.9-0.9-1.7-1.8-2.1-3.1c0,0-0.1,0-0.1,0.1c0.2,0.5,0.4,1,0.6,1.5c0.8,1.7,2.1,3,3.4,4.3c0.6,0.6,1.1,1.2,1.7,1.7   c0.7,0.6,0.8,1.3,0.8,2.1c-0.1-1.2-0.9-1.9-1.7-2.6c-0.9-0.8-1.6-1.6-2.5-2.3c-0.2-0.2-0.6-0.4-0.9-0.5c0.3,1,0.5,2,0.8,3   c-0.6-1.8-1.1-3.6-2.1-5.2c0,0-0.1,0-0.1,0c0.1,0.6,0.3,1.3,0.4,1.9c0,0-0.1,0-0.1,0c-0.1-0.5-0.2-1.1-0.3-1.6   c-0.1-0.7-0.2-1.3-0.3-2c0,0-0.1,0-0.1,0c-0.1,0.1-0.1,0.2-0.2,0.3c0,0,0,0,0-0.1c0-0.2,0.1-0.4,0-0.7c-0.1-0.8-0.4-1.5-0.5-2.2   c-0.1-0.7-0.1-1.5-0.1-2.3c-0.1,1.1-0.2,2.2-0.3,3.2c0,0,0,0,0,0c-0.1-0.5-0.2-1-0.2-1.5c0-0.5,0-1.1-0.1-1.6c0,1,0,2,0,3   c0,0-0.1,0-0.1,0c0-1,0-1.9,0-2.9c-0.1,0-0.1,0-0.2,0c0,1-0.1,2-0.1,2.7c0-0.9,0-2.1,0-3.3c-0.1,0.9-0.2,1.7-0.3,2.6   c-0.1-1-0.2-1.9-0.3-2.7c0,0-0.1,0-0.1,0c0,1,0,2,0,2.9c0,0-0.1,0-0.1,0c-0.1-0.9-0.1-1.9-0.2-2.9c-0.4,2.1,0,4.1,0.3,6   c-0.5-1.6-0.7-3.2-0.8-4.9c0,1.2,0,2.3,0,3.5c0,0,0,0-0.1,0c-0.1-0.8-0.2-1.7-0.2-2.4c-0.1,0.2-0.1,0.5-0.3,0.8   c-0.5,0.7-0.2,1.4-0.1,2.1c0,0.3,0.1,0.5,0.1,0.8c0,0-0.1,0-0.1,0c-0.1-0.9-0.2-1.9-0.3-2.6c-0.3,1.4,0,2.8,0.5,4.3   c0.6,1.7,1.4,3.4,2.1,5.1c0.1,0.3,0.2,0.7,0.4,1c0,0-0.1,0-0.1,0c-0.8-1.9-1.7-3.8-2.5-5.8c-0.9-2.1-0.7-4.2-0.1-6.3   c0-0.2,0.1-0.3,0-0.5c-0.1,0.2-0.2,0.3-0.2,0.5c-0.6,2.1-0.7,4.2,0.1,6.2c0.6,1.6,1.3,3.2,2,4.8c0.1,0.2,0.1,0.3,0.3,0.5   c-0.7-0.8-2.2-4.3-3-6.8c0.1,0.5,0.2,1,0.3,1.7c-0.8-2.1-0.5-4.1-0.2-6.1c-0.1,0.2-0.1,0.5-0.2,0.8c0-0.2-0.1-0.4-0.1-0.5   c0,0,0,0-0.1,0c-0.2,0.8-0.3,1.6-0.5,2.3c0-0.2,0-0.6,0-1c0,0-0.1,0-0.1,0c0,0.8-0.1,1.6,0,2.5c0,0.7,0.1,1.4,0.2,2.1c0,0,0,0,0,0   c-0.5-1.8-0.4-3.6-0.3-5.4c-0.2,0.7-0.5,1.4-0.5,2.2c-0.1,0.6,0.1,1.3,0.2,1.9l0,0c-0.4-0.9-0.4-1.8-0.3-2.8c0-0.5,0.1-1,0.2-1.7   c-0.1,0.3-0.2,0.4-0.3,0.7c0.1-0.5,0.1-0.9,0.2-1.3c-0.8,1-1.3,3.7-0.8,5.1c0-0.4,0-0.8,0-1.2c0.1,0.5,0.2,1.1,0.3,1.7   c0.1,0.6,0.4,1.1,0.6,1.6c-0.1,0-0.1,0-0.2,0.1c-0.4-1-0.8-2-1.2-3.1c0.3,1.3,0.5,2.5,0.8,3.7c-0.1-0.2-0.3-0.5-0.5-0.8   c0,0-0.1,0-0.1,0c0.5,1.4,1,2.9,1.4,4.3c0,0,0,0,0,0c-0.3-0.7-0.6-1.5-0.9-2.2c0,0,0,0-0.1,0c0.1,0.4,0.2,0.9,0.3,1.3   c0,0,0,0-0.1,0c-0.2-0.7-0.3-1.4-0.6-2c-0.3-0.7-0.3-1.4-0.3-2.1c0-0.7,0-1.5,0-2.2c-0.7,3,0.4,5.7,1.2,8.5c-0.6-0.7-1.3-3.6-1.6-6   C35.3,77,35.7,75,36.3,73c-1.2,2.1-1.5,4.5-1.3,6.9c0.2,2.4,1.4,4.5,2.4,6.6c-2.5-3.9-3.5-8-1.9-12.5c-0.9,0.9-1.6,3.8-1.5,5.7   c0.2,2,0.5,4,1.5,5.8c-1.1-1.2-1.6-2.8-2.1-4.3c0.2,2.9,2.2,4.8,4,6.8c-2.6-1.6-4.8-3.6-6.1-6.4c-0.3-0.8-0.6-1.6-0.7-2.4   c-0.2-1.4,0.3-2.6,1-3.8c0.6-1,1.3-2,1.9-3c-0.8,0.1-2.9,3.8-3.4,5.9c0-1.4,0.6-2.5,1.3-3.6c0.7-1,1.3-2.1,1.9-3   c-0.5,0.5-1.1,1.1-1.7,1.7c0-0.1,0-0.1,0-0.2c0,0-0.1,0-0.1-0.1c-0.4,0.8-0.9,1.5-1.3,2.3c0,0,0.1,0,0.1,0.1   c0.3-0.4,0.5-0.8,0.8-1.2c-0.2,0.5-0.4,0.9-0.7,1.4c-0.8,1.8-0.9,3.8-0.5,5.7c0.1,0.5,0.1,1.1,0.1,1.6c-0.3-0.9-0.6-1.9-0.8-2.6   c-0.1,1.8-0.6,3.9,0,6c-0.4-1.1-0.4-2.3-0.3-3.5c0-1.3,0.1-2.7,0-4c-0.1-1.5,0-2.9,0.4-4.2c0-0.1,0.1-0.3,0.1-0.4c0,0,0,0-0.1-0.1   c-1.1,1.3-1.3,2.8-1.1,4.4c0-0.4-0.1-0.8-0.1-1.2c0-0.4,0-0.8-0.1-1.2c0,0.7-0.1,1.5-0.1,2.1c-0.2-0.7-0.4-2.2,0.6-4.2   c-1.1,0.7-1.3,1.8-1.3,3c-0.1,1.4-0.1,2.8-0.2,4.2c-0.1,0.7-0.5,1.4-0.7,2.1c-0.2,0.5-0.2,1-0.4,1.5c0,0.2-0.1,0.4-0.2,0.5   c-0.5,1.4-0.5,2.9-0.5,4.3c0,0.2,0,0.3,0,0.5c-0.7-2.1,0.1-4.1,0.4-6.3c-1.8,1.6-2.9,3.5-3.6,5.7c0.2-1.4,0.7-2.6,1.5-3.7   c0.5-0.6,1-1.2,1.5-1.8c0.3-0.3,0.4-0.6,0.4-1.1c0-1.3,0.1-2.5,0-3.8c-0.1-0.7,0.4-1.2,0.6-1.9c-0.2,0.1-0.4,0.2-0.5,0.4   c-1.2,1.8-2.8,2.9-4.6,3.9c-0.3,0.1-0.6,0.1-0.9,0.2c0,0-0.1-0.1-0.1-0.1c0.4-0.3,0.7-0.6,1.1-0.9c0.9-0.7,1.7-1.4,2.6-2   c1-0.7,1.7-1.8,2.5-2.7c0.3-0.3,0.7-0.6,1-0.9c-1.1,0.4-2,1-2.7,1.9c-0.5,0.6-1.1,1.2-1.8,1.7c-0.9,0.7-1.7,1.4-2.6,2.2   c-1,0.8-1.9,1.8-2.5,3c0-1.2,2.1-4.3,4.1-5.9C21.1,78,20.8,78,20.5,78c-0.3,0.1-0.7,0.2-1,0.3c-0.3,0.1-0.6,0.3-1,0.3   c1.2-0.9,2.4-1.9,3.6-2.8c0,0-0.1-0.1-0.1-0.1c-0.7,0.2-1.3,0.4-2.2,0.1c2.5-1.2,4.3-3,5.3-5.5c-1.6,0.2-2.6,1.1-3.3,2.4   c0,0-0.1-0.1-0.1-0.1c0.4-0.6,0.7-1.2,1.1-1.8c-0.1,0.1-0.2,0.1-0.4,0.2c-0.1,0.1-0.3,0.2-0.5,0.2c0.2-0.2,0.3-0.4,0.5-0.5   c0.5-0.3,1.1-0.6,1.7-0.8c1.1-0.5,2.1-1.1,2.7-2.1c0.1-0.1,0.2-0.3,0.2-0.4c0,0,0-0.1,0-0.2c-0.7,0.9-1.4,1.6-2.4,2.1   c-0.7,0.3-1.4,0.6-2.2,0.8c1-0.7,1.9-1.4,2.9-2c0-0.1-0.1-0.1-0.1-0.2c-1.6,0.6-3.3,0.6-4.7,1.8c0,0-0.1-0.1-0.1-0.1   c0.5-0.4,1.1-0.8,1.6-1.3c0.6-0.4,1.2-0.8,1.7-1.3c0.5-0.4,1-0.9,1.6-1.4c-0.7,0.8-1.4,1.5-2.2,2.4c0.8-0.4,1.6-0.7,2.3-1.1   c0.1-0.1,0.3-0.2,0.4-0.4c0.1-0.6,0.2-1.2,0.3-1.8c0,0-0.1,0-0.1,0c-0.1,0.1-0.2,0.2-0.3,0.3c0.1-0.2,0.3-0.5,0.4-0.7   c-0.1,0-0.2,0-0.3,0c0-0.1,0-0.1,0.1-0.1c0.4-0.7,0.8-1.4,1.2-2c0.1-0.2,0.1-0.6,0.6-0.4c0,0,0.3-0.3,0.4-0.5   c-0.3,1.3-0.7,2.7-1,4.1c0.5-1.3,0.7-2.7,1.5-3.8c-0.1,0.2-0.1,0.4-0.2,0.5c0.3-0.4,0.6-0.7,0.9-1.1c0.1,0,0.1,0.1,0.2,0.1   c-1.3,1.7-2,3.5-1.4,5.5c0.1-0.8,0.1-1.5,0.2-2.3c0.1-0.8,0.3-1.5,0.8-2.2c0,0.1,0.1,0.1,0.1,0.2c0.2-0.3,0.3-0.5,0.4-0.8   c-0.4,1.4-0.8,2.8-1.2,4.1c0.1,0,0.1,0,0.2,0.1c0.2-0.4,0.3-0.9,0.5-1.4c0.8,0.7,1.7,0.5,2.7,0.6c-0.2,0.4-0.5,0.6-0.7,0.9   c0,0,0.1,0,0.1,0.1c0.3-0.1,0.6-0.3,0.9-0.4c0.1,0.2,0.1,0.5,0.2,0.8c0,0,0-0.1,0.1-0.1c0.2,0.2,0.4,0.3,0.6,0.5   c0.2,0.1,0.4,0.3,0.6,0.5c0,0,0.1,0,0.1-0.1c1.3,0.8,2.5,1.8,4.1,2c0.5,0.1,1,0,1.4,0.1c0.3,0.1,0.6-0.1,0.8,0.3c0,0.1,0.3,0,0.4,0   c0.1,0,0.2,0,0.4,0c0,0,0,0,0.1-0.1c0,0.1,0.1,0.2,0.1,0.3c0.1-0.1,0.1-0.2,0.1-0.2c0.2,0.1,0.4,0.2,0.5,0.1c0.3-0.1,0.6,0,0.8,0   c0.6-0.1,1.2,0,1.8-0.1c0.5-0.1,1.1-0.1,1.7-0.1c1.3,0,2.5-0.1,3.8-0.4c0.7-0.2,1.2-0.4,1.5-1.1c-0.1,0.2-0.2,0.5-0.4,0.8   c0.3-0.1,0.6-0.2,0.9-0.3c-0.1,0.4-0.1,0.7-0.2,1c-0.2,0.9-0.5,1.9-0.6,2.8c-0.2,1.4,0,2.7,0.7,4c-0.2-0.2-0.3-0.5-0.5-0.7   c-0.1-0.2-0.2-0.5-0.4-0.9c0,0.4,0,0.6,0,0.9c0,0-0.1,0-0.1,0c0-1.1,0-2.2,0-3.2c0,0-0.1,0-0.1,0c-0.1,0.2-0.2,0.3-0.2,0.5   c0.1-0.4,0.2-0.8,0.3-1.3c-0.7,1-1.2,2-1.4,3.1c-0.2,1.4,0,2.7,0.5,4c0.8,2.4,2.3,4.4,3.6,6.4c0,0.1,0.1,0.1,0.2,0.2   c0.1,0.2,0.2,0.3,0.2,0.5c-0.1-0.1-0.3-0.2-0.4-0.3c-1.5-2-2.9-4.2-3.8-6.5c-0.8-1.9-1-3.9-0.2-5.9c0.1-0.4,0.2-0.7,0.3-1.1   c-1,1.9-1.2,3.8-0.6,5.9c-0.8-0.6-0.6-1.5-0.8-2.3c0,0-0.1,0-0.1,0c0.1,0.5,0.1,1,0.2,1.5c0.1,0.5,0.3,0.9,0.4,1.4   c-0.6-1.1-0.9-2.3-0.7-3.5c0.1-1.2,0.4-2.4,0.6-3.6c-0.1,0.2-0.3,0.4-0.4,0.7c-0.9,2.2-1.1,4.4-0.1,6.6c0.7,1.5,1.4,2.9,2.1,4.4   c0.1,0.1,0.1,0.3,0.2,0.4c0,0-0.1,0-0.1,0.1c-0.9-1.8-1.9-3.6-2.8-5.4c-0.8-1.8-0.6-3.8-0.1-5.7c0.1-0.4,0.2-0.9,0.4-1.4   c-0.8,0.5-0.6,1.4-1.3,2.1c0.2-0.7,0.4-1.2,0.5-1.8c-0.8,0.5-0.8,1.3-1,1.9c0-0.3,0.1-0.6,0.1-0.9c0,0-0.1,0-0.1,0   c-0.2,0.6-0.4,1.2-0.5,1.8c0,0,0,0-0.1,0c0.2-0.7,0.3-1.4,0.4-2C45.8,71.6,45.7,71.9,45.5,72.1C45.5,72.1,45.5,72.1,45.5,72.1z    M25.9,72.4c-0.7,0.5-1.3,1-2,1.6c-1.1,0.6-2.1,1.1-3.1,1.6c0.9,0.1,1.6-0.8,2.6-1.1c0,0.2,0.1,0.4,0,0.5c-0.7,1-1.5,1.8-2.6,2.4   c-0.2,0.1-0.3,0.2-0.5,0.4c0.4,0,0.7-0.1,0.9-0.1c0.7,0.1,1.2-0.1,1.7-0.5c0.7-0.5,1.3-1,2-1.4c0.6-0.4,1.3-0.7,2-1   c0.4-0.2,0.7-0.6,0.8-1.1c-0.9,0.5-1.8,1-2.7,1.5c-0.9,0.5-1.8,1-2.7,1.5c0.1-0.2,0.3-0.4,0.5-0.5c0.4-0.4,0.7-0.9,1.1-1.1   c0.7-0.5,1.5-0.8,2.2-1.2c0.5-0.3,1-0.8,1.4-1.2c0.8-0.9,0.7-2.2,1-3.3c0.1-0.2,0-0.4,0-0.7c-0.1,0-0.3,0-0.3,0   c0-0.2,0.1-0.5,0.1-0.7c-0.2,0-0.5,0-0.7,0.1c-0.4,0.1-0.5,0.3-0.4,0.7c0.2,0.7,0.4,1.4,0.5,2.1c-0.1,0,0,0,0,0c0,0,0.1,0,0.2,0   c-0.9,1.5-2.1,2.7-3.6,3.5c0.2-0.1,0.3-0.3,0.5-0.4c0.4-0.3,0.7-0.7,1.1-1c0.8-0.8,1.7-2.4,1.2-3c-0.1,0.2-0.2,0.5-0.3,0.8   c0-0.3,0-0.5-0.1-0.8c-0.1,0.2-0.1,0.3-0.1,0.4c-0.1-0.2-0.2-0.4-0.2-0.6c0,0.4,0,0.9,0,1.3c0,0.2-0.1,0.5,0,0.6   c0.2,0.3,0,0.5-0.2,0.6C26,72.2,26,72.3,25.9,72.4z M33.4,70.9c0.2-0.3,0.4-0.5,0.6-0.8c-0.2,0.1-0.3,0.1-0.4,0.2   c0-0.3,0.1-0.5,0.1-0.8c-0.2,0.2-0.3,0.4-0.5,0.6c-0.8,0.9-1.7,1.8-2.5,2.7c-0.5,0.6-1.1,1.9-1.2,2.7c0.8-1.3,1.6-2.5,2.7-3.4   c0,0.1,0,0.2-0.1,0.3c0.5-0.6,1-1.1,1.5-1.6c0,0,0,0,0-0.1C33.5,70.8,33.5,70.8,33.4,70.9z M33.7,76.6c-0.3,2,0,3.9,0.5,5.8   c0-0.5-0.1-0.9-0.2-1.4c-0.1-1.4-0.4-2.9-0.2-4.3c0-0.1-0.1-0.3-0.1-0.4c0.1-0.4,0.1-0.9,0.3-1.2c0.4-1,0.9-1.9,1.3-2.9   c0.1-0.3,0.2-0.6,0.3-0.9c0,0-0.1,0-0.1,0c-1,1.4-1.9,2.8-2.3,4.4c-0.4,1.7-0.1,3.3,0.1,5c0.1-0.2,0.1-0.4,0-0.6   C33.3,79,33.3,77.8,33.7,76.6z M28.6,72.2c0.2-0.3,0.4-0.5,0.6-0.8c0,0,0,0,0,0c-0.5,0.4-0.9,0.8-1.4,1.3c0,0,0.1,0.1,0.1,0.1   c0.1-0.1,0.1-0.1,0.2-0.2c0.1,0.1,0.2,0.3,0.3,0.2c0.5-0.2,1-0.5,1.5-0.7c0.3-0.1,0.5-0.4,0.7-0.5c0.7-0.3,1-0.9,1.1-1.6   c0.1-0.9,0.4-1.7,0.9-2.5c0.1-0.2,0.2-0.4,0.3-0.5c0,0-0.1-0.1-0.1-0.1c-0.3,0.5-0.6,1-0.9,1.5C31,69.8,30,71.2,28.6,72.2z    M33.9,72.4c-1.1,1.2-2,2.5-2.6,4c-0.6,1.5-0.6,3.1,0,4.6c0.7,1.7,1.7,3.3,3.1,4.6c0.3,0.3,0.7,0.6,1,0.9c-0.6-0.8-1.3-1.6-1.8-2.4   c-1.2-2-1.9-4.2-1.6-6.6c0.2-1.6,0.8-3.1,1.6-4.5C33.8,72.8,33.9,72.6,33.9,72.4z M26.5,77.6c-0.9,1.7-0.7,3.6-0.8,5.4   C26.2,81.3,26.4,79.5,26.5,77.6z M19.4,80.6C19.5,80.6,19.5,80.6,19.4,80.6c0.4-0.2,0.7-0.4,1.1-0.6c0.8-0.5,1.6-1.1,2.3-1.8   c0.1-0.1,0.2-0.4,0.3-0.6c0,0-0.1,0-0.1-0.1C21.8,78.6,20.6,79.6,19.4,80.6z M30.4,68C30.4,68,30.3,68,30.4,68   c-0.2,0-0.4,0.1-0.6,0.3c-0.2,0.1-0.4,0.2-0.5,0.4c-0.2,0.5-0.3,1.1-0.4,1.4c0.3-0.3,0.7-0.6,1.2-1c-0.1,0.1-0.2,0.1-0.4,0.1   c0.2-0.3,0.5-0.5,0.7-0.8c-0.1,0-0.2,0-0.3,0C30.1,68.3,30.3,68.2,30.4,68z M26.8,78c-0.2,1.6-0.5,3.2-0.7,4.8   C26.7,81.2,26.7,79.6,26.8,78z M25.8,70.6c-0.2,0.5-0.4,1.1-0.7,1.7C25.9,71.8,26,71.6,25.8,70.6z M26.1,69.8c-0.1,0-0.1,0-0.2,0   c0,0.4,0.1,0.9,0.1,1.3c0,0,0.1,0,0.1,0C26.2,70.7,26.2,70.3,26.1,69.8z"/><path
  d="M49,60.7c0.3,0.7,0.7,1.5,0.9,2.2c0.2,0.5,0.4,0.7,0.9,0.8c0.5,0.1,1.1,0.3,1.6,0.5c0.2,0,0.3,0.1,0.5,0.1c0,0,0-0.1,0-0.1   c0.5,0.3,0.8,0.3,1,0c0.1,0.1,0.2,0.2,0.3,0.3c0-0.1,0-0.2-0.1-0.4c0.3,0,0.6,0,0.7,0.1c0.3,0.3,0.5,0.7,0.8,1.1   c-0.5,0.1-0.8,0.2-1.2,0.3c0.1,0.2,0.2,0.4,0.2,0.6c0.3-0.2,0.6-0.3,0.9-0.4c0.3,1.3,0.5,2.6,0.8,4c0,0,0,0-0.1,0   c-0.2-0.8-0.4-1.5-0.6-2.4c-0.4,1.3-0.3,2.5,0.2,3.6c0.6,1.5,1.3,2.9,2,4.4c0.3,0.7,0.9,1.2,1.3,1.8c-0.7-0.5-1.2-1.3-1.7-2.1   c-1.1-2.2-2.3-4.4-2.6-7c-0.1-0.7-0.3-1.5-0.5-2.2c-0.1-0.3-0.3-0.5-0.5-0.7c0,0-0.1,0-0.1,0.1c0,0.3,0,0.5,0.1,0.8c0,0,0,0-0.1,0   c-0.1-0.2-0.1-0.4-0.2-0.6c0,0-0.1,0-0.1,0c0,0.3,0,0.5,0,0.9c-0.2-0.5,0-1.1-0.6-1.4c0,0.4,0,0.8,0,1.1c-0.1,0-0.1,0-0.2,0.1   c-0.1-0.3-0.3-0.5-0.4-0.8c-0.1-0.1-0.2-0.2-0.4-0.2c0.1,0.5,0.2,0.9,0.3,1.3c-0.4-0.6-0.6-1.2-1.3-1.7c0.1,0.6,0.1,1.2-0.4,1.5   c-0.1-0.1-0.1-0.2-0.2-0.2c-0.1,0.1-0.1,0.2-0.2,0.4c-0.6-0.6-0.5-1.7-1.4-2.1c0,0.1,0,0.2,0,0.2c0,0.1,0,0.1,0,0.2   c-0.1-0.1-0.1-0.3-0.3-0.5c-0.1,0.2-0.2,0.3-0.3,0.5c0,0-0.1-0.1-0.1-0.2c-0.1,0.1-0.1,0.3-0.2,0.5c-0.6-0.4-1.1-0.8-1.7-1.2   c0,0.1,0.1,0.3,0.1,0.5c0,0,0,0-0.1,0c-0.1-0.2-0.2-0.4-0.4-0.7c0,0.2,0,0.2,0,0.4c-0.1-0.1-0.2-0.2-0.3-0.4c0,0.2,0.1,0.3,0.1,0.6   c-0.2-0.2-0.2-0.4-0.4-0.5c0,0.2,0,0.3,0.1,0.5c0,0,0,0-0.1,0c-0.1-0.2-0.3-0.4-0.5-0.8c0,0.3,0,0.5,0,0.7   c-0.2-0.4-0.3-0.7-0.5-1.1c0,0-0.1,0-0.1,0c0.1,0.5,0.1,0.9,0.2,1.4c0,0,0,0-0.1,0c-0.1-0.2-0.1-0.4-0.2-0.7c0,0.1-0.1,0.1-0.1,0.2   c-0.1-0.2-0.2-0.4-0.3-0.6c0,0,0,0-0.1,0c0,0.2,0,0.4,0,0.6c-0.2-0.2-0.3-0.4-0.4-0.5c-0.1,0.2-0.1,0.3-0.2,0.6   c-0.1-0.3-0.1-0.5-0.2-0.8c-0.1,0.3-0.1,0.6-0.2,0.8c0,0,0,0-0.1,0c0-0.2,0-0.4,0-0.7c0,0,0,0-0.1,0c0,0.1,0,0.2-0.1,0.3   c0-0.2,0-0.3-0.1-0.6c-0.1,0.4-0.1,0.7-0.2,1c0,0,0,0,0,0c0-0.3,0-0.5,0-0.8c0,0,0,0-0.1,0c0,0.1-0.1,0.3-0.1,0.4c0,0,0,0,0,0   c0-0.2,0-0.4-0.1-0.6c-0.1,0.2-0.1,0.5-0.2,0.7c0,0,0,0-0.1,0c0-0.2,0-0.3,0-0.6c-0.1,0.2-0.1,0.4-0.1,0.5c0,0,0,0-0.1,0   c0-0.2,0-0.4,0-0.8c-0.1,0.3-0.2,0.5-0.3,0.8c0-0.3,0-0.4,0-0.6c-0.1,0.1-0.1,0.1-0.1,0.2c0-0.1-0.1-0.2-0.1-0.3   c-0.1,0.2-0.1,0.3-0.2,0.5c0-0.1-0.1-0.2-0.1-0.3c-0.1,0.1-0.1,0.3-0.2,0.4c0,0-0.1,0-0.1,0c0-0.2,0-0.5-0.1-0.7   c0-0.1-0.2-0.1-0.3-0.2c-0.4,0.5-0.8,0.9-1.3,1.5c0-0.4,0.1-0.8,0.1-1.3c-0.2,0.3-0.4,0.5-0.6,0.7c0,0-0.1-0.1-0.1-0.1   c0.1-0.2,0.1-0.3,0.2-0.6c-0.3,0.2-0.5,0.3-0.7,0.4c0,0,0-0.1,0-0.2c-0.1,0.1-0.2,0.1-0.2,0.2c0,0,0,0,0,0c0.2-0.3,0.4-0.6,0.6-1   c0,0,0,0-0.1-0.1c-0.4,0.3-0.7,0.6-1.1,0.9c0.1-0.1,0.1-0.3,0.2-0.5c-0.5,0.4-0.9,0.9-0.9,1.7c0.1-0.3,0.2-0.5,0.3-0.7   c0.1-0.2,0.3-0.4,0.4-0.6c-0.2,0.7-0.4,1.4-0.6,2.1c0,0.1,0,0.2,0,0.3c-0.1,0.2-0.2,0.4-0.4,0.6c0,0-0.1,0-0.1,0   c0-0.1,0-0.2-0.1-0.4c-0.1,0.1-0.1,0.2-0.2,0.3c0-0.2,0-0.4-0.1-0.6c-0.1,0.2-0.1,0.3-0.2,0.5c-0.2-0.2-0.4-0.4-0.4-0.6   c0.1-0.6,0.3-1.2,0.5-1.8c0.1-0.2,0.2-0.3,0.3-0.5c-0.7,0.7-0.8,1.6-1,2.6c-0.1-0.2-0.2-0.3-0.3-0.4c0,0-0.1,0.1-0.1,0.1   c0-0.2,0-0.4,0-0.6c-0.1,0.2-0.1,0.3-0.2,0.5c-0.1-0.1-0.3-0.3-0.4-0.4c0,0-0.1,0.1-0.2,0.2c-0.1-0.2-0.2-0.3-0.4-0.5   c-0.1,0.1-0.1,0.1-0.2,0.2c-0.1-0.4-0.5-0.5-0.9-0.5c-0.9,0-1.7-0.1-2.6-0.5c0.3-0.7,0.6-1.5,0.8-2.2c0,0,0.1,0,0.1,0   c0,0.2,0,0.4-0.1,0.6c0.1-0.2,0.1-0.3,0.2-0.4c0,0.2,0,0.4,0,0.7c0.1-0.3,0.2-0.4,0.3-0.6c0,0.3,0,0.4,0,0.7   c0.1-0.2,0.2-0.4,0.3-0.6c0,0.3,0,0.5-0.1,0.8c0.1-0.2,0.2-0.4,0.3-0.7c0,0.2,0,0.4,0,0.5c0.1-0.1,0.1-0.2,0.2-0.4   c0,0.1,0.1,0.2,0.1,0.3c0.1-0.1,0.1-0.1,0.2-0.2c0,0.2,0,0.3,0,0.5c0.1-0.2,0.1-0.3,0.2-0.5c0.1,0.1,0.1,0.2,0.1,0.3   c0.1-0.1,0.1-0.2,0.2-0.3c0,0.2,0,0.3,0,0.5c0.1-0.2,0.1-0.3,0.2-0.5c0,0.2,0.1,0.4,0.1,0.5c0.1-0.2,0.1-0.4,0.2-0.7   c0.1,0.3,0.1,0.4,0.1,0.5c0.1-0.1,0.1-0.2,0.2-0.5c0,0.2,0,0.3,0,0.4c0.1-0.1,0.1-0.2,0.2-0.3c0.1,0,0.2,0,0.3,0c0,0,0,0.1,0,0.2   c0.1-0.1,0.1-0.3,0.2-0.4c0,0.1,0,0.2,0.1,0.3c0.1-0.1,0.1-0.2,0.2-0.3c0.3,0.1,0.6,0,0.8-0.2c0.9-0.6,1.8-0.9,2.8-1.2   c0.8-0.3,1.7-0.6,2.5-0.9c0.4-0.2,0.7-0.5,0.7-0.9c-0.5,0.2-1,0.5-1.5,0.7c0-0.2,0-0.3,0-0.6c-0.1,0.1-0.1,0.1-0.1,0.2   c-0.2,0.4-0.5,0.6-1,0.6c-0.1,0-0.3,0.1-0.4,0.1c-0.4,0.1-0.9,0.1-1.2,0.4c-0.1,0.1-0.2,0-0.4,0.1c0,0,0,0,0-0.1   c-0.1,0.1-0.1,0.2-0.2,0.3c0-0.1-0.1-0.1-0.1-0.2c-0.1,0.1-0.1,0.2-0.2,0.4c0-0.1,0-0.2-0.1-0.3c-0.1,0.1-0.1,0.2-0.2,0.3   c0-0.2,0-0.3,0-0.4c-0.1,0.2-0.2,0.3-0.3,0.5c0,0,0,0-0.1,0c0-0.2,0.1-0.3,0.1-0.5c-0.1,0.1-0.2,0.2-0.3,0.3c0,0,0,0-0.1,0   c0-0.1,0.1-0.2,0.1-0.3c0,0,0,0-0.1,0c-0.1,0.2-0.3,0.4-0.4,0.6c0,0-0.1,0-0.1,0c0.1-0.2,0.1-0.4,0.2-0.6c0.1-0.2,0.2-0.4,0.3-0.6   c0,0-0.1-0.1-0.1-0.1c-0.3,0.3-0.6,0.6-0.9,0.8c0,0,0,0-0.1,0c0.3-0.5,0.7-1,1-1.5c-0.2,0.1-0.4,0.3-0.7,0.4   c0.1-0.2,0.2-0.3,0.4-0.5c-0.2,0.1-0.4,0.2-0.5,0.3c0,0,0,0,0-0.1c0.2-0.3,0.5-0.5,0.8-0.9c-0.2,0.1-0.3,0.1-0.5,0.2   c0.3-0.2,0.5-0.4,0.6-0.6c-0.3,0-0.5,0-0.9,0c0.2-0.2,0.3-0.3,0.5-0.4c-0.2,0.1-0.4,0.1-0.5,0.1c0,0,0,0,0-0.1   c0.3-0.2,0.5-0.4,0.8-0.6c-0.2,0-0.4,0-0.6,0c0.4-0.7,0.9-0.9,1.6-0.7c0.1,0,0.3-0.1,0.4-0.1c0-0.1-0.1-0.3-0.1-0.4   c-0.1-0.2-0.2-0.4-0.3-0.7c-0.2-0.3-0.4-0.5-0.8-0.3c0.1-0.1,0.2-0.2,0.4-0.4c-0.2,0.1-0.3,0.1-0.4,0.1c0.1-0.1,0.1-0.2,0.3-0.3   c-0.3,0.2-0.6,0.3-0.8,0.4c0-0.1,0-0.3,0-0.4c0,0-0.1,0-0.1,0c0.1-0.1,0.2-0.3,0.4-0.4c0,0,0,0,0-0.1c-0.1,0.1-0.2,0.2-0.4,0.2   c0,0,0,0-0.1-0.1c0.1-0.2,0.3-0.4,0.4-0.5c-0.1-0.1-0.1-0.1-0.2-0.3c-0.2,0.1-0.4,0.2-0.6,0.3c0,0,0,0,0-0.1   c0.2-0.1,0.4-0.3,0.6-0.4c0,0,0-0.1,0-0.1c-0.2,0-0.3,0-0.7,0.1c0.6-0.2,1-0.4,0.6-1c-0.1,0-0.3,0.1-0.6,0.1   c0.2-0.2,0.3-0.3,0.4-0.4c-0.1-0.1-0.3-0.1-0.4-0.2c0.2-0.1,0.5-0.3,0.7-0.4c-0.3,0-0.5,0-0.8,0c0,0,0-0.1,0-0.2   c0.1,0,0.3-0.1,0.4-0.1c0.2-0.3,0.6-0.5,0.4-0.9c0-0.1-0.2-0.1-0.2-0.1c0,0.1,0,0.1,0,0.2c-0.2,0-0.3,0-0.5,0   c-0.4-0.1-0.7-0.1-1.1-0.2c0.3,0,0.7,0,1,0.1c0,0,0,0,0-0.1c-0.3-0.1-0.7-0.1-1-0.2c0,0,0,0,0-0.1c0.3,0,0.7,0.1,1,0.1   c0,0,0,0,0-0.1c-0.8-0.3-1.7-0.6-2.6-0.9c0.2,0,0.3,0,0.4,0c0.6,0.1,1.3,0.2,1.9,0.3c0.1,0,0.3-0.1,0.5-0.2   c-0.2-0.2-0.4-0.4-0.6-0.6c0.1,0,0.2,0,0.3,0c-0.1-0.1-0.1-0.3-0.2-0.3c0.4,0,0.8,0,1.2,0c0,0,0-0.2,0-0.3c0.1,0,0.3,0.1,0.4,0.2   c0,0,0,0,0,0c-0.2-0.1-0.3-0.2-0.5-0.4c0.2,0,0.3,0,0.4,0.1c-0.1-0.1-0.2-0.2-0.4-0.3c0.2,0,0.3,0,0.4,0c-0.1-0.1-0.2-0.2-0.3-0.2   c0.4-0.3,0.7-0.3,1,0.1c0.4-0.2,0.7-0.3,1.1-0.5c0,0,0,0,0,0.1c-0.3,0.4-0.6,0.7-0.9,1.1c-0.6,0.9-0.7,1.8-0.5,2.8   c0,0.2,0.1,0.3,0.2,0.5c0,0.1,0.2,0.1,0.2,0.1c0-0.1,0.1-0.2,0-0.3c-0.7-1.4-0.2-2.6,0.6-3.8c0.4-0.5,1-0.8,1.6-0.8   c1.3,0,2.5-0.1,3.7,0.5c0.2,0.1,0.6,0.1,0.8,0.1c1.9-0.6,3.6-0.2,5.3,0.8c1.6,0.9,1.8,2.6,0.5,3.8c-0.1,0.1-0.2,0.2-0.2,0.2   c0.1,0.2,0.2,0.4,0.2,0.6c-0.1,0.5-0.3,1-0.5,1.4c-0.4,0.7-1,1.3-1.5,1.9c-0.4,0.6-1,0.8-1.7,0.9c-0.8,0-1.3,0.4-2,0.8   c0,0,0,0.1,0,0.1c0.1,0,0.2,0,0.3,0c0.5-0.1,0.9-0.2,1.4-0.3c0.5-0.1,1-0.2,1.5-0.3c0,0,0.1,0,0.1,0c0.6-0.8,1.3-1.5,1.9-2.3   c0.2-0.3,0.4-0.6,0.5-0.9c0.3-0.9,0.7-1.7,1-2.6c0.4-1.1,0-2-0.8-2.8c-1.1-1-2.4-1.5-3.9-1.8c-0.2,0-0.3-0.1-0.5-0.2   c1-0.1,2.1-0.2,3-0.3c-0.2,0.1-0.4,0.2-0.7,0.3c0,0,0,0,0,0.1c0.3-0.1,0.7-0.2,1-0.3c-0.1,0.1-0.2,0.2-0.3,0.3   c0.3,0,0.6-0.1,0.8-0.1c0,0,0,0,0,0.1c-0.2,0.1-0.4,0.2-0.6,0.2c0,0,0,0,0,0.1c0.2-0.1,0.4-0.1,0.6-0.2c0,0,0,0,0,0   c-0.2,0.1-0.4,0.2-0.5,0.3c0,0,0,0.1,0,0.1c0.2,0,0.4,0,0.6-0.1c0,0,0,0,0.1,0c-0.2,0.1-0.3,0.1-0.5,0.2c0,0,0.1,0.1,0.1,0.1   c0.2-0.1,0.5-0.2,0.7-0.3c0,0,0,0,0,0.1c-0.1,0.1-0.3,0.2-0.4,0.3c0.4,0.3,0.8,0.6,1.2,0.9c0.1,0.1,0.2,0.4,0.4,0.6   c0.5-0.3,0.9-0.5,1.4-0.8c0,0,0,0,0,0.1c-0.3,0.2-0.6,0.4-0.9,0.7c-0.1,0.1-0.2,0.2-0.3,0.4c0.2,0,0.3,0.1,0.5,0   c0.1,0,0.3-0.1,0.5,0c-0.2,0.1-0.4,0.2-0.5,0.4c-0.2,0.4-0.5,0.7-0.7,1.1c-0.2,0.5-0.2,1.1-0.3,1.6c0,0.2-0.1,0.4-0.2,0.6   c0.2,0,0.4,0,0.6,0.1c0,0,0,0.1,0,0.1c-0.2,0-0.4,0.1-0.7,0.1c0.1,0.1,0.2,0.1,0.3,0.2c-0.2,0.1-0.3,0.1-0.5,0.1c0,0,0,0.1,0,0.1   c0.3,0,0.6,0,1,0c0,0,0,0.1,0,0.1c-0.4,0-0.8,0-1.2,0.1c0.1,0.1,0.2,0.1,0.4,0.2c-0.3,0-0.5,0-0.6,0c0,0,0,0.1,0,0.1   c0.6,0.1,1.2,0.1,1.9,0.2c-0.6,0-1.2,0-1.7,0c0,0,0,0,0,0.1c0.1,0,0.2,0.1,0.3,0.1c0,0,0,0,0,0.1c-0.2,0-0.4,0.1-0.6,0.1   c0.3,0.1,0.5,0.1,0.7,0.2c-0.2,0-0.4,0-0.6,0.1c0.3,0.1,0.5,0.1,0.9,0.2c-0.4,0-0.6,0-0.9,0c0,0,0,0,0,0.1c0.1,0.1,0.3,0.1,0.5,0.2   c-0.2,0.1-0.3,0.1-0.4,0.1c0.2,0.1,0.4,0.2,0.7,0.3c-0.4,0-0.7,0-1-0.1c0,0,0,0,0,0.1c0.4,0.2,0.9,0.3,1.4,0.5   c-0.7-0.1-1.3-0.1-1.9-0.2c0,0,0,0.1,0,0.1c0.3,0.1,0.7,0.3,1,0.4c0,0.1,0,0.1,0,0.2c-0.3,0-0.6,0-0.9,0c0.1,0.1,0.2,0.1,0.3,0.2   c-0.2,0-0.3,0-0.4-0.1c0,0,0,0,0,0.1c0.3,0.1,0.5,0.2,0.8,0.3c0,0,0,0,0,0.1c-0.2,0-0.4-0.1-0.5-0.1c0,0,0,0,0,0.1   c0.3,0.1,0.6,0.3,1,0.5c-0.2,0-0.3,0-0.5,0c0.1,0.1,0.1,0.2,0.2,0.4c-0.4-0.1-0.7-0.3-1-0.4c0,0,0,0,0,0.1c0.4,0.2,0.7,0.5,1.1,0.7   c0,0,0,0.1,0,0.1c-0.2-0.1-0.4-0.2-0.6-0.3c0,0,0,0,0,0c0.1,0.1,0.3,0.3,0.4,0.4c0,0,0,0,0,0c-0.1-0.1-0.2-0.1-0.3-0.2   c0,0,0,0,0,0.1c0.2,0.2,0.4,0.4,0.6,0.5c0,0-0.1,0.1-0.1,0.1c-0.1-0.1-0.2-0.1-0.4-0.2c0,0,0,0,0,0c0.1,0.2,0.3,0.3,0.4,0.5   c0,0,0,0,0,0.1c-0.2-0.2-0.5-0.4-0.6-0.5c0.1,0.4,0.2,0.9,0.3,1.4c-0.1-0.1-0.1-0.2-0.2-0.4c0,0-0.1,0.1-0.1,0.1   c0,0.1,0.1,0.2,0.1,0.2c-0.4,0.1-0.1,0.3,0,0.4c0.1,0.2,0.1,0.5,0.2,0.7c0,0-0.1,0-0.1,0c-0.1-0.2-0.2-0.4-0.4-0.6c0,0,0,0-0.1,0   c0.2,0.7,0.4,1.4,0.6,2.1c0,0-0.1,0-0.1,0c-0.1-0.3-0.2-0.6-0.3-0.8c0,0,0,0-0.1,0c0.1,0.2,0.1,0.4,0.2,0.6c0,0-0.1,0-0.1,0   c-0.1-0.1-0.1-0.3-0.3-0.5c0,0.2,0,0.4,0.1,0.5c0,0,0,0-0.1,0c-0.1-0.2-0.2-0.3-0.3-0.6c0,0.2,0,0.4,0.1,0.5c0,0,0,0-0.1,0   c-0.1-0.3-0.3-0.5-0.4-0.8c0,0,0,0-0.1,0c0.1,0.3,0.2,0.5,0.3,0.8c0,0,0,0-0.1,0c-0.1-0.2-0.2-0.4-0.4-0.7c0,0.2,0,0.3,0.1,0.5   c0,0-0.1,0-0.1,0c-0.2-0.3-0.3-0.7-0.5-1c0,0,0,0-0.1,0c0.1,0.3,0.2,0.6,0.3,0.8c0,0-0.1,0-0.1,0c-0.1-0.2-0.3-0.5-0.4-0.8   c0,0.2,0,0.3,0.1,0.5c-0.3-0.3-0.6-0.5-0.8-0.7c0,0.1,0,0.2,0,0.3c0,0,0,0-0.1,0c-0.1-0.3-0.2-0.6-0.3-0.8c0,0,0,0,0,0   c0,0.2,0,0.4,0.1,0.6c0,0,0,0-0.1,0c-0.1-0.3-0.2-0.5-0.4-0.9c0,0.2,0,0.4,0,0.6c0,0-0.1,0-0.1,0c-0.1-0.2-0.2-0.5-0.3-0.7   c-0.1,0.2-0.1,0.3-0.2,0.4c-0.1-0.2-0.2-0.4-0.3-0.6c-0.1,0.2-0.1,0.3-0.2,0.4c-0.2-0.3-0.3-0.5-0.4-0.8c0,0.2,0,0.3-0.1,0.4   c-0.1-0.4-0.4-0.3-0.7-0.3c0-0.2-0.1-0.3-0.1-0.6c-0.1,0.6-0.2,0.1-0.3,0.1c-0.1,0-0.2-0.1-0.4-0.2c0,0-0.1-0.2-0.1-0.4   c-0.1,0.3-0.2,0.5-0.3,0.7c2.7,2,5.6,3.5,9,4C49.6,62.5,49.3,61.6,49,60.7z M40.3,48.3c0.7,0.5,3.2,0.6,3.2,0.6   c2.2-0.2,3,0.8,3,0.8c0.3,0.3,0.4,0.5,0.7,0.5c0.6-0.1,0.9-0.8,0.6-1.5c-0.4-1-1.2-1.4-2.2-1.7c-0.9-0.5-1.9-0.4-1.9-0.4   c-0.6,0.1-1.2,0.1-1.8,0.2c-0.2,0-0.5-0.1-0.7-0.2c-0.1,0-0.8-0.5-0.8-0.5c-0.8-0.1-1.5,0-2.4,0.2c-0.9,0.2-1,1-1,1   c-0.1,0.8,0.8,1.1,0.8,1.1s0.1,0.2,1-0.3C39.4,47.8,40.3,48.3,40.3,48.3z M47.5,52.1c0-0.1-0.1-0.1-0.1-0.2c-0.1,0-0.3,0-0.4,0   c-0.7,0.2-1.5,0.3-2.2,0.5c-1,0.2-1.4-0.2-1.3-1.1c0-0.1,0-0.1,0-0.2c-0.5,0.3-0.5,1.3,0,1.7c0.6,0.5,1.4,0.5,2.1,0.2   c0.4-0.2,0.9-0.4,1.3-0.6C47.1,52.4,47.3,52.3,47.5,52.1z M38.7,55.7c0,0.2,0,0.3,0,0.3c0.1,0,0.3,0,0.4,0.1   c0.3,0.1,0.5,0.2,0.8,0.4c0,0,0-0.1,0.1-0.1c-0.9-0.7-1.8-1.4-2.7-2c-0.7-0.5-1.2-1-1.4-1.8c-0.1-0.4-0.3-0.8-0.5-1.4   c-0.4,1.5,1.1,3.9,2.3,4c0,0.1,0,0.2,0,0.4C38.1,55,38.2,56,38.7,55.7z M35.9,51.3c0.7,0.8,2.3,0.8,2.9,0.1   c0.1-0.1,0.1-0.3,0.1-0.4c0,0-0.1,0-0.1,0C38,51.8,37,51.9,35.9,51.3z M45.8,51.4c0.4,0.3,1,0.3,1.4,0   C46.8,51.4,46.3,51.4,45.8,51.4z"/><path
  d="M63.8,55.9c0-0.2,0-0.4,0.1-0.6c2.7,1.4,5.3,3,7.6,4.9c0,0,0.1-0.1,0.1-0.1c-0.5-0.5-1-1-1.5-1.4c-1.7-1.1-3.4-2.2-5.2-3.3   c-0.7-0.4-1.5-0.7-2.2-1c-0.2-0.1-0.4-0.1-0.4-0.1c0.1,0,0.3-0.1,0.5-0.2l0,0c0.4,0.2,0.9,0.3,1.3,0.5c0.9,0.4,1.9,0.8,2.8,1.2   c0.5,0.2,0.9,0.5,1.3,0.7c0-0.1,0.1-0.1,0.1-0.2c-0.9-0.5-1.8-1.1-2.7-1.6c-0.2-0.1-0.5-0.2-0.6-0.3c-1-1.1-2.4-1.1-3.6-1.4   C61.1,53.1,61,53,61,53c1.7,0.1,3.3,0.6,4.8,1.2c1.6,0.6,2.9,1.7,4.2,2.7c-0.8-1-1.8-1.7-2.8-2.4c-0.2-0.1-0.5-0.3-0.7-0.4   c-0.6-0.3-1.3-0.5-1.7-1.2c0.3,0,0.6,0.1,1.1,0.1c-0.2-0.1-0.3-0.2-0.4-0.3c0.4,0,0.7-0.1,1.1-0.1c-0.3-0.2-0.5-0.4-0.7-0.5   c0.5-0.3,0.9-0.6,1.3-0.9c0,0,0-0.1,0-0.1c-0.4,0-0.7,0.1-1.1,0.1c0,0,0,0,0-0.1c0.3,0,0.6-0.1,1-0.1c0,0,0-0.1,0-0.1   c-0.3,0-0.6,0-0.9,0c0.4-0.1,0.8-0.3,1.3-0.4c0-0.1,0-0.1,0-0.2c-0.4,0-0.8,0-1.2,0c0,0,0,0,0,0c0.4-0.1,0.8-0.1,1.2-0.2   c0.8-0.3,1.2-0.9,1.5-1.6c0,0,0-0.1,0-0.1c0.1-0.2,0.3-0.3,0.4-0.5c0.1-0.1,0-0.2,0.1-0.3c0.1-0.1,0.1-0.4,0.2-0.6   c-0.1,0-0.2,0-0.2,0c0.2-0.3,0.5-0.7,0.7-1.1c0,0,0,0-0.1-0.1c-0.3,0.2-0.6,0.4-1,0.7c0.1-0.2,0.1-0.2,0.1-0.3   c-0.3,0.1-0.6,0.1-0.9,0.2c0.8-0.2,1.4-0.6,1.8-1.3c0.1-0.2,0-0.5,0-0.7c0-0.1,0.1-0.2,0.1-0.3c0,0-0.1,0-0.1-0.1   c-0.1,0.1-0.3,0.3-0.4,0.4c0.1-0.2,0.3-0.5,0.5-0.8c-0.3,0.1-0.6,0.2-0.8,0.3c0.5-0.3,1-0.6,1-1.3c-0.5-0.3-0.8,0.3-1.3,0.2   c0.7-0.4,1.5-0.6,1.5-1.7c-0.2,0.1-0.3,0.2-0.4,0.2c0,0,0,0,0-0.1c0.1-0.1,0.2-0.2,0.3-0.4c-0.4,0.1-0.7,0.1-1,0.1   c1.6-0.6,1.2-0.7,1.2-1.9c-0.3,0.1-0.6,0.2-0.9,0.3c0,0,0-0.1,0-0.1c0.1-0.1,0.3-0.2,0.4-0.3c0.6-0.4,0.7-1.1,0.1-1.6   c-0.2-0.2-0.4-0.4-0.6-0.6c-0.2-0.2-0.5-0.5-0.7-0.5c-1.3-0.2-2.4-0.8-3.4-1.6c-0.4-0.3-0.9-0.5-1.4-0.8c-0.5-0.3-0.9-0.6-1.4-0.9   c-0.5,1.1-1.3,2-2.6,2.2c0.1,0.1,0.1,0.2,0.2,0.3c0,0-0.1,0-0.1,0c-0.2-0.3-0.6-0.1-0.8-0.2c-0.8-0.1-1.6-0.4-2.3-0.6   c-0.3-0.1-0.5-0.1-0.7,0c-0.1,0-0.2,0-0.3,0.1c-0.2,1.3,0.5,2.2,1.1,3.3c0,0-0.1,0-0.1,0.1c-0.4-0.6-0.8-1.2-1.1-1.9   c-0.3-0.6-0.4-1.3-0.7-2c0,0.4,0,0.8,0.1,1.2c-0.3-0.8-0.6-1.6-0.4-2.6c-0.2,0.3-0.4,0.7-0.5,1c-0.3-0.7,0.4-1.2,0.5-1.7   c-0.5-0.1-1-0.2-1.5-0.3c0-0.1,0-0.2,0-0.2c0.6,0.5,0.9-0.1,1.3-0.1c-0.2-0.1-0.5-0.3-0.8-0.4c0,0,0,0,0-0.1c0.1,0,0.2,0,0.3,0.1   c-0.3-0.2-0.5-0.5-0.8-0.7c0,0,0.1-0.1,0.1-0.1c0.4,0.3,0.8,0.6,1.2,0.9c0.5-1.1,0.9-2.1,1.3-3.1c0.1-0.1,0.3-0.2,0.4-0.3   c2.9-1.3,4.7,0,6.5,2c-0.5-0.4-1-0.7-1.6-1.1c-0.8-0.5-1.5-1-2.5-1.1c-0.9-0.1-1.7,0.2-2.4,0.9c0.6-0.1,1-0.3,1.5-0.4   c1.2-0.2,2.3,0.2,3.2,1.1c0.8,0.8,1.5,1.7,2.2,2.5c1,1.2,2,2.4,3.4,3.3c0.1,0,0.2,0.2,0.2,0.1c0.4-0.2,0.5,0.3,0.8,0.2   c-0.6-0.5-1.2-1-1.8-1.5c0,0,0,0,0-0.1c1,0.6,1.9,1.2,2.9,1.8c0,0,0,0,0.1,0c-0.1-0.2-0.3-0.3-0.4-0.5c-0.1-0.2-0.3-0.4-0.5-0.5   c0.5,0.4,0.9,0.9,1.4,1.3c0,0,0.1-0.1,0.1-0.1c-0.3-0.4-0.7-0.9-1-1.3c0,0,0.1,0,0.1-0.1c0.5,0.5,0.9,1,1.4,1.5c0-0.2,0-0.4,0-0.6   c-0.1-0.3-0.2-0.6-0.2-0.9c0.1,0.1,0.3,0.3,0.4,0.4c0,0,0.1,0,0.1,0c-0.1-0.6-0.3-1.2-0.4-1.7c0,0,0,0,0,0c0.1,0.4,0.3,0.8,0.4,1.2   c0,0,0.1,0,0.1,0c-0.1-0.7-0.3-1.4-0.3-2.2c0-1.1-0.6-1.8-1.1-2.6c-0.6-0.8-1.3-1.6-2-2.3c0,0-0.1-0.1-0.1-0.1c0,0,0.1-0.1,0.1-0.1   c0.6,0.5,1.1,1,1.7,1.5c-0.9-1.4-2.1-2.5-3.2-3.7c0.8,0.6,1.6,1.2,2.4,1.8c0,0,0.1-0.1,0.1-0.1c-0.7-1.1-1.7-1.9-2.9-2.5   c1.1,0.3,2,1,2.7,1.9c0.9,1.1,1.8,2.2,2.7,3.4c0.4,0.5,0.7,1,0.9,1.6c-0.4-0.4-0.9-0.8-1.3-1.1c1,1.4,1.9,2.9,1.8,4.8   c-0.2-0.4-0.5-0.7-0.7-1.1c0,0-0.1,0-0.1,0c0.4,1,0.7,2,1.1,3c-0.1,0-0.1,0.1-0.2,0.1c-0.2-0.4-0.4-0.8-0.6-1.2   c-0.1,0-0.1,0-0.2,0.1c0.4,1.3,0.8,2.6,1.2,3.9c0,0,0,0,0,0c-0.2-0.3-0.4-0.6-0.6-0.8c-0.2,3.5-0.5,7.1-0.6,10.8   c-0.1,2.6,0.4,5.2,1,7.8c0.5,2.1,1.4,4,2.9,5.6c0.1,0.1,0.2,0.3,0.3,0.5c0,0,0.1-0.1,0.1-0.1c-0.1-0.2-0.1-0.3-0.2-0.5   c0.3,0.4,0.6,0.7,1,1.2c-1.4-0.5-2.3-1.5-2.9-2.7c-1-2.1-1.7-4.2-1.9-6.5c-0.1-0.4-0.1-0.9-0.2-1.3c0,0,0,0-0.2-0.1   c0.1,1.1,0.2,2,0.4,3c0.3,1.7,0.6,3.4,1.5,5c0.6,1.1,1.5,2,2.5,2.6c0.8,0.5,0.8,0.6,0.5,1.4c0,0.1-0.1,0.3-0.1,0.4   c0.1-0.3,0.3-0.6,0.4-1c0.1-0.6,0.2-0.6,0.7-0.3c0.2,0.2,0.5,0.4,0.8,0.7c-0.1-0.4-0.1-0.7-0.2-1.1c0,0,0.1,0,0.1,0   c0.2,0.5,0.4,1.1,0.5,1.6c0,0,0,0,0.1,0c0-0.3,0-0.6,0-0.9c-0.1-1.6-0.9-2.8-2-3.9c-0.5-0.5-0.9-1-1.3-1.5c0.7,0.6,1.3,1.2,2,1.7   c0-0.1,0.1-0.2,0.1-0.3c0.1,0.2,0.2,0.3,0.3,0.5c0.1,0.2,0.3,0.4,0.5,0.6c1,1,1.1,2.3,1,3.6c0,0.4-0.1,0.8-0.2,1.2   c-0.1,0.4-0.4,0.7-0.7,1.1c0-0.6,0-1.2,0-1.9c0,0-0.1,0-0.1,0c0,0.2,0,0.4,0,0.8c-0.3-0.6-0.6-1.1-0.9-1.6   c-0.7,0.9-1.2,1.8-2.5,1.8c0.5-0.8,0.7-1.6,0.6-2.6C74.1,65,73,65,72,65.4c0.2,0.1,0.3,0.1,0.5,0.2c0.2,0.1,0.4,0.1,0.6,0.2   c0.4,0.1,0.4,0.3,0.1,0.5c-0.5,0.3-1.1,0.5-1.7,0.8c-0.2,0.1-0.3,0.1-0.5,0.1c0.4,0.7,1.2,1.1,2.7,1.4c-1.4,0.3-2.6-0.3-3.4-1.6   c-1-1.7-1.9-3.5-2.8-5.3c-1-2-2.5-3.6-4.4-5C63.3,56.4,63.6,56.2,63.8,55.9c0.5,0.3,0.9,0.6,1.4,1c0-0.1,0.1-0.1,0.1-0.2   C64.8,56.5,64.3,56.2,63.8,55.9z M58.5,31.6c0.3-0.1,0.5-0.1,0.7-0.2c0.3-0.2,0.5-0.4,0.4-0.8c-0.2-0.7-1.3-1-1.9-0.6   c-0.5,0.3-0.5,1.1,0,1.4C58,31.4,58.3,31.5,58.5,31.6z M73,66.1c-0.7-0.2-1.3-0.4-1.9-0.7c-0.5-0.2-0.9-0.1-1.4,0   c0.1,0.6,0.7,0.9,0.9,1.4c0,0.1,0.1,0.1,0.2,0.1C71.6,66.8,72.4,66.7,73,66.1z M68.5,63.2c0.9,1.9,0.6,1.8,2.7,1.6   c0.1,0,0.2,0,0.3,0c0.9-0.2,1.6-0.5,2.2-1.2c-0.9,0.3-1.6,1.1-2.7,0.9C70.1,64.4,69.1,64.1,68.5,63.2z M56.4,34   c-0.2-0.6-0.6-1.1-0.7-1.7c-0.1-0.6-0.1-1.2-0.1-1.9c-0.3,0.8-0.4,1.6-0.3,2.4C55.4,33.4,55.8,33.9,56.4,34z M59.9,34.4   c0.8-0.1,1.6-0.9,1.8-1.7c0.1-0.4,0-0.8-0.4-1.2C61.4,32.7,61,33.7,59.9,34.4z M70.8,32.3c-0.1,0-0.1,0-0.2,0.1   c0.2,0.5,0.5,1.1,0.7,1.6c0,0,0.1,0,0.1-0.1C71.6,33.2,71,32.8,70.8,32.3z M70,62.3c-0.7-0.4-1.3-0.8-2-1.3   C68.5,61.8,69.1,62.1,70,62.3z"/><path
  d="M82.9,54C82.9,54,82.9,54,82.9,54C82.9,54,82.9,54,82.9,54c0.1,0,0.3-0.1,0.4-0.2c0.8-1.2,1.2-2.5,1.4-3.9   c0.1-0.4,0.1-0.7,0.1-1c0,0.3,0,0.8,0,1.2c0,0.4-0.1,0.9-0.1,1.3c-0.1,0.5-0.2,0.9-0.3,1.4c0,0,0.1,0,0.1,0.1   c0.2-0.5,0.6-0.9,0.7-1.4c1.1-3.8,0.8-7.3-1.5-10.6c0-0.1-0.1-0.1-0.1-0.2c0,0,0-0.1,0-0.1c0.2,0.3,0.4,0.5,0.6,0.8   c0.2,0.3,0.4,0.6,0.6,0.8c-0.4-0.7-0.8-1.5-1.1-2.2c1.5,1.4,3.3,5.8,3,10.2c0.5-0.8,0.7-1.7,0.5-2.7c-0.2-1-0.5-2-0.8-3   c-0.4-1.2-0.8-2.4-1.3-3.6c-0.2-0.5-0.4-0.9-0.6-1.4c0.2,0.2,0.4,0.5,0.5,0.7c0.5,1.2,0.9,2.4,1.4,3.6c0.3,0.8,0.7,1.6,1,2.4   c0.2,0.4,0.2,0.9,0.3,1.3c0.4-1.4-0.5-2.7-0.5-4.1c0.4,1.2,0.8,2.4,1.3,3.6c0-0.1,0-0.1,0-0.2c0,0,0,0,0.1,0   c0.1,0.3,0.1,0.6,0.2,0.9c0.3-1.4-0.2-2.7-0.6-4c0.1,0.3,0.3,0.5,0.4,0.8c0.1,0.3,0.2,0.6,0.4,0.9c0.1,0.3,0.2,0.6,0.3,0.9   c0-1.3-0.5-2.4-0.9-3.6c0.2,0.4,0.4,0.9,0.6,1.3c0.2,0.4,0.3,0.9,0.5,1.3c0.1-0.5,0-1.2-0.5-2c-0.4-0.6-0.8-1.2-1.2-1.8   c0,0,0.1-0.1,0.1-0.1c0.6,0.7,1.2,1.5,1.8,2.2c-0.6-2.1-2.4-3.2-3.6-4.7c1.3,1.3,2.9,2.1,3.9,3.8c-0.3-0.9-0.8-1.8-1.5-2.5   c-0.3-0.3-0.6-0.6-0.9-0.8c-1-0.7-1.9-1.6-2.6-2.6c-1.6-2.1-3.7-3.8-5.8-5.4c-0.3-0.3-0.7-0.5-1-0.9c0.1,0.1,0.2,0.1,0.3,0.2   c2.7,1.8,5.2,3.9,7.1,6.7c0.5,0.8,1.3,1.2,2,1.7c1.2,0.8,2.3,1.5,3.4,2.3c0.3,0.2,0.5,0.5,0.7,0.8c-0.1-0.1-0.3-0.2-0.4-0.3   c0.5,0.9,1,1.7,1.1,2.8c-1-2.4-1.3-2.9-2.5-3.7c0.2,0.5,0.5,1.2,0.7,1.9c0.2,0.4,0.3,0.9,0.6,1.3c0.8,1.4,0.8,2.8,0.2,4.3   c-0.1,0.2-0.2,0.4-0.4,0.6c0.7-1.8,0.3-3.4-0.6-5c-0.1,0.8-0.1,1.4-0.2,2.1c-0.1,0.6-0.3,1.3-0.5,1.9c0.1-0.4,0.1-0.8,0.2-1.3   c-0.8,1.8-1.6,3.5-2.4,5.3c0,0,0,0-0.1,0c0.1-0.5,0.3-1,0.4-1.6c-2.2,2.9-5.2,4.8-7.8,7.1c-0.6,0.5-1.2,1.2-1.7,1.8   c-0.4,0.5-0.5,1-0.2,1.6c0.4,0.8,0.6,1.6,0.9,2.4c0.1,0.2,0.1,0.5,0.1,0.7c-0.7-1.4-1.4-2.9-2.1-4.3c-0.9-2-1.2-4.1-0.1-6.2   c0,0,0-0.1,0.1-0.1c0,0,0,0,0.1-0.1c-1.1,2.1-0.7,4.1,0,6.2c0,0,0,0,0,0c0-0.7,0.7-1.2,0.9-1.8c0.1-0.3,0.3-0.5,0.4-0.8   c0.5-1.2,1-2.4,1.5-3.6c-0.5,1.4-1,2.9-1.5,4.3c0.1-0.1,0.2-0.2,0.3-0.3c0.1-0.1,0.2-0.3,0.3-0.4c1.4-1.8,2-3.9,2.1-6.2   c0-1.5,0.1-3,0-4.5c0-0.7-0.2-1.4-0.3-2.1c0.1,0.3,0.3,0.7,0.3,1.1c0.1,2.5,0.3,5-0.1,7.5c-0.1,0.7-0.3,1.3-0.4,2.1   c0.3-0.7,0.6-1.3,0.9-2c0.9-2,0.9-4.2,0.7-6.4c-0.1-1.6-0.9-2.8-1.6-4.1c-0.5-0.8-0.9-1.7-1.3-2.5c0,0,0.1,0,0.1-0.1   c0.9,1.6,1.8,3.2,2.6,4.9c0.5,0.9,0.4,1.9,0.4,2.9c0,0.1,0,0.2,0,0.3c0.5,1.5,0,2.9-0.3,4.3c-0.3,1-0.8,1.9-1.2,2.8   c-0.1,0.3-0.2,0.5-0.3,0.8c0.1-0.1,0.1-0.1,0.2-0.2c0.7-1.3,1.3-2.5,2-3.8c0.4-0.8,0.5-1.8,0.5-2.7c0-1,0.2-1.9,0.1-2.9   c0-1.2-0.2-2.5-0.3-3.7c0-0.1,0-0.2,0.1-0.3c0.1,0.8,0.3,1.5,0.4,2.3c0.3,2.3,0.7,4.6,0,6.9c-0.3,0.9-0.6,1.8-0.9,2.7   C83,53.9,82.9,53.9,82.9,54c0-0.2,0.1-0.4,0.2-0.6c0.2-0.4,0.3-0.9,0.5-1.3c0,0-0.1,0-0.1,0c-0.3,0.8-0.7,1.5-1,2.3c0,0,0,0,0.1,0   C82.6,54.3,82.8,54.1,82.9,54z M85.7,50.7c0.7-2.2,1.1-4.5-0.1-6.8c0.1,1.1,0.3,2.3,0.4,3.4C85.9,48.5,85.7,49.7,85.7,50.7z M84,46   c0,0-0.1,0-0.1,0c0,0.9-0.1,1.8-0.1,2.7c0,0.9,0,1.8,0,2.4C84.2,49.7,84.2,47.8,84,46z"/><path
  d="M37.6,7.7c0.5-0.4,1.1-0.8,1.7-1.2c-0.5,0.1-0.8,0.1-1.2,0.3c-0.8,0.3-1.7,0.5-2.5,0.9c-0.8,0.3-1.5,0.8-2.3,1.1   c0.4-0.1,0.8-0.2,1.1-0.3c0,0,0,0.1,0,0.1c-0.3,0.1-0.6,0.2-0.8,0.2c-1,0.1-2,0.2-3,0.3c-1,0.1-1.9-0.3-2.7-1   c-0.7-0.6-1.5-1.2-2.3-1.7c-0.4-0.2-0.8-0.4-1.1-0.5c0.7-0.1,1.3,0.1,1.9,0.5C26.9,6.6,27.4,7,28,7.4c1.2,0.9,2.5,1.1,4,0.7   c2.3-0.8,4.6-1.6,6.9-2.3c3.9-1.2,7.8-2.1,11.9-1.9c2,0.1,3.9,0.5,5.7,1.4c0.1,0.1,0.2,0.1,0.4,0.2c-2.5-0.6-4.9-1.3-7.5-1.2   c-2.6,0.1-5.1,0.5-7.3,2c0,0,0-0.1-0.1-0.1c0.4-0.3,0.8-0.5,1.2-0.8c0,0,0-0.1-0.1-0.1C41.7,6,40.4,6.6,39,7.3c0,0,0-0.1,0-0.1   c0.8-0.4,1.6-0.9,2.4-1.3c0,0,0,0,0,0C40.9,6,40.4,6.1,40,6.3c-0.4,0.2-0.8,0.4-1.2,0.7C38.4,7.2,38,7.5,37.6,7.7   C37.6,7.7,37.6,7.7,37.6,7.7z"/><path
  d="M53.2,71.6c0.1,0.2,0.1,0.5,0.2,0.7c0.4,1.1,1,2.1,1.8,2.9c0.5,0.4,0.9,0.9,1.5,1.3c0.4,0.3,0.8,0.5,1.3,0.7   c0,0,0,0.1,0,0.2c0,0,0,0,0,0c-0.2,0-0.4,0-0.5-0.1c-0.7-0.5-1.3-1-1.9-1.5c-0.1-0.1-0.2-0.3-0.4-0.4c0.9,1.5,3.2,3.3,6.4,3.2   c-1.4,0.5-2.6,0-3.9-0.6c0,0.1,0,0.2,0,0.2c0.5,2.4,1.5,4.6,3.5,6.1c0.9,0.7,1.9,1.4,2.9,2.1c0.6,0.4,1.2,0.9,1.8,1.4   c0.4,0.4,0.7,0.9,0.9,1.3c-0.8-1.2-2.1-1.9-3.2-2.7c-0.9-0.6-1.7-1.2-2.5-1.8c-1.8-1.3-2.8-3.2-3.3-5.4c0-0.1,0-0.2,0-0.2   c-0.1-0.7-0.4-1.3-1-1.8c-1.6-1.1-2.5-2.8-3.4-4.5c-0.3-0.7-0.4-1.5-0.5-2.1c-0.5,1.6,0.3,4,2.2,6.5c-0.3-0.4-0.7-0.7-1-1.1   c-0.3-0.4-0.6-0.9-0.8-1.4c-0.2-0.4-0.4-0.9-0.6-1.4c0,0.5,0.1,0.9,0.1,1.4c0,0,0,0,0,0c-0.1-0.4-0.3-0.8-0.4-1.3   c-0.3-1.7-0.1-3.5,0.3-5.2c0-0.2,0.1-0.3,0.2-0.4c0.5-0.5,0.8-1.1,1.7-1.3c0.2,0.7,0.4,1.4,0.6,2.2c0.1,0.7,0.2,1.5,0.2,2.2   c-0.2-0.9-0.4-1.8-0.6-2.7c0,0,0,0-0.1,0c-0.1,0.4-0.2,0.8-0.2,1.2c-0.1,0.4-0.1,0.9-0.1,1.3c0,0.3,0.1,0.7,0.2,1   c0.1,0.4,0.2,0.8,0.4,1.2c0,0-0.1,0-0.1,0c-0.2-0.5-0.4-1-0.6-1.5c0,1.3,0.9,2.2,1.9,3.2c-0.8-0.4-1.7-1.5-2-2.5   c-0.3-1.1-0.1-2.1,0-3.2c-0.1,0.2-0.2,0.4-0.2,0.7c-0.1,0.2-0.1,0.5-0.2,0.7c0-0.4,0-0.9,0.1-1.2c-0.2,0.4-0.4,0.9-0.5,1.3   c0,0.6,0.1,1.2,0.2,1.9c0.1,0,0.1,0,0.2,0C53.2,72,53.2,71.8,53.2,71.6z"/><path
  d="M62,60.4c-0.1-0.2-0.2-0.3-0.3-0.4c0.1-0.5,0.1-0.8,0.2-1.2c0-0.3,0-0.7,0-1c0.1-0.7,0.7-0.9,1.2-0.5   c1.4,1,2.5,2.3,3.4,3.8c1.2,2,2.4,4.1,3.5,6.1c0.1,0.2,0.3,0.4,0.3,0.7c0.2,0.6,0.7,0.8,1.3,0.8c0.6,0.1,1.3,0.2,1.9,0.3   c-0.3,0.1-0.5,0.1-0.8,0.2c-0.3,0-0.6,0-0.9-0.1c-0.3-0.1-0.6-0.1-0.9-0.2c0.1,0.5,0.2,0.7,0.7,0.7c0.3,0,0.6,0,0.9,0   c0.3,0,0.5,0,0.8-0.1c0,0,0,0.1,0,0.1c-0.7,0.1-1.3,0.2-2,0.4c0.1,0.3,0.1,0.3,0.5,0.3c0.6-0.1,1.2-0.2,1.8-0.3c0,0.1,0,0.1,0,0.2   c-0.6,0.2-1.3,0.5-2,0.7c0.5,0.4,1.1,0.7,1.5,1c-3.1-0.1-5.9-1.2-7.5-4.2c0,0-0.1,0.1-0.1,0.1c0.4,0.3,0.8,0.6,1.1,0.9   c1.5,1.9,2.8,2.6,5.3,2.7c-0.6-0.3-1.1-0.6-1.8-1c0.4,0.1,0.7,0.1,1,0.1c-0.1-0.5-0.3-0.8-0.8-0.9c-2.7-0.6-4.4-2.4-5.7-4.8   c-0.5-0.9-1-1.6-1.6-2.5l0,0c0.3,0.2,0.5,0.4,0.8,0.6c-0.3-0.5-0.5-0.9-0.8-1.3c-0.2-0.4-0.5-0.7-0.7-1.1c0-0.1,0-0.2,0-0.3   c0.3,0.4,0.6,0.8,0.9,1.3c0.4,0.6,0.8,1.1,1.1,1.7c0.5,1.4,1.2,2.7,2.3,3.8c0.1,0.1,0.2,0.2,0.3,0.3c0.1,0.1,0.2,0.3,0.3,0.4   c1,0.9,2.3,1.3,3.6,1.7c-0.2-0.5-0.4-0.8-1-0.9c-0.9-0.1-1.7-0.4-2.4-1c0.9,0.3,1.8,0.6,2.6,0.9c0-0.1,0.1-0.1,0.1-0.2   c-0.4-0.6-0.8-1.2-1.2-1.7c0,0,0.1,0,0.2,0c0,0,0-0.1,0-0.1c-0.1-0.1-0.3-0.2-0.4-0.3c0,0,0.1,0,0.2-0.1c-0.2-0.8-0.9-0.7-1.6-0.9   c0.3,0,0.6,0,0.9,0c0,0,0,0,0-0.1c-0.4-0.2-0.9-0.3-1.3-0.5c0.2,0,0.4-0.1,0.6-0.1c0,0,0,0,0-0.1c-0.3-0.1-0.6-0.1-0.8-0.2   c0,0,0,0,0,0c0.3,0,0.7,0,1,0.1c0,0,0-0.1,0-0.1c-0.4-0.1-0.8-0.2-1.2-0.2c0,0,0,0,0-0.1c0.3,0,0.7,0,1,0.1c0,0,0-0.1,0-0.1   c-0.5-0.1-0.9-0.1-1.4-0.2c0,0,0-0.1,0-0.1c0.4,0,0.8,0.1,1.2,0.1c0,0,0-0.1,0-0.1c-0.6-0.3-1.3-0.7-1.9-1c0.5,0.1,1,0.2,1.5,0.4   c-0.2-0.3-0.2-0.5-0.4-0.6c-0.5-0.2-1-0.3-1.4-0.5c0,0,0,0,0-0.1c0.4,0.1,0.9,0.2,1.4,0.3c-0.7-1-1.1-2-2-2.7c0-0.1,0-0.1-0.1-0.2   c-0.4-0.6-1-1.1-1.7-1.5c0.2,0.6,0.9,0.8,1.2,1.3c-0.1,0.1-0.2,0.3-0.2,0.3c-0.2-0.2-0.3-0.4-0.5-0.7c-0.2,0.1-0.3,0.3-0.5,0.4   c0.1-0.1,0.1-0.2,0.2-0.3c-0.1-0.1-0.3-0.2-0.4-0.2c-0.1,0.2-0.2,0.4-0.3,0.6c0,0.1,0.1,0.2,0.1,0.3c-0.3,0.2-0.4,0.5-0.3,0.9   c-0.1,0-0.3-0.1-0.4-0.1C62.2,60.3,62.1,60.4,62,60.4L62,60.4z"/><path
  d="M15.2,19.1c2.1-0.9,3.8-2.4,5.6-3.7c0,0.1,0.1,0.1,0.1,0.2c-1.5,1.1-3,2.2-4.6,3.2c-1.2,0.7-2.3,1.5-3.2,2.6   c1.1-0.4,2.2-0.8,3.4-1.3c0,0,0,0,0,0.1c-0.2,0.1-0.4,0.3-0.6,0.4c-0.8,0.3-1.5,0.7-2.3,0.9c-0.6,0.2-1.1,0.4-1.5,0.8   c-0.7,0.7-1.5,1.4-2.2,2.2c0.4-0.1,0.7-0.3,1.1-0.4c1.3-0.5,2.7-0.8,4-1.4c0.9-0.4,1.7-1,2.5-1.5c0.1,0,0.1-0.1,0.2-0.1   c-0.6,0.7-1.2,1.2-2.1,1.6c-1.1,0.4-2.2,0.8-3.3,1.2c0,0-0.1,0-0.1,0c-1.6,0.5-3,1.2-4.3,2.3c-1.2,1-2.4,1.9-3.7,2.8   c0.3-0.4,0.6-0.8,1-1.1c0.7-0.6,1.4-1.2,2.1-1.8c1.4-1.3,2.9-2.6,4.3-3.9c0,0,0.1-0.1,0.1-0.2c-0.8,0-1.5,0-2.2,0c0,0,0-0.1,0-0.1   c2-0.1,3.7-0.6,4.8-2.4c-0.2,0.1-0.4,0.2-0.7,0.3c-0.3,0.1-0.5,0.2-0.8,0.2c0.1-0.1,0.2-0.1,0.3-0.2c1.1-0.9,2.2-1.7,3.3-2.6   c1.2-1,2.5-1.8,4-2.4C18.4,16.2,16.6,17.4,15.2,19.1z"/><path
  d="M79.1,19.2c0.3,0.1,0.7,0.3,1,0.3c0.6,0.1,1.2,0,1.8,0.1c-2.4,0.4-4.8,0.1-7.2,0.1c1,0.3,2,0.7,3,1   c0.9,0.3,1.7,0.9,2.8,0.7c0,0.1,0,0.1,0,0.2c-1.2,0.1-2.3,0.3-3.4,0.4c0.9,0.3,2-0.2,2.9,0.4c0.5,0.3,1.1,0.7,1.6,1   c-1.1-0.3-2.1-1.1-3.3-1c0,0,0,0.1-0.1,0.1c0.9,0.4,1.7,0.9,2.6,1.3c0.9,0.5,1.8,1,2.8,1.5c0.2,0.1,0.3,0.2,0.4,0.3   c-1.2-0.6-2.5-1.2-3.8-1.8c0,0-0.1,0.1-0.1,0.1c1.4,1.1,2.7,2.2,3.5,3.8c-0.2-0.2-0.4-0.4-0.7-0.6c-1.1-1-2.2-1.9-3.3-2.9   c-1.6-1.4-3.4-2.5-5.6-2.7c-0.3,0-0.5-0.2-0.8-0.3c1.8,0.3,3.6,0.7,5.5,0.4c0,0,0-0.1,0-0.1c-1.9-0.7-3.8-1.4-5.5-2.1   c1.8,0,3.7,0,5.6,0c0,0,0-0.1,0-0.1c-2.2-0.2-4.3-0.3-6.5-0.5C74.6,18.8,76.8,18.7,79.1,19.2L79.1,19.2z M78.3,22.9   C78.2,23,78.2,23,78.3,22.9c0.5,0.5,1.1,0.9,1.6,1.3c0,0,0.1-0.1,0.1-0.1C79.4,23.7,78.8,23.3,78.3,22.9z"/><path
  d="M64.3,11.6c0.7,0.5,1.4,1,2.1,1.4c0.8,0.4,1.6,0.4,2.5,0.2c-1.7,0-2.9-0.7-3.9-1.9C64.2,10.2,63,9.5,61.7,9   c0.2,0,0.3,0,0.5,0.1c0.2,0,0.4,0.1,0.6,0.2c0.2,0.1,0.4,0.1,0.5,0.2c-0.5-0.7-3.2-2.1-5.5-2.8c-2-0.6-4-1.4-6.1-1.1   c1.8-0.3,3.6-0.2,5.4,0.4c1.7,0.5,3.4,1,4.8,2c0.9,0.6,1.7,1.3,2.6,2.1c0.6,0.5,1.1,1.1,1.7,1.7c0.6,0.7,1.5,1,2.4,1.1   c2,0.3,3.4-0.6,4.5-2.1c0.1-0.2,0.3-0.3,0.4-0.5c-0.7,1.7-2.1,2.8-3.8,3.3C67.4,14.2,66.3,13.6,64.3,11.6z"/><path
  d="M79.1,19.2C79,19.1,78.9,19,78.8,19c-1.1-0.2-2.2-0.3-3.3-0.5c0,0-0.1,0-0.1,0c-1.6-0.1-3.3-0.1-4.9,0.3   c-0.1,0-0.2,0-0.3-0.1c1.9-0.5,3.9-1,5.8-1.5C74,17,72,17.2,69.9,17.5c2.4-1,4.6-2.3,7.2-2.6c0,0,0-0.1,0-0.1   c-1.9,0.1-3.8,0.3-5.7,0.4c1.7-0.8,3.1-1.9,4.4-3.2c0,0,0.1,0.1,0.1,0.1c-0.4,0.5-0.7,0.9-1.1,1.4c-0.4,0.4-0.9,0.8-1.3,1.2   c1.5-0.2,3-0.4,4.4,0.1C76,15.5,74,16.2,72,17c0,0,0,0.1,0,0.1c1.8-0.3,3.5-0.4,5.4-0.1c-0.8,0.3-1.5,0.6-2.2,0.8   c1.9,0.5,3.8,1,5.6,1.5c0,0,0,0.1,0,0.1C80.3,19.3,79.7,19.2,79.1,19.2C79.1,19.2,79.1,19.2,79.1,19.2z M76,18.3   c-0.8-0.4-1.7-0.2-2.5,0C74.3,18.3,75.2,18.3,76,18.3z"/><path
  d="M21.7,65.1c1.4-0.2,2.3-1.1,2.9-2.3c0.4-0.8,0.8-1.6,1.3-2.4c0.2-0.4,0.5-0.7,0.8-1c0.1,0.1,0.1,0.1,0.2,0.2   c0,0.1-0.1,0.2-0.2,0.5c0.4-0.2,0.7-0.3,1-0.4c-1.2,1.7-2.6,3.3-3.2,5.4c0.3-0.5,0.7-1,1-1.6c0.8-1.6,1.9-2.9,3.2-4.1   c0.1-0.1,0.2-0.2,0.3-0.2c0,0,0.1,0,0.2,0c-1.6,1.4-2.3,3.3-3.4,4.9c-0.9,1.3-2.2,2.2-3.4,3.2c-0.4,0.4-0.8,0.8-1.2,1.2   c-0.1,0.1-0.2,0.3-0.3,0.4c-0.3,0.3-0.6,0.7-1,1c0.1-0.2,0.1-0.3,0.2-0.5c0.5-1.1,1.4-1.9,2.2-2.7c0.5-0.5,1-1.1,1.4-1.6   C23,65,22.4,65.1,21.7,65.1L21.7,65.1z"/><path
  d="M21.9,60.3c-0.3,0.3-0.6,0.7-0.9,1c0,0-0.1-0.1-0.1-0.1c1-2.1,2.8-3.4,4.8-4.5c-0.1,0.2-0.2,0.4-0.4,0.6   c0,0,0.1,0.1,0.1,0.1c0.2-0.1,0.3-0.1,0.6-0.2c-0.2,0.2-0.3,0.5-0.5,0.7c0,0,0.1,0.1,0.1,0.1c0.2,0,0.3-0.1,0.6-0.2   c-0.3,0.4-0.6,0.7-0.9,0.9c-1.4,1-2.5,2.1-3.4,3.6c0,0.1,0,0.1-0.1,0.2c0,0-0.1-0.1-0.1-0.1c0-0.2,0-0.4,0.1-0.6   c-0.6,0.5-1,1.5-1.5,3.4C20.1,63.2,21.2,61.9,21.9,60.3z"/><path
  d="M18.4,61.8c0.6-0.8,1.2-1.7,1.7-2.5c0.1-0.1,0.2-0.2,0.2-0.3c0.2-0.4,0.7-0.7,0.4-1.3c-0.2-0.4,0.2-0.6,0.4-0.9   c-0.1,0-0.3-0.1-0.4-0.1c1.1-1.7,2.8-2.3,4.7-2.6c-0.4,0.2-0.7,0.4-1.1,0.6c0.2,0.1,0.4,0.1,0.6,0.2c-0.3,0.3-1.1,0.3-0.5,1   c-0.7,0.6-1.4,1.1-2.1,1.7c-1.3,1.1-2.5,2.3-3.5,3.8C18.7,61.5,18.5,61.7,18.4,61.8C18.4,61.8,18.4,61.8,18.4,61.8z"/><path
  d="M64.3,70.4c-0.3,0.9-0.1,1.9,0.7,2.5c0.7,0.6,1.5,1,2.4,1c0.2,0,0.4,0.1,0.6,0.1c1.2,0.3,2.3,0,3.3-0.8   c-0.5-0.2-1-0.4-1.4-0.5c0,0,0-0.1,0-0.1c0.3,0.1,0.6,0.1,0.9,0.2c0,0,0-0.1,0.1-0.1c-0.1-0.1-0.3-0.2-0.4-0.3   c-0.2-0.1-0.5-0.3-0.7-0.4c1,0,2,0.2,2.8,1c0.9,0.9,1.7,1.8,2.6,2.7c0.2,0.2,0.3,0.5,0.4,0.6c-1.1-0.8-2.2-1.7-3.3-2.6   c-0.3-0.3-0.7-0.3-1,0c-1.2,1-2.7,1-4.1,1c-1.6,0-3.1-1.8-3.1-3.3c0-0.3,0.1-0.6,0.2-0.9C64.2,70.4,64.2,70.4,64.3,70.4z"/><path
  d="M57.8,68.5c0.4,1.2,0.7,2.4,1.1,3.8c-1-1.9-1.1-4.2-2.7-5.7c-0.2,0.3,0,1.5,0.8,3.2c0.4,1,1.1,2,1.5,2.8   c-1.4-0.9-2.7-4.1-2.7-6.9c0.5-0.3,1-0.6,1.6-1c0.1,0.3,0.3,0.6,0.4,1c0,0.1,0,0.2-0.1,0.3c-0.5,0.2-0.3,0.6-0.1,0.9   c0.8,1.3,1.7,2.5,2.6,3.8c0.1,0.2,0.2,0.3,0.4,0.4c0,0-0.1,0.1-0.1,0.1c-0.3-0.3-0.6-0.5-0.8-0.8c-0.3-0.3-0.6-0.6-0.8-0.9   c-0.3-0.3-0.5-0.6-0.8-1C57.9,68.4,57.9,68.5,57.8,68.5z"/><path
  d="M89.2,35.4c0.3,0.4,0.6,0.8,1,1.2c0,0,0,0.1,0,0.1c-0.5-0.4-1.1-0.7-1.6-1.2c-0.7-0.5-1.4-1.1-2.1-1.7   c-0.1,0.1-0.1,0.1-0.2,0.2c0.5,0.4,1,0.9,1.6,1.3c0.6,0.5,1.1,1,1.6,1.7c0.5,0.6,1.1,1.2,1.7,1.7c0.2,0.2,0.4,0.3,0.6,0.4   c0,0-0.1,0.1-0.1,0.1c-0.7-0.4-1.4-0.8-2-1.2c0.5,1,1.4,1.7,2.4,2.4c-0.6-0.1-2-1.1-2.4-1.6c-0.9-1.2-1.8-2.4-2.7-3.7   c-1.2-1.6-2.9-2.6-4.5-3.7c-0.3-0.2-0.5-0.3-0.7-0.6c0.1,0,0.2,0.1,0.3,0.1c1.8,1,3.6,2,5.4,3.1c0.6,0.3,1,0.8,1.6,1.2   C89,35.3,89.1,35.3,89.2,35.4L89.2,35.4z M89.1,37.4C89.2,37.3,89.2,37.3,89.1,37.4c-0.3-0.5-0.6-0.9-1-1.4c0,0-0.1,0.1-0.1,0.1   C88.4,36.5,88.8,36.9,89.1,37.4z"/><path
  d="M21.8,65.1c0-0.1,0-0.2,0-0.3c0.5-0.6,1-1.3,1.4-1.9c0.1-0.2,0.2-0.5,0.3-0.7c0,0-0.1,0-0.1-0.1c-0.5,0.6-1.1,1.2-1.6,1.9   c0-0.1,0-0.2,0-0.2c0.4-0.8,0.8-1.6,1.2-2.3c0.2-0.3,0.5-0.6,0.7-0.9c0.8-0.9,1.8-1.6,2.8-2.2c-0.7,1.4-1.5,2.8-2.2,4.3   c-0.4,1-1.1,1.7-2.1,2.1C22,64.9,21.9,65,21.8,65.1C21.7,65.1,21.8,65.1,21.8,65.1z M25.1,59.7c-0.8,0.9-0.9,2-1.3,3.1   c0,0,0.1,0,0.1,0C24.3,61.8,24.7,60.7,25.1,59.7z"/><path
  d="M16.8,14.7c1.3-1.4,3.1-1.9,4.7-2.8c-1-0.3-2-0.2-3,0.1c1-0.7,2.1-0.7,3.2-0.4c-0.5-0.2-1-0.5-1.5-0.7   c2.4,0.9,4.9,1.6,7.4,2.3c0,0,0,0.1,0,0.1c-0.9-0.2-1.8-0.4-2.7-0.8c-1.7-0.8-3.3-0.3-4.8,0.5c0,0-0.1,0.1-0.2,0.2   c1.1-0.3,2-0.6,3-0.3C20,13.2,18,14.9,16,16.4c0.9-1.2,2.3-2,3.4-3.1c-0.4,0.2-0.9,0.4-1.3,0.7C17.6,14.2,17.2,14.5,16.8,14.7z"/><path
  d="M59.1,65.7c-0.1-0.1-0.2-0.1-0.4-0.2c-0.1,0.1-0.1,0.2-0.2,0.3c-0.1-0.1-0.1-0.2-0.1-0.2c-0.7,0.2-0.6-0.5-0.8-0.9   c0-0.1,0-0.2,0.1-0.3c0.9-0.6,1.3-1.5,1.9-2.3c0-0.1,0.1-0.1,0.2-0.2c1.4,1.9,2.9,3.7,4.3,5.6c0,0-0.1,0.1-0.1,0.1   c-0.9-1.2-1.8-2.3-2.7-3.5c-0.1-0.2-0.3-0.4-0.4-0.5c0,0-0.1,0.1-0.2,0.1c-0.1-0.1-0.2-0.2-0.2-0.3c-0.3,0.2-0.6,0.3-0.9,0.5   c0.1,0.2,0.2,0.5,0.3,0.7c-0.4,0.3-0.4-0.4-0.6-0.4c-0.2,0.1-0.2,0.1-0.3,0.2c0,0.2,0,0.4,0,0.6C59,65.3,59.1,65.5,59.1,65.7z"/><path
  d="M86.5,32.3c-1.4-1.2-2.7-2.4-4.1-3.7c0,0,0,0,0,0c0.1,0,0.2,0.1,0.4,0.2c-0.5-1.1-1.2-1.9-2.1-2.5c-0.9-0.5-1.8-1-2.6-1.6   c0.7,0.3,1.4,0.7,2.1,1c0.7,0.4,1.4,0.8,2.1,1.3c0.7,0.5,1.3,1,1.8,1.5c0.5,0.6,1,1.3,1.4,1.9c0,0-0.1,0.1-0.1,0.1   c-0.7-0.8-1.3-1.5-2-2.3c-0.1,0-0.1,0.1-0.2,0.1c0.3,0.4,0.7,0.9,1,1.3c0.4,0.4,0.7,0.9,1.2,1.3c0.4,0.4,0.9,0.8,1.3,1.1   C86.6,32.1,86.6,32.2,86.5,32.3z"/><path
  d="M55.6,24.1c0-0.1-0.1-0.1-0.1-0.3c-0.1,0.2-0.1,0.3-0.2,0.5c0.1-1.6,1.2-2.7,2.3-2.3c-0.3,0.3-0.6,0.7-0.9,1.1   c0.5-0.3,0.9-0.5,1.3-0.7c0,0,0.1,0.1,0.1,0.1C58,22.8,58,23,57.9,23.1c-0.2,0.3-0.4,0.6-0.6,0.8c-0.7,0.7-1.3,1.5-1.5,2.5   c0,0.1-0.1,0.1-0.2,0.2c-0.1-0.5,0-1,0.2-1.5c0.1-0.5,0.6-0.9,0.3-1.5C55.8,23.9,55.7,24,55.6,24.1z"/><path
  d="M73.6,34c0.1,1,0.2,2,0.4,3c0.5,1.8,0.1,3.5,0.1,5.2c0,0.6,0.1,1.3,0.2,1.9c0,0.3,0.1,0.6,0.2,1c-0.2-0.6-0.3-1.1-0.5-1.7   c-0.1,0-0.1,0-0.2,0c-0.1,2.4-0.2,4.9-0.3,7.3c0-0.1,0-0.3,0-0.4c-0.3-2.9,0.2-5.7,0.3-8.6c0.1-2.2,0-4.3,0-6.5   c0-0.4-0.2-0.7-0.2-1.1C73.5,34.1,73.5,34,73.6,34C73.6,33.9,73.6,34,73.6,34z"/><path
  d="M39.2,44.6c-0.7-0.3-1.3-0.6-2.1-0.9c0.5-0.1,0.9-0.1,1.3-0.2c0,0,0-0.1,0-0.1c0.7,0.3,1.5,0.5,2.3,0.8   c-0.1-0.3-0.2-0.6-0.4-0.8c0.4,0.4,0.7,1,0.7,1.7c-0.5,0-0.9-0.1-1.4-0.1c-0.5,0-1,0-1.5,0.1c-0.5,0.1-0.9,0.2-1.4,0.3   c0,0,0-0.1,0-0.1c0.1,0,0.2,0,0.3,0c0,0,0-0.1,0-0.1c-0.4-0.2-0.7-0.4-1.1-0.6c0,0,0-0.1,0-0.1c0.4,0.2,0.8,0.4,1.2,0.6   c0,0,0-0.1,0.1-0.1c-0.3-0.2-0.6-0.3-1-0.5c0.5-0.3,0.6-0.4,1.1-0.1C37.9,44.6,38.5,44.8,39.2,44.6z"/><path
  d="M24.9,79.5c-0.7,0.7-1.5,1.3-2.4,1.8c-0.9,0.5-1.9,1-2.8,1.7c-1.5,1.1-2.3,2.7-2.7,4.7c0.2-0.2,0.3-0.2,0.4-0.4   c-0.2,0.5-0.4,0.9-0.6,1.3c0,0-0.1,0-0.1,0c0.1-0.7,0.1-1.3,0.2-2c0.5-2,1.6-3.7,3.6-4.6C22,81.3,23.6,80.7,24.9,79.5z"/><path
  d="M64.4,26.4c-1.2-1.1-2.5-1.8-4.2-2c-1.8-0.2-2.9,0.9-4,2.2c0.2-1.8,1.5-2.9,3.3-3c-0.3,0.1-0.6,0.2-0.8,0.3   C61,23.9,63,24.5,64.4,26.4z"/><path
  d="M80.8,46.7c0.3,1.5-0.2,2.8-0.7,4.1c-0.8,1.9-1.4,3.8-2,5.8c-0.1,0.4-0.3,0.7-0.5,1c0.2-0.7,0.4-1.5,0.6-2.3   c-0.7,1-0.7,2-0.9,3c-0.2-0.8-0.2-1.4,0.1-2.1c0.8-1.7,1.7-3.5,2.4-5.2C80.4,49.6,80.9,48.2,80.8,46.7z"/><path
  d="M18.1,23.2c-0.1,0.1-0.2,0.1-0.3,0.2l0,0c0.5-1,1-2.1,1.6-3.1c1.6-2.4,3.8-3.5,6.7-3.3c0.2,0,0.5,0.1,0.7,0.3   c-0.2,0-0.3,0-0.5,0c-3.5-0.2-5.9,1.6-7.5,4.6C18.6,22.3,18.3,22.8,18.1,23.2C18.1,23.2,18.1,23.2,18.1,23.2z"/><path
  d="M20.7,53.1c0.2-0.5,0.3-1,0.5-1.5c0.1-0.1,0.2-0.3,0.4-0.3c1.3-0.4,2.6-0.9,3.9-1.3c0.1,0,0.3,0.1,0.5,0.1   c-1.1,0.4-2,0.8-2.9,1.2C22.3,51.9,21.6,52.6,20.7,53.1z"/><path
  d="M64,79c0.1,0.2,0.3,0.4,0.4,0.6c0.9,1.5,2.1,2.7,3.4,3.9c1.7,1.6,3,3.5,3.5,5.9c0.1,0.6,0.2,1.1,0.2,1.7   c-0.2-0.7-0.3-1.4-0.5-2c-0.6-2.1-1.6-3.8-3.2-5.3C66.3,82.4,64.9,80.9,64,79z"/><path
  d="M38.3,78.8C38.3,78.8,38.3,78.8,38.3,78.8c0.4,0.8,0.7,1.7,1.3,2.5c1.4,1.8,2.1,3.9,2.6,6.1c0.2,0.9,0.5,1.9,0.7,2.8   c-0.2-0.4-0.4-0.9-0.5-1.3c-0.5-1.6-0.9-3.1-1.5-4.7c-0.4-1-1.1-1.9-1.6-2.9c-0.6-1.1-1-2.3-1.5-3.4c0-0.1,0-0.2,0-0.3c0,0,0,0,0,0   C37.9,78,38.1,78.4,38.3,78.8z"/><path
  d="M11.4,25.1c-3,1.2-5.2,3.5-7.6,5.6C4,29.2,8.6,25.8,11.4,25.1z"/><path
  d="M61.2,89.1c-1.4-2.2-3.1-4-4.9-5.7c-1-0.9-1.9-2-2.2-3.3c0.7,1.6,2,2.6,3.1,3.7c1.5,1.4,2.6,3.1,3.7,4.8   c0.1,0.1,0.1,0.3,0.2,0.4C61.2,89,61.2,89.1,61.2,89.1z"/><path
  d="M53.9,84.6c-0.8-1.7-1.7-3.5-2.4-5.2c-0.8-2-1.2-4.1-1-6.2c0-0.2,0.1-0.3,0.1-0.5c-0.1,3,0.7,5.7,1.9,8.4   c0.5,1.1,1.1,2.2,1.6,3.2c0.3,0.7,0.6,1.4,0.9,2.1c0,0-0.1,0-0.1,0.1c-0.2-0.5-0.4-1-0.6-1.5C54,84.9,53.9,84.8,53.9,84.6z"/><path
  d="M61.6,61.6c0.4,0.9-0.6,0.7-0.8,1.2c-0.4-0.4-0.7-0.8-1-1.2c0.3-0.4,0.9-0.5,0.9-1.1c1.2,1.1,2.3,2.3,3,3.8   C63.1,63.4,62.3,62.5,61.6,61.6z"/><path
  d="M70.6,78.1C69.2,78,68,77.4,67,76.5c-0.7-0.6-1.4-1.3-2.2-1.7c-0.3-0.2-0.6-0.5-0.8-0.7c1.1,0.8,2.4,0.8,3.7,1.1   c-0.2,0.6-0.7,0.4-1.2,0.4C67.7,76.9,69.1,77.6,70.6,78.1z"/><path
  d="M70.5,28.3c0.2,0.3,0.4,0.5,0.6,0.9C71,29.1,70.9,29,70.8,29c-1.1-0.8-2-1.8-2.7-2.9c-0.8-1.4-2-2.5-3.4-3.2   c-0.1-0.1-0.3-0.1-0.4-0.2c0,0,0.1-0.1,0.1-0.1c0.6,0.4,1.2,0.7,1.7,1.1c0.8,0.6,1.5,1.2,2.2,1.9c0.3,0.3,0.5,0.7,0.7,1   c-0.3-0.3-0.6-0.6-0.9-0.9c0,0-0.1,0.1-0.1,0.1c0.6,0.7,1.1,1.3,1.7,2c0.1,0.1,0.3,0.1,0.4,0.2C70.3,28,70.4,28.2,70.5,28.3z"/><path
  d="M55.6,65.2c-0.1-0.4-0.2-0.8-0.3-1.1c0.8-0.5,1.7-0.6,2.6-0.7c0-0.1-0.1-0.2-0.2-0.4c0.3,0,0.5,0.1,0.7,0.1   C57.6,64.1,56.7,64.8,55.6,65.2z"/><path
  d="M71.9,42.1c0,0.9-0.1,1.8-0.1,2.7c-0.2,2.5-0.3,5,0,7.5c0.3,2.2,0.9,4.2,1.8,6.2c0.2,0.4,0.3,0.7,0.4,1.1   c-0.9-1.7-1.5-3.4-1.9-5.3c-0.7-2.9-0.7-5.7-0.5-8.6c0.1-1.2,0.1-2.4,0.2-3.6C71.9,42.1,71.9,42.1,71.9,42.1z"/><path
  d="M60.9,19.4c-4,1.2-5.5,2.7-5.8,5.7c-0.2-0.7-0.2-1.4,0.1-2.1C55.9,21,58.7,19.3,60.9,19.4z"/><path
  d="M7.7,39c0-0.7,0-1.4,0-2.1c0,0,0,0-0.1,0c0,0.2-0.1,0.5-0.1,0.7c-0.3-2.1,0.3-4.1,1.4-5.8c-0.5,2.4-1.5,4.7-1.1,7.2   C7.8,39,7.7,39,7.7,39z"/><path
  d="M70.3,79.6c-1.1,0.2-2-0.1-2.9-0.6c-1.3-0.8-2.4-1.7-3.3-3c1.7,1.7,3.6,2.7,6.1,2.4c-0.6,0.5-1.1,0.4-3.5-0.1   C67.4,79,68.9,79.6,70.3,79.6z"/><path
  d="M25.5,8.2C25.7,8.7,26,9,26.2,9.3c0,0,0,0,0-0.1c-0.4-0.4-1-0.7-1.3-1.2c-0.6-0.7-1.3-0.9-2.1-1.1c-0.1,0-0.1,0-0.2,0   c0.4-0.1,0.9-0.1,1.3-0.2c0.1,0,0.2,0.1,0.3,0.1c0.8,0.6,1.6,1.1,2.5,1.7c0.7,0.5,1.4,0.9,2,1.4C27.4,9.8,26.5,8.9,25.5,8.2z"/><path
  d="M26.7,12.3c-1.4-1-2.8-1.7-4.5-1.8c0.2,0.2,0.4,0.3,0.6,0.5c0,0,0,0,0,0.1c-1.1-0.4-2.3-0.8-3.5-1.3   C22,10,24.7,10.2,26.7,12.3z"/><path
  d="M14.9,17.9c0.2-0.2,0.4-0.3,0.6-0.5c0.4-0.4,0.8-0.9,1.2-1.2c0.5-0.4,1-0.8,1.5-1.1c1-0.7,2.1-1.1,3.4-1.1   c-0.2,0.1-0.4,0.2-0.7,0.3c-1.8,0.4-3.1,1.6-4.5,2.7c-0.5,0.4-0.9,0.7-1.4,1.1C15,18,15,18,14.9,17.9z"/><path
  d="M72.3,13.6c0.9-0.3,1.7-0.7,2.6-1c-1.4,1.1-3,1.7-4.7,2c1.5-0.6,2.2-1.9,3.1-3.1c-0.2,0.3-0.3,0.7-0.5,1   C72.6,12.8,72.4,13.2,72.3,13.6C72.2,13.6,72.2,13.6,72.3,13.6z"/><path
  d="M73.6,34C73.6,34,73.6,33.9,73.6,34c-0.3-1.1-0.7-2-1-3c0.1,0,0.1,0,0.2-0.1c1.4,1.6,2,3.6,2.6,5.6   c-0.2-0.6-0.4-1.1-0.6-1.7c-0.2-0.5-0.5-1.1-0.7-1.6c-0.3-0.5-0.6-1.1-0.9-1.6c0,0-0.1,0-0.1,0.1c0.3,0.5,0.6,1.1,0.8,1.6   c0.2,0.6,0.4,1.2,0.5,1.7c0.1,0.6,0.2,1.2,0.2,1.8c-0.3-1.3-0.6-2.5-0.9-3.8c0,0-0.1,0-0.1,0C73.6,33.4,73.6,33.7,73.6,34z"/><path
  d="M18.2,58.4c0,0.1,0.1,0.2,0.1,0.3c-0.1,0.7-0.3,1.4-0.5,2.2c0-0.3,0-0.7,0-1c-0.6,0.2-1.5,1.1-2.6,2.6   c0.4-1.5,1.5-2.5,2.6-3.5C17.9,58.7,18.1,58.5,18.2,58.4z"/><path
  d="M23.3,8.4c0.3,0.6,0.6,1,0.8,1.4c-0.5-0.3-1.1-0.9-1.8-1.1c-0.7-0.2-1.5,0-2.2-0.1c0.5-0.1,1-0.3,1.6-0.3   C22.2,8.2,22.7,8.3,23.3,8.4C23,8.2,22.8,8,22.6,7.8c1,0.2,1.8,0.9,2.6,1.4c0,0-0.1,0.1-0.1,0.1C24.6,9,24,8.7,23.3,8.4z"/><path
  d="M28.2,82.3c-0.2,2.7-0.5,5.3,0.9,7.8c-1.3-1.4-2-5.4-1.4-6.8c0,0.8,0,1.6,0,2.3c0,0,0.1,0,0.1,0c0.1-1.1,0.1-2.2,0.2-3.3   C28.1,82.3,28.1,82.3,28.2,82.3z"/><path
  d="M76.9,57c0-0.4-0.1-0.8,0-1.2c0.2-0.9,0.4-1.7,0.6-2.6c0.2-0.8,0.6-1.5,0.9-2.2c0.5-1.2,0.7-2.5,0.5-3.9   c0.3,0.5,0.4,1.7,0.1,2.7c-0.2,0.8-0.5,1.7-0.9,2.4C77.5,53.7,77,55.3,77,57C77,57,76.9,57,76.9,57z"/><path
  d="M26,55.5c-1.7,1.4-3.5,2.9-5.2,4.3C22.2,58,23.9,56.5,26,55.5z"/><path
  d="M70.3,82c2,0.4,5.3,3.8,5.4,5.5c-0.3-0.5-0.6-0.9-0.8-1.4c-1-1.6-2.2-3-4-3.7C70.6,82.3,70.4,82.1,70.3,82z"/><path
  d="M34.9,12.2c-0.1,1.6,0,2.3,0.5,3.1c-0.4-1.3-0.6-2.6-0.1-3.8c-0.7,2.3,0.3,4.1,1.5,6c-1.5-1.1-2.5-3.3-2.2-4.7   C34.7,12.6,34.8,12.4,34.9,12.2z"/><path
  d="M26.1,42.1c0.3-0.2,0.5-0.3,0.8-0.6c-0.1,0-0.2,0-0.4,0c2.3-1.3,3.3-3.6,5-5.3c-1.2,1.5-2.3,3-3.4,4.4   c0.4-0.2,0.9-0.5,1.4-0.8c0,0,0,0,0,0.1c-1.1,0.8-2.3,1.5-3.4,2.3C26.2,42.2,26.2,42.2,26.1,42.1z"/><path
  d="M66.5,22.7c1.3,0.7,2.3,1.7,3.2,2.7c0,0,0.1-0.1,0.1-0.1c-1-1-1.9-2-2.8-2.9c0.7,0.2,3,2.6,3.6,3.7c0,0-0.1,0.1-0.1,0.1   c-0.3-0.3-0.7-0.5-1-0.8c-1-0.8-1.9-1.7-2.9-2.6C66.6,22.8,66.5,22.7,66.5,22.7z"/><path
  d="M64.3,22.1c2.4,0.7,4.1,2.6,5.8,4.2C68.2,25,66.5,23.2,64.3,22.1z"/><path
  d="M25,15.4c0.6,0.1,1.2,0.1,1.8,0.2c0,0.1,0,0.1,0,0.2c-0.4-0.1-0.9-0.1-1.3-0.2c0,0,0,0.1,0,0.1c0.3,0.1,0.6,0.2,0.9,0.3   c0,0,0,0,0,0.1c-0.1,0-0.2,0-0.3,0l0,0c-1-0.4-1.9-0.3-2.9,0c-0.9,0.3-1.8,0.8-2.8,1.2c0.1-0.1,0.3-0.2,0.4-0.3   c1.2-0.8,2.4-1.4,3.9-1.4C24.8,15.5,24.9,15.4,25,15.4L25,15.4z"/><path
  d="M77.9,81.2c-0.8-1.8-2.1-3.2-3.6-4.5C75.6,76.8,77.6,79.3,77.9,81.2z"/><path
  d="M89.2,35.4c-0.5-0.5-1-1-1.5-1.5c-0.8-0.7-1.7-1.4-2.5-2.1c-0.2-0.1-0.3-0.3-0.5-0.5c0.1,0.1,0.2,0.1,0.4,0.2   c1.6,0.9,3.1,2,4,3.6C89.1,35.2,89.2,35.3,89.2,35.4C89.2,35.4,89.2,35.4,89.2,35.4z"/><path
  d="M56.2,27.9c-0.1,0.1-0.3,0.2-0.4,0.3c0-0.2,0-0.4,0.1-0.5c0.6-0.6,1.2-1.3,2-1.9c0.5-0.3,1.1-0.4,1.7-0.6   c0,0.1,0,0.1,0.1,0.2c-0.2,0.1-0.4,0.1-0.6,0.2c-0.8,0.3-1.5,0.9-2.1,1.5C56.7,27.3,56.4,27.6,56.2,27.9z"/><path
  d="M32.6,85.2c1.7,1.7,3.8,3.1,4.7,4.5c-1.2-1.1-3-2.7-4.8-4.3C32.5,85.3,32.5,85.2,32.6,85.2z"/><path
  d="M22.7,18.9c0-0.1,0-0.1,0-0.2c0.4-0.5,0.9-0.8,1.6-0.8c0.8,0,1.7,0,2.5,0c0,0.1,0,0.1,0,0.2c-0.5,0.2-1.1,0.3-1.6,0.5   c0,0,0,0,0,0c0.1-0.1,0.2-0.2,0.3-0.2C24.5,18.1,23.6,18.4,22.7,18.9z"/><path
  d="M18.2,58.4c-0.1,0.2-0.3,0.3-0.4,0.5c-0.5,0.4-1,0.8-1.5,1.3c-0.2,0.1-0.3,0.3-0.5,0.4c0.1-0.6,2.1-2.6,3-3   C18.6,57.8,18.4,58.1,18.2,58.4z"/><path
  d="M45.1,24.5c-0.9,2.4-0.7,4.9-1,7.3C44,29.3,44,26.8,45.1,24.5z"/><path
  d="M23.2,83.6c-1.6,1.6-3.2,3.1-4.4,5C19.8,86.5,21.4,84.9,23.2,83.6z"/><path
  d="M79.7,49.3c1-2.3,0.6-4.6,0.4-7C80.5,44.7,81,47,79.7,49.3z"/><path
  d="M63.4,62.5C63.3,62.5,63.3,62.5,63.4,62.5c-0.7-0.9-1.7-1.5-2.6-2.3c0.5-0.4,0.9-0.1,1.2,0.2c0,0,0,0,0,0   c0.3,0.5,0.5,1.2,1.1,1.5C63.2,61.9,63.5,62.2,63.4,62.5L63.4,62.5z"/><path
  d="M90.7,40.6c-1.4-1.4-2.8-2.9-4.2-4.3c0,0,0.1,0,0.1,0c1.1,1,2.3,2.1,3.4,3.1C90.3,39.7,90.5,40.2,90.7,40.6   C90.8,40.6,90.7,40.6,90.7,40.6z"/><path
  d="M17.9,86.5c1.4-2,3-3.6,5.2-4.7c-0.9,0.7-1.9,1.4-2.8,2.1C19.5,84.8,18.8,85.7,17.9,86.5z"/><path
  d="M76.8,26.6c-1.8-1.4-3.6-2.9-5.5-4.4c0,0,0.1-0.1,0.1-0.1C73.1,23.8,75.4,24.8,76.8,26.6z"/><path
  d="M42.8,14.8c-0.1,1.2-0.2,2.3-0.2,3.4c0,0.8,0.2,1.7,0.2,2.5c0,0.2,0,0.4,0,0.7c-0.3-1.5-0.6-3-0.4-4.6   C42.5,16.2,42.7,15.6,42.8,14.8z"/><path
  d="M28,8.6c-1.4-0.6-2.2-2-3.7-2.2C25.2,6,26.5,6.9,28,8.6z"/><path
  d="M26.2,40.7c0.3-0.3,0.6-0.7,0.9-0.8c1.2-0.3,1.7-1.5,2.7-2.1C28.8,39.1,27.8,40.3,26.2,40.7z"/><path
  d="M37.3,16.4c-1-1.8-1.6-3.6-0.9-5.6C36,12.8,36.6,14.6,37.3,16.4z"/><path
  d="M22.4,17.2c1.4-0.6,2.8-0.9,4.3-0.5C25.3,16.9,23.9,17.1,22.4,17.2z"/><path
  d="M63.6,52.5c-1.9-0.7-3.8-1.1-5.9-0.5C59.8,51.3,61.7,51.5,63.6,52.5z"/><path
  d="M71.6,84.6C70.6,83.9,70,83,69.6,82c0.2,0.3,0.4,0.6,0.6,0.8c0.2,0.2,0.3,0.5,0.7,0.5c0.2,0,0.4,0.4,0.5,0.7   C71.5,84.2,71.5,84.4,71.6,84.6z"/><path
  d="M35.6,12c-0.1,2.2,1.2,4,1.6,6.1c-0.1-0.1-0.1-0.3-0.2-0.4c-0.2-0.6-0.4-1.2-0.7-1.8C35.9,14.6,35.6,13.4,35.6,12z"/><path
  d="M71.2,23.6c-0.8,0-1.4-0.3-1.9-0.8c0.3,0.1,0.6,0.2,0.9,0.3c0,0,0,0,0.1-0.1c-0.4-0.4-0.7-0.7-1.1-1.1c0,0,0,0,0-0.1   c0.2,0.1,0.5,0.3,0.7,0.4c0.2,0.2,0.4,0.4,0.7,0.6C70.8,23.2,71,23.4,71.2,23.6z"/><path
  d="M18.9,86.6c1.1-1.5,2.4-2.8,3.4-3.5c-0.8,0.8-2.1,2.1-3.5,3.4C18.8,86.5,18.8,86.6,18.9,86.6z"/><path
  d="M62.6,54.1c-0.3-0.1-0.6-0.1-0.9-0.2c-1.2-0.4-2.4-0.6-3.6-0.6c0.6,0,1.3-0.2,1.9,0c0.8,0.2,1.6,0.5,2.4,0.8   C62.5,54.1,62.6,54.1,62.6,54.1C62.6,54.1,62.6,54.1,62.6,54.1z"/><path
  d="M20.8,68.7c0.1-0.1,0.2-0.3,0.3-0.4c0.9-0.7,1.8-1.5,2.8-2.2c0,0,0.1,0.1,0.1,0.1c-0.3,0.2-0.5,0.5-0.8,0.7   c-0.7,0.5-1.3,1.1-2,1.6C21.1,68.6,20.9,68.7,20.8,68.7z"/><path
  d="M36.1,65.8c0-0.1,0-0.2,0-0.3c0.1-0.3,0.2-0.6,0.3-0.9c0,0,0,0,0.1,0c0,0.2,0,0.4,0,0.5c0.1,0,0.3,0.1,0.3,0.1   c0,0.3,0,0.7-0.1,1c-0.1,0.2-0.3,0.4-0.5,0.5c0,0-0.1,0-0.1-0.1C36,66.3,36.1,66,36.1,65.8z"/><path
  d="M77.2,61.1c-0.1-0.2-0.2-0.3-0.3-0.5c-0.2-0.5-0.5-1.1-0.6-1.6c-0.4-1.1-0.7-2.2-0.6-3.4c0.1,1.8,0.7,3.4,1.5,5   C77.2,60.8,77.2,61,77.2,61.1z"/><path
  d="M48.4,8.4c-1.2,1-2.4,2-3.3,3.3C45.9,10.2,47,9.2,48.4,8.4z"/><path
  d="M39.8,14.5c0.1-0.4,0.2-0.7,0.3-1.1c0.3-1.4,0.8-2.6,1.9-3.6c-1.4,1.5-1.9,3.4-2.1,5.4C39.8,15,39.8,14.7,39.8,14.5   L39.8,14.5z"/><path
  d="M30.3,58.2c-0.1,0.1-0.2,0.2-0.3,0.2c-0.3-0.2-0.6-0.4-0.9-0.6c0.4-0.2,0.7-0.4,1-0.6c0,0,0,0.1,0.1,0.1   c-0.1,0.1-0.1,0.2-0.3,0.4c0.2-0.1,0.2-0.1,0.3-0.1c0,0,0,0,0,0.1c-0.1,0.1-0.3,0.2-0.4,0.3c0,0,0,0.1,0,0.1   c0.2-0.2,0.5-0.3,0.7-0.5C30.4,57.7,30.3,58,30.3,58.2L30.3,58.2z"/><path
  d="M39.4,67.4c0-0.1,0-0.2-0.1-0.3c-0.1,0.1-0.1,0.2-0.2,0.2c-0.4-0.4-0.1-0.7,0.1-1c0.2-0.3,0.4-0.5,0.6-0.8   c0,0.2-0.1,0.3-0.2,0.6c0.1-0.2,0.2-0.2,0.3-0.4C39.7,66.3,39.5,66.8,39.4,67.4z"/><path
  d="M26.6,14.9c-0.9-0.1-1.8-0.1-2.7-0.2c0,0,0,0,0,0.1c0.1-0.1,0.3-0.1,0.4-0.2c0,0-0.1,0-0.2-0.1c0,0,0-0.1,0-0.1   C25.1,14.2,25.9,14.5,26.6,14.9z"/><path
  d="M69.5,34.5c0.1,0.3,0.2,0.6,0.2,0.9c0,0-0.1,0-0.1,0c-0.4-1.1-0.8-2.2-1.2-3.3c0,0,0.1,0,0.1,0   C68.9,32.8,69.2,33.7,69.5,34.5z"/><path
  d="M76.7,77.7c-0.9-0.5-1.8-1-2.6-1.5C75.1,76.4,76,76.7,76.7,77.7z"/><path
  d="M78.7,25.8c1.3,0.6,2.5,1.6,3.5,2.6C81,27.5,79.8,26.6,78.7,25.8z"/><path
  d="M33,46c-0.6-0.4-1.1-0.7-1.7-1.1c0.2-0.1,0.3-0.2,0.5-0.4C32.2,44.9,32.6,45.4,33,46C33,45.9,33,46,33,46z"/><path
  d="M31.4,10.8c0.8-0.1,1.6-0.2,2.5-0.3c0,0.1,0,0.1,0,0.2C33.1,11.1,32.3,11,31.4,10.8z"/><path
  d="M58.4,52.5c1.5-0.1,2.9-0.1,4.4,0.3C61.3,52.6,59.9,52.6,58.4,52.5z"/><path
  d="M81.5,36.5c-0.7-1.2-1.2-2.5-2.4-3.4C80,33.4,81.2,35.2,81.5,36.5z"/><path
  d="M59.2,73.6c-1.2-0.5-2.3-1.2-2.8-2.6C57.1,72.2,58.1,73,59.2,73.6z"/><path
  d="M17.8,23.4c-0.5,0.7-1,1.4-1.5,2c-0.4,0.5-0.9,0.9-1.4,1.2c0.6-0.6,1.2-1.2,1.8-1.9C17.1,24.3,17.4,23.9,17.8,23.4   C17.8,23.4,17.8,23.4,17.8,23.4z"/><path
  d="M38,17.3c-0.7-1.5-1.3-3-1.4-4.4C37.1,14.2,37.6,15.7,38,17.3z"/><path
  d="M70.2,24c-0.9-0.9-1.8-1.8-2.8-2.7c0,0,0,0,0,0c0.9,0.9,1.8,1.7,2.7,2.6c0,0,0,0.2-0.1,0.3C70.1,24.1,70.1,24.1,70.2,24z"/><path
  d="M32.1,15.9c-1,0-2,0-3,0C30.1,15.6,31.1,15.5,32.1,15.9z"/><path
  d="M75.8,43.4c-0.1,1.4-0.2,2.7-0.3,4.1c0,0-0.1,0-0.1,0C75.5,46.2,75.6,44.8,75.8,43.4C75.8,43.4,75.8,43.4,75.8,43.4z"/><path
  d="M44.5,30.9c0.4-1.4,0.8-2.9,1.3-4.3c0,0,0.1,0,0.1,0C45.4,28.1,45,29.5,44.5,30.9C44.5,30.9,44.5,30.9,44.5,30.9z"/><path
  d="M74.8,31.9c-0.6-0.9-1.3-1.8-1.8-2.7C73.7,29.6,74.3,30.6,74.8,31.9z"/><path
  d="M58.5,39.5c0.8,0.7,1.6,1.4,2.3,2.1C59.8,41.2,59.1,40.4,58.5,39.5z"/><path
  d="M25,15.4c-0.4,0-0.7,0-1,0c0.4-0.4,1.7-0.5,2.7,0C26,15.4,25.5,15.4,25,15.4C25,15.4,25,15.4,25,15.4z"/><path
  d="M33.6,17c0.9,0.6,1.5,1.4,1.9,2.4C34.8,18.6,34.2,17.8,33.6,17z"/><path
  d="M54.6,23.7c0.2,0.9,0.3,1.8,0.5,2.8C54.6,25.5,54.4,24.6,54.6,23.7z"/><path
  d="M28.3,17.3c0.8-0.5,1.7-0.4,2.6-0.3C30.1,17.1,29.2,17.2,28.3,17.3z"/><path
  d="M45.5,72.1C45.5,72.1,45.5,72.1,45.5,72.1c-0.1,0.3-0.1,0.7-0.2,1c-0.2,0.8-0.1,1.6,0.2,2.3c0,0.1,0.1,0.3,0.1,0.4   C44.9,74.6,45,73.4,45.5,72.1z"/><path
  d="M44.4,80.7c-0.7-1-0.8-2-0.4-3.1C43.8,78.7,43.9,79.7,44.4,80.7z"/><path
  d="M58,7.5c-1.3-0.3-2.5-0.6-3.7-0.9C54.9,6.6,57.1,7.1,58,7.5z"/><path
  d="M43.8,66.8c0-0.1,0-0.2,0.1-0.3c0,0,0.1,0,0.1,0c0,0.3,0.1,0.7,0.1,1.1c-0.2-0.1-0.2-0.1-0.3-0.2c-0.4-0.5-0.1-1-0.2-1.6   c0,0.3,0.1,0.6,0.1,0.9C43.8,66.8,43.8,66.8,43.8,66.8z"/><path
  d="M57.5,36.6c0.6,0.9,1.2,1.8,1.8,2.7c0,0-0.1,0-0.1,0.1C58.6,38.5,58,37.6,57.5,36.6C57.4,36.7,57.4,36.7,57.5,36.6z"/><path
  d="M41.7,74.2c0.3,1,0.6,2.1,0.9,3.1C42.2,76.8,41.7,74.9,41.7,74.2z"/><path
  d="M26.9,55.6c0.1-0.2,0.1-0.4,0.2-0.5c0.2-0.1,0.4-0.4,0.7-0.1c0.2,0.1,0.2,0.2,0,0.3C27.6,55.3,27.3,55.4,26.9,55.6z"/><path
  d="M42.8,21.7c0.1,0.8,0.2,1.6,0.2,2.4c0,0-0.1,0-0.1,0c-0.1-0.8-0.2-1.6-0.3-2.4C42.7,21.7,42.7,21.7,42.8,21.7z"/><path
  d="M45.9,18.5c-0.4,1-0.8,1.9-1.2,2.9c0,0-0.1,0-0.1,0c0.4-1,0.8-1.9,1.2-2.9C45.8,18.5,45.8,18.5,45.9,18.5z"/><path
  d="M28.6,16.5c0.8-0.1,1.6-0.1,2.4,0.2c-0.9,0-1.6,0-2.4,0C28.6,16.6,28.6,16.6,28.6,16.5z"/><path
  d="M62.1,29.9c0.4,0.4,0.8,0.8,1.2,1.1c0,0.1-0.1,0.1-0.1,0.2c-0.4-0.4-0.8-0.7-1.2-1.1C62,30,62.1,29.9,62.1,29.9z"/><path
  d="M31.4,45.3c0.4,0.3,0.8,0.7,1.3,1c0,0-0.1,0.1-0.1,0.1c-0.4-0.2-0.8-0.4-1.3-0.7c0.2,0,0.4,0,0.6,0.1   c-0.3-0.2-0.4-0.3-0.6-0.4C31.4,45.4,31.4,45.4,31.4,45.3z"/><path
  d="M18.4,61.8c-0.4,0.8-0.8,1.5-1.1,2.3c0,0-0.1-0.1-0.1-0.1C17.5,63.3,17.8,62.5,18.4,61.8C18.4,61.8,18.4,61.8,18.4,61.8z"/><path
  d="M45.6,19.9c-0.3,1-0.7,2-1,3c0,0-0.1,0-0.1,0c0.3-1,0.6-2,1-3C45.5,19.9,45.6,19.9,45.6,19.9z"/><path
  d="M39.6,10.4c-0.2,1-0.3,2.1-0.5,3C39.1,12.4,39.2,11.3,39.6,10.4z"/><path
  d="M33.4,49.9c-0.3-0.1-0.6-0.1-0.9-0.1c0,0,0,0,0,0c0.4,0,0.8-0.1,1.3-0.1c0.1,0,0.2,0.1,0.3,0.3c-0.3,0.1-0.6,0.2-0.9,0.3   C33.3,50,33.3,50,33.4,49.9z"/><path
  d="M70.1,27.9c-0.3-0.4-0.6-0.7-0.8-1.1c0.5,0.5,1,1,1.6,1.5c-0.2,0-0.3,0-0.3,0C70.4,28.2,70.3,28,70.1,27.9z"/><path
  d="M44.6,13.7c0.4-0.9,0.8-1.8,1.2-2.6c0,0,0.1,0,0.1,0.1c-0.4,0.9-0.8,1.7-1.2,2.6C44.7,13.7,44.7,13.7,44.6,13.7z"/><path
  d="M32.2,16.3c-1,0-1.9,0-2.8,0C30.3,16,31.2,16.1,32.2,16.3z"/><path
  d="M39.4,65.1c-0.2,0.7-0.5,1.4-0.7,2.1C38.5,66.3,39,65.7,39.4,65.1z"/><path
  d="M27.3,52.6c-0.2-0.1-0.3-0.1-0.5-0.2c0.7-0.4,0.9,0.7,1.6,0.3c0,0.1,0,0.1-0.1,0.2c-0.4-0.1-0.8-0.1-1.3-0.2   C27.2,52.7,27.2,52.6,27.3,52.6z"/><path
  d="M57.7,47c0.3,0.8,0.6,1.6,0.9,2.4c0,0-0.1,0-0.1,0c-0.3-0.8-0.6-1.6-0.9-2.4C57.6,47,57.7,47,57.7,47z"/><path
  d="M46.4,43c0.2-0.4,0.2-0.4,2.1-0.3C47.8,42.8,47.1,42.9,46.4,43z"/><path
  d="M64.8,71.1c0.4,0.7,0.9,1.3,1.3,2C65.5,72.6,65,72,64.8,71.1z"/><path
  d="M82.3,45.7c-0.4-0.8-0.7-1.6-1.1-2.4c0,0,0.1,0,0.1,0c0.4,0.8,0.7,1.6,1.1,2.4C82.4,45.7,82.4,45.7,82.3,45.7z"/><path
  d="M30.2,58.2c0.3-0.2,0.7-0.3,1.1-0.6C31.2,58.3,30.7,58.5,30.2,58.2C30.3,58.2,30.2,58.2,30.2,58.2z"/><path
  d="M22.5,18.6c-0.1,0-0.1,0-0.2,0c0.1-0.1,0.2-0.4,0.4-0.4c0.6-0.2,1.1-0.4,1.7-0.6l0,0c-0.2,0.1-0.3,0.2-0.5,0.2   C23.5,18.1,23,18.3,22.5,18.6z"/><path
  d="M39.8,14.5c-0.1-1.1-0.3-2.2,0-3.3C39.8,12.3,39.8,13.4,39.8,14.5C39.8,14.5,39.8,14.5,39.8,14.5z"/><path
  d="M33,12.2c-0.6,0-1.3,0-1.9,0c0-0.1,0-0.1,0-0.2C31.7,12,32.3,12.1,33,12.2C33,12.1,33,12.1,33,12.2z"/><path
  d="M30.2,15c0.8,0.2,1.6,0.3,2.3,0.5c0,0,0,0.1,0,0.1c-0.8-0.1-1.6-0.3-2.3-0.4C30.2,15.1,30.2,15,30.2,15z"/><path
  d="M45,43.1c0.5-0.3,1-0.6,1.4-0.8c0,0.1,0.1,0.1,0.1,0.2C46,42.7,45.5,43,45,43.1C45,43.2,45,43.1,45,43.1z"/><path
  d="M57.9,77.5C57.9,77.5,57.9,77.5,57.9,77.5c0.8,0.3,1.7,0.7,2.6,0.6c-0.9,0.2-1.7,0-2.5-0.4C57.9,77.6,57.9,77.5,57.9,77.5z   "/><path
  d="M28.5,34.9c-0.4,0.2-0.9,0.3-1.3,0.5c0,0,0-0.1,0-0.1c0.4-0.2,0.8-0.6,1.3-0.6C28.4,34.8,28.4,34.9,28.5,34.9z"/><path
  d="M33,45c-0.5,0-0.8-0.3-0.9-1.2C32.4,44.3,32.7,44.6,33,45z"/><path
  d="M75.3,87.2c0.3,0.7,0.7,1.4,1,2.2c0,0-0.1,0-0.1,0c-0.4-0.7-0.7-1.4-1.1-2.2C75.2,87.2,75.2,87.2,75.3,87.2z"/><path
  d="M27.7,42.7c-0.1,0.1-0.1,0.3-0.2,0.4c-0.3,0.2-0.7,0.4-0.9,0.5c0.3-0.3,0.6-0.7,1-1.1C27.6,42.6,27.7,42.7,27.7,42.7z"/><path
  d="M34.5,10c-0.7,0-1.4,0.1-2.1,0.1C33.1,9.7,33.8,10,34.5,10z"/><path
  d="M32.4,14.4c-0.6-0.1-1.2-0.1-2-0.2C31.3,14,31.9,14.2,32.4,14.4z"/><path
  d="M33,12.6c-0.7,0-1.5,0-2.2,0c0,0,0-0.1,0-0.1C31.5,12.6,32.2,12.6,33,12.6z"/><path
  d="M59.7,54.2c-0.7,0.1-1.3,0.3-2,0.4c0,0,0-0.1,0-0.1c0.7-0.1,1.3-0.3,2-0.4C59.6,54.1,59.6,54.1,59.7,54.2z"/><path
  d="M76.6,60.4c-0.3-0.5-0.7-0.9-1-1.4c0.1,0,0.1-0.1,0.2-0.1C76.1,59.4,76.4,59.9,76.6,60.4C76.7,60.4,76.6,60.4,76.6,60.4z"/><path
  d="M45.3,10.2c-0.2,0.8-0.4,1.5-0.7,2.3c0,0-0.1,0-0.1,0c0.2-0.8,0.4-1.6,0.6-2.4C45.2,10.1,45.2,10.2,45.3,10.2z"/><path
  d="M42.9,45.3c0-0.3,0-0.6,0-0.8c0,0,0,0,0.1,0c0,0.1,0.1,0.1,0.1,0.2c0.1-0.1,0.1-0.2,0.2-0.2c0,0,0,0,0.1,0   c-0.1,0.3-0.1,0.6-0.2,0.8C43,45.3,42.9,45.3,42.9,45.3z"/><path
  d="M27.2,50.4c0.5,0,0.9,0.1,1.4,0.1C28.3,50.8,28,50.8,27.2,50.4z"/><path
  d="M47.7,43.4c-0.2,0-0.4,0-0.7,0c0,0,0-0.1,0-0.1c0.6-0.1,1.3-0.1,1.9-0.2c0,0,0,0.1,0,0.1C48.5,43.2,48.1,43.3,47.7,43.4   L47.7,43.4z"/><path
  d="M42.7,66.2c0,0.5,0,1,0,1.4c0,0-0.1,0-0.1,0C42.6,67.2,42.6,66.7,42.7,66.2C42.6,66.2,42.6,66.2,42.7,66.2z"/><path
  d="M27.7,56.9c0-0.1,0.1-0.1,0.1-0.2c-0.3,0.1-0.5,0.2-0.7,0.2c0,0,0-0.1,0-0.1c0.4-0.2,0.8-0.3,1.2-0.5   C28.2,56.8,28.2,56.8,27.7,56.9z"/><path
  d="M32.3,14.9c-0.6-0.1-1.2-0.2-1.8-0.3c0,0,0-0.1,0-0.1c0.6,0.1,1.2,0.2,1.8,0.2C32.3,14.9,32.3,14.9,32.3,14.9z"/><path
  d="M27.4,56.1c0.2,0,0.4-0.1,0.6-0.1c0,0.1,0.1,0.2,0.2,0.3c-0.3,0.1-0.5,0.2-0.8,0.3C27.2,56.3,28,56.2,27.4,56.1z"/><path
  d="M26,16.1c0.1,0.1,0.2,0.1,0.3,0.2c0,0,0,0.1,0,0.1c-0.4,0-0.8,0-1.3-0.1c0-0.1,0-0.1,0-0.2C25.4,16.1,25.7,16.1,26,16.1   C26,16.1,26,16.1,26,16.1z"/><path
  d="M37.3,83.5c0.3,0.6,0.7,1.1,1,1.7c0,0-0.1,0-0.1,0.1C37.8,84.7,37.5,84.1,37.3,83.5C37.2,83.5,37.2,83.5,37.3,83.5z"/><path
  d="M32.5,47.1c-0.4-0.2-0.8-0.4-1.3-0.6C31.8,46.5,32.2,46.5,32.5,47.1z"/><path
  d="M57.2,58.1c-0.3,0-0.6-0.1-1-0.1c0.2,0.1,0.2,0.2,0.3,0.2c0,0,0,0,0,0.1c-0.2-0.1-0.4-0.1-0.7-0.2   C56.4,57.7,56.8,58,57.2,58.1z"/><path
  d="M33.3,11.7c-0.7,0.1-1.3,0.1-2,0.2c0,0,0-0.1,0-0.1C31.9,11.7,32.6,11.6,33.3,11.7C33.2,11.6,33.3,11.6,33.3,11.7z"/><path
  d="M54.1,59.4c-0.1,0.1-0.2,0.2-0.3,0.3c-0.1-0.1-0.2-0.2-0.3-0.3c0-0.1,0.1-0.2,0.2-0.3C53.8,59.1,53.9,59.2,54.1,59.4z"/><path
  d="M54.7,57.8c-0.1,0.1-0.2,0.2-0.3,0.3c-0.1-0.1-0.2-0.2-0.3-0.3c0-0.1,0.1-0.2,0.2-0.3C54.4,57.6,54.5,57.7,54.7,57.8z"/><path
  d="M52.3,57.7c-0.1,0.1-0.2,0.2-0.3,0.3c-0.1-0.1-0.2-0.2-0.3-0.3c0-0.1,0.1-0.2,0.2-0.3C52,57.4,52.1,57.5,52.3,57.7z"/><path
  d="M60,64.7c0.1,0,0.1,0,0.2,0c0.2,0.3,0.4,0.5,0.6,0.8c0.1,0.2,0.2,0.3,0.3,0.6c-0.4-0.4-0.6-0.7-0.9-0.9   C60.1,65,60.1,64.8,60,64.7z"/><path
  d="M32,55.7c0.2-0.3,0.4-0.6,0.9-0.4C32.6,55.5,32.4,55.8,32,55.7z"/><path
  d="M53.7,55.8c0.2-0.3,0.4-0.6,0.9-0.4C54.3,55.6,54.1,55.9,53.7,55.8z"/><path
  d="M45.6,67.6c0-0.4-0.1-0.7-0.1-1C45.8,66.9,46.1,67.2,45.6,67.6z"/><path
  d="M31.8,58.2c0.3-0.2,0.7-0.5,1-0.7c0,0,0,0.1,0.1,0.1c-0.3,0.3-0.7,0.5-1,0.8C31.9,58.4,31.8,58.3,31.8,58.2z"/><path
  d="M33.8,50.3c-0.1,0-0.3,0.1-0.4,0.1c-0.4,0.1-0.8,0.1-1.3,0.2c0,0,0,0,0,0c0.5-0.1,1-0.3,1.5-0.4   C33.7,50.2,33.7,50.2,33.8,50.3z"/><path
  d="M24.4,17.6c0.7,0,1.4,0,2,0c0,0.1,0,0.1,0,0.2C25.7,17.7,25.1,17.6,24.4,17.6C24.4,17.6,24.4,17.6,24.4,17.6z"/><path
  d="M29.7,55c0.3-0.2,0.5-0.3,0.8-0.4C30.4,55.1,30.1,55.2,29.7,55z"/><path
  d="M36.6,30.5c0.3-0.5,0.6-1.1,0.9-1.6c0,0,0.1,0,0.1,0c-0.3,0.5-0.6,1.1-0.9,1.6C36.7,30.5,36.7,30.5,36.6,30.5z"/><path
  d="M37.4,23.1c0.1-0.5,0.1-0.9,0.2-1.4c0,0,0.1,0,0.1,0c-0.1,0.5-0.1,0.9-0.2,1.4C37.5,23.1,37.4,23.1,37.4,23.1z"/><path
  d="M57.9,53.8c0.5-0.1,1-0.2,1.5-0.3c0,0,0,0.1,0,0.1c-0.5,0.1-1,0.2-1.5,0.3C57.9,53.8,57.9,53.8,57.9,53.8z"/><path
  d="M59.1,65.7c0.1,0.1,0.3,0.2,0.4,0.3c0.1-0.1,0.2-0.2,0.4-0.3c-0.2,0.2-0.3,0.5-0.5,0.8C59.3,66.1,59.2,65.9,59.1,65.7z"/><path
  d="M40.3,65.7c-0.1,0.5-0.2,1.1-0.3,1.6c0,0-0.1,0-0.1,0c0.1-0.5,0.2-1.1,0.3-1.6C40.2,65.7,40.2,65.7,40.3,65.7z"/><path
  d="M27.9,53.6c-0.3,0.1-0.7,0.2-1,0.3c0-0.1,0-0.1-0.1-0.2c0.3-0.1,0.7-0.2,1-0.3C27.9,53.5,27.9,53.5,27.9,53.6z"/><path
  d="M47.7,43.4c0.5,0,0.9,0,1.4,0c0,0,0,0.1,0,0.1c-0.6,0-1.2,0.1-1.8,0.1c0,0,0,0,0-0.1C47.4,43.5,47.5,43.4,47.7,43.4   C47.7,43.4,47.7,43.4,47.7,43.4z"/><path
  d="M32.2,10.3c0.7,0,1.4,0,2.1,0c0,0,0,0,0,0.1C33.6,10.4,32.9,10.4,32.2,10.3C32.2,10.3,32.2,10.3,32.2,10.3z"/><path
  d="M42.4,22.8c-0.1-0.5-0.3-1.1-0.4-1.6c0,0,0.1,0,0.1,0c0.1,0.5,0.3,1.1,0.4,1.6C42.4,22.8,42.4,22.8,42.4,22.8z"/><path
  d="M41.3,67.7c0.1-0.6,0.1-1.1,0.2-1.7c0,0,0.1,0,0.1,0C41.6,66.6,41.5,67.1,41.3,67.7C41.4,67.7,41.3,67.7,41.3,67.7z"/><path
  d="M32.1,13.7c-0.4,0-0.9-0.1-1.3-0.1c0,0,0-0.1,0-0.1c0.4,0,0.9,0.1,1.3,0.1C32.1,13.6,32.1,13.6,32.1,13.7z"/><path
  d="M14,40.5c0-0.1-0.1-0.3,0-0.4c0.5-1.8,1.2-3.4,2.5-4.8c0.1-0.1,0.1-0.1,0.2-0.1c-0.2,0.3-0.4,0.5-0.6,0.8   c-0.9,1.3-1.5,2.6-1.8,4.2c-0.1,0.6-0.2,1.2-0.3,1.8c-0.1-0.1-0.1-0.1-0.2-0.2C13.9,41.4,14,41,14,40.5z"/><path
  d="M25.6,30.2c0,0.1,0,0.2,0,0.3c-0.1,0-0.2,0.1-0.3,0.1C25.4,30.4,25.5,30.3,25.6,30.2z"/><path
  d="M32.4,21.1C32.4,21.1,32.5,21.1,32.4,21.1C32.5,21.1,32.4,21.1,32.4,21.1z"/><path
  d="M25.9,72.4c0,0.1,0,0.2,0,0.4c-0.4,0.3-0.7,0.7-1.1,1c-0.3,0.1-0.6,0.2-0.9,0.2C24.6,73.5,25.2,72.9,25.9,72.4z"/><path
  d="M65.1,59.7c0.3,0.3,0.3,0.6,0.2,1c-0.1,0.4-0.2,0.8-0.4,1.3c0-0.5,0.1-0.9,0.1-1.4c-0.1,0.1-0.2,0.2-0.2,0.2   c0-0.1-0.1-0.1-0.1-0.2c0.1-0.4,0.3-0.7,0.4-1.1C65,59.6,65,59.6,65.1,59.7z"/><path
  d="M17,50.8c-0.6-2.2-0.8-4.4-0.6-6.7c0.2-2,0.9-3.9,1.8-5.8c-0.2,0.6-0.4,1.2-0.7,1.8c-0.7,2.1-1,4.2-0.9,6.3   c0,0.1,0,0.2,0.1,0.3l0,0c0.1,1.2,0.3,2.4,0.4,3.6C17,50.4,17,50.6,17,50.8C17,50.8,17,50.8,17,50.8z"/><path
  d="M12.7,45.5c0,0,0,0.1,0,0.1c-0.8-1-1.1-4.2-0.6-5.6c-0.2,1.7-0.1,3.4,0.4,5C12.6,45.2,12.6,45.4,12.7,45.5   C12.7,45.5,12.7,45.5,12.7,45.5z"/><path
  d="M10.3,39.9c0.1-1.4,0.6-2.8,1.4-4C11.2,37.2,10.7,38.7,10.3,39.9z"/><path
  d="M16.7,46.7c0.1-1.3,0.3-2.6,0.4-3.9c0.1,0,0.1,0,0.2,0c0,0.2-0.1,0.4-0.1,0.7c-0.1,1-0.2,2-0.3,3   C16.8,46.6,16.7,46.6,16.7,46.7C16.6,46.7,16.7,46.7,16.7,46.7z"/><path
  d="M25.4,19.6c-0.6,0.2-1.1,0.4-1.7,0.7C24,19.5,24.7,19.7,25.4,19.6z"/><path
  d="M29.4,27c-0.4,0.2-0.7,0.4-1.1,0.7C28.3,27.2,28.7,27,29.4,27z"/><path
  d="M16.1,38.7c0.1-0.4,0.3-0.9,0.4-1.3c0,0,0.1,0,0.1,0c-0.1,0.5-0.2,1-0.4,1.5C16.1,38.8,16.1,38.8,16.1,38.7   C16.1,38.7,16.1,38.7,16.1,38.7z"/></g>
  </svg>
